G04 #@! TF.GenerationSoftware,KiCad,Pcbnew,(5.1.9)-1*
G04 #@! TF.CreationDate,2021-08-26T16:24:34+03:00*
G04 #@! TF.ProjectId,RPi_EthShield,5250695f-4574-4685-9368-69656c642e6b,rev?*
G04 #@! TF.SameCoordinates,Original*
G04 #@! TF.FileFunction,Soldermask,Bot*
G04 #@! TF.FilePolarity,Negative*
%FSLAX46Y46*%
G04 Gerber Fmt 4.6, Leading zero omitted, Abs format (unit mm)*
G04 Created by KiCad (PCBNEW (5.1.9)-1) date 2021-08-26 16:24:34*
%MOMM*%
%LPD*%
G01*
G04 APERTURE LIST*
%ADD10C,1.446000*%
%ADD11C,1.530000*%
%ADD12C,2.445000*%
%ADD13R,1.500000X2.000000*%
%ADD14R,3.800000X2.000000*%
%ADD15O,1.700000X1.700000*%
%ADD16R,1.700000X1.700000*%
%ADD17C,6.200000*%
G04 APERTURE END LIST*
D10*
X60960000Y-35052000D03*
X58420000Y-36322000D03*
X60960000Y-37592000D03*
X58420000Y-38862000D03*
X60960000Y-40132000D03*
X58420000Y-41402000D03*
X60960000Y-42672000D03*
X58420000Y-43942000D03*
D11*
X72210000Y-32872000D03*
X72210000Y-35412000D03*
X72210000Y-43582000D03*
X72210000Y-46122000D03*
D12*
X64260000Y-31752000D03*
X64260000Y-47242000D03*
D13*
X16242000Y-39776000D03*
X20842000Y-39776000D03*
X18542000Y-39776000D03*
D14*
X18542000Y-46076000D03*
G36*
G01*
X31754500Y-38411998D02*
X31754500Y-39312002D01*
G75*
G02*
X31504502Y-39562000I-249998J0D01*
G01*
X30979498Y-39562000D01*
G75*
G02*
X30729500Y-39312002I0J249998D01*
G01*
X30729500Y-38411998D01*
G75*
G02*
X30979498Y-38162000I249998J0D01*
G01*
X31504502Y-38162000D01*
G75*
G02*
X31754500Y-38411998I0J-249998D01*
G01*
G37*
G36*
G01*
X33579500Y-38411998D02*
X33579500Y-39312002D01*
G75*
G02*
X33329502Y-39562000I-249998J0D01*
G01*
X32804498Y-39562000D01*
G75*
G02*
X32554500Y-39312002I0J249998D01*
G01*
X32554500Y-38411998D01*
G75*
G02*
X32804498Y-38162000I249998J0D01*
G01*
X33329502Y-38162000D01*
G75*
G02*
X33579500Y-38411998I0J-249998D01*
G01*
G37*
G36*
G01*
X52237000Y-34078000D02*
X52237000Y-32978000D01*
G75*
G02*
X52487000Y-32728000I250000J0D01*
G01*
X54762000Y-32728000D01*
G75*
G02*
X55012000Y-32978000I0J-250000D01*
G01*
X55012000Y-34078000D01*
G75*
G02*
X54762000Y-34328000I-250000J0D01*
G01*
X52487000Y-34328000D01*
G75*
G02*
X52237000Y-34078000I0J250000D01*
G01*
G37*
G36*
G01*
X48112000Y-34078000D02*
X48112000Y-32978000D01*
G75*
G02*
X48362000Y-32728000I250000J0D01*
G01*
X50637000Y-32728000D01*
G75*
G02*
X50887000Y-32978000I0J-250000D01*
G01*
X50887000Y-34078000D01*
G75*
G02*
X50637000Y-34328000I-250000J0D01*
G01*
X48362000Y-34328000D01*
G75*
G02*
X48112000Y-34078000I0J250000D01*
G01*
G37*
G36*
G01*
X26204000Y-35870500D02*
X25104000Y-35870500D01*
G75*
G02*
X24854000Y-35620500I0J250000D01*
G01*
X24854000Y-33345500D01*
G75*
G02*
X25104000Y-33095500I250000J0D01*
G01*
X26204000Y-33095500D01*
G75*
G02*
X26454000Y-33345500I0J-250000D01*
G01*
X26454000Y-35620500D01*
G75*
G02*
X26204000Y-35870500I-250000J0D01*
G01*
G37*
G36*
G01*
X26204000Y-39995500D02*
X25104000Y-39995500D01*
G75*
G02*
X24854000Y-39745500I0J250000D01*
G01*
X24854000Y-37470500D01*
G75*
G02*
X25104000Y-37220500I250000J0D01*
G01*
X26204000Y-37220500D01*
G75*
G02*
X26454000Y-37470500I0J-250000D01*
G01*
X26454000Y-39745500D01*
G75*
G02*
X26204000Y-39995500I-250000J0D01*
G01*
G37*
G36*
G01*
X18739500Y-34840000D02*
X18739500Y-33740000D01*
G75*
G02*
X18989500Y-33490000I250000J0D01*
G01*
X21264500Y-33490000D01*
G75*
G02*
X21514500Y-33740000I0J-250000D01*
G01*
X21514500Y-34840000D01*
G75*
G02*
X21264500Y-35090000I-250000J0D01*
G01*
X18989500Y-35090000D01*
G75*
G02*
X18739500Y-34840000I0J250000D01*
G01*
G37*
G36*
G01*
X14614500Y-34840000D02*
X14614500Y-33740000D01*
G75*
G02*
X14864500Y-33490000I250000J0D01*
G01*
X17139500Y-33490000D01*
G75*
G02*
X17389500Y-33740000I0J-250000D01*
G01*
X17389500Y-34840000D01*
G75*
G02*
X17139500Y-35090000I-250000J0D01*
G01*
X14864500Y-35090000D01*
G75*
G02*
X14614500Y-34840000I0J250000D01*
G01*
G37*
D15*
X69130000Y-26730000D03*
X69130000Y-29270000D03*
X66590000Y-26730000D03*
X66590000Y-29270000D03*
X64050000Y-26730000D03*
X64050000Y-29270000D03*
X61510000Y-26730000D03*
X61510000Y-29270000D03*
X58970000Y-26730000D03*
X58970000Y-29270000D03*
X56430000Y-26730000D03*
X56430000Y-29270000D03*
X53890000Y-26730000D03*
X53890000Y-29270000D03*
X51350000Y-26730000D03*
X51350000Y-29270000D03*
X48810000Y-26730000D03*
X48810000Y-29270000D03*
X46270000Y-26730000D03*
X46270000Y-29270000D03*
X43730000Y-26730000D03*
X43730000Y-29270000D03*
X41190000Y-26730000D03*
X41190000Y-29270000D03*
X38650000Y-26730000D03*
X38650000Y-29270000D03*
X36110000Y-26730000D03*
X36110000Y-29270000D03*
X33570000Y-26730000D03*
X33570000Y-29270000D03*
X31030000Y-26730000D03*
X31030000Y-29270000D03*
X28490000Y-26730000D03*
X28490000Y-29270000D03*
X25950000Y-26730000D03*
X25950000Y-29270000D03*
X23410000Y-26730000D03*
X23410000Y-29270000D03*
X20870000Y-26730000D03*
D16*
X20870000Y-29270000D03*
D17*
X16000000Y-51000000D03*
X74000000Y-28000000D03*
X74000000Y-51000000D03*
X16000000Y-28000000D03*
M02*
