M48
; DRILL file {KiCad (5.1.9)-1} date 08/26/21 16:24:38
; FORMAT={-:-/ absolute / metric / decimal}
; #@! TF.CreationDate,2021-08-26T16:24:38+03:00
; #@! TF.GenerationSoftware,Kicad,Pcbnew,(5.1.9)-1
FMAT,2
METRIC
T1C0.400
T2C0.890
T3C1.000
T4C1.020
T5C1.630
T6C2.750
T7C3.250
%
G90
G05
T1
X16.242Y-39.776
X25.654Y-38.608
X25.908Y-41.148
X31.242Y-37.338
X33.274Y-37.338
X33.274Y-41.656
X34.036Y-40.856
X35.56Y-36.068
X36.322Y-41.773
X37.338Y-32.004
X38.354Y-32.258
X39.878Y-32.258
X41.432Y-32.288
X44.45Y-32.004
X48.514Y-36.576
X52.07Y-37.084
X56.864Y-44.99
X59.436Y-51.054
T2
X58.42Y-36.322
X58.42Y-38.862
X58.42Y-41.402
X58.42Y-43.942
X60.96Y-35.052
X60.96Y-37.592
X60.96Y-40.132
X60.96Y-42.672
T3
X20.87Y-26.73
X20.87Y-29.27
X23.41Y-26.73
X23.41Y-29.27
X25.95Y-26.73
X25.95Y-29.27
X28.49Y-26.73
X28.49Y-29.27
X31.03Y-26.73
X31.03Y-29.27
X33.57Y-26.73
X33.57Y-29.27
X36.11Y-26.73
X36.11Y-29.27
X38.65Y-26.73
X38.65Y-29.27
X41.19Y-26.73
X41.19Y-29.27
X43.73Y-26.73
X43.73Y-29.27
X46.27Y-26.73
X46.27Y-29.27
X48.81Y-26.73
X48.81Y-29.27
X51.35Y-26.73
X51.35Y-29.27
X53.89Y-26.73
X53.89Y-29.27
X56.43Y-26.73
X56.43Y-29.27
X58.97Y-26.73
X58.97Y-29.27
X61.51Y-26.73
X61.51Y-29.27
X64.05Y-26.73
X64.05Y-29.27
X66.59Y-26.73
X66.59Y-29.27
X69.13Y-26.73
X69.13Y-29.27
T4
X72.21Y-32.872
X72.21Y-35.412
X72.21Y-43.582
X72.21Y-46.122
T5
X64.26Y-31.752
X64.26Y-47.242
T6
X16.0Y-28.0
X16.0Y-51.0
X74.0Y-28.0
X74.0Y-51.0
T7
X67.31Y-33.782
X67.31Y-45.212
T0
M30
