G04 #@! TF.GenerationSoftware,KiCad,Pcbnew,(5.1.9)-1*
G04 #@! TF.CreationDate,2021-08-26T16:09:32+03:00*
G04 #@! TF.ProjectId,RPi_EthShield,5250695f-4574-4685-9368-69656c642e6b,rev?*
G04 #@! TF.SameCoordinates,Original*
G04 #@! TF.FileFunction,Legend,Bot*
G04 #@! TF.FilePolarity,Positive*
%FSLAX46Y46*%
G04 Gerber Fmt 4.6, Leading zero omitted, Abs format (unit mm)*
G04 Created by KiCad (PCBNEW (5.1.9)-1) date 2021-08-26 16:09:32*
%MOMM*%
%LPD*%
G01*
G04 APERTURE LIST*
%ADD10C,0.100000*%
%ADD11C,0.200000*%
%ADD12C,0.120000*%
%ADD13C,0.254000*%
%ADD14C,0.150000*%
G04 APERTURE END LIST*
D10*
X66310000Y-47517000D02*
X66310000Y-47517000D01*
X66310000Y-47517000D02*
X77960000Y-47517000D01*
X77960000Y-47517000D02*
X77960000Y-47517000D01*
X77960000Y-47517000D02*
X66310000Y-47517000D01*
X77960000Y-31477000D02*
X77960000Y-31477000D01*
X77960000Y-31477000D02*
X66560000Y-31477000D01*
X66560000Y-31477000D02*
X66560000Y-31477000D01*
X66560000Y-31477000D02*
X77960000Y-31477000D01*
X62060000Y-31477000D02*
X62060000Y-31477000D01*
X62060000Y-31477000D02*
X56660000Y-31477000D01*
X56660000Y-31477000D02*
X56660000Y-31477000D01*
X56660000Y-31477000D02*
X62060000Y-31477000D01*
X62060000Y-47517000D02*
X62060000Y-47517000D01*
X62060000Y-47517000D02*
X56660000Y-47517000D01*
X56660000Y-47517000D02*
X56660000Y-47517000D01*
X56660000Y-47517000D02*
X62060000Y-47517000D01*
D11*
X60810000Y-31002000D02*
X60810000Y-31002000D01*
X60910000Y-31002000D02*
X60910000Y-31002000D01*
X60810000Y-31002000D02*
X60810000Y-31002000D01*
X60910000Y-31002000D02*
G75*
G03*
X60810000Y-31002000I-50000J0D01*
G01*
X60810000Y-31002000D02*
G75*
G03*
X60910000Y-31002000I50000J0D01*
G01*
X60910000Y-31002000D02*
G75*
G03*
X60810000Y-31002000I-50000J0D01*
G01*
D12*
X15132000Y-38826000D02*
X15132000Y-44836000D01*
X21952000Y-41076000D02*
X21952000Y-44836000D01*
X15132000Y-44836000D02*
X16392000Y-44836000D01*
X21952000Y-44836000D02*
X20692000Y-44836000D01*
X32381564Y-39597000D02*
X31927436Y-39597000D01*
X32381564Y-38127000D02*
X31927436Y-38127000D01*
X48802000Y-31832437D02*
X49866437Y-30768000D01*
X48802000Y-35223563D02*
X49866437Y-36288000D01*
X48802000Y-35223563D02*
X48802000Y-34588000D01*
X48802000Y-31832437D02*
X48802000Y-32468000D01*
X49866437Y-30768000D02*
X54322000Y-30768000D01*
X49866437Y-36288000D02*
X54322000Y-36288000D01*
X54322000Y-36288000D02*
X54322000Y-34588000D01*
X54322000Y-30768000D02*
X54322000Y-32468000D01*
X23958437Y-39305500D02*
X22894000Y-38241063D01*
X27349563Y-39305500D02*
X28414000Y-38241063D01*
X27349563Y-39305500D02*
X26714000Y-39305500D01*
X23958437Y-39305500D02*
X24594000Y-39305500D01*
X22894000Y-38241063D02*
X22894000Y-33785500D01*
X28414000Y-38241063D02*
X28414000Y-33785500D01*
X28414000Y-33785500D02*
X26714000Y-33785500D01*
X22894000Y-33785500D02*
X24594000Y-33785500D01*
X15304500Y-32594437D02*
X16368937Y-31530000D01*
X15304500Y-35985563D02*
X16368937Y-37050000D01*
X15304500Y-35985563D02*
X15304500Y-35350000D01*
X15304500Y-32594437D02*
X15304500Y-33230000D01*
X16368937Y-31530000D02*
X20824500Y-31530000D01*
X16368937Y-37050000D02*
X20824500Y-37050000D01*
X20824500Y-37050000D02*
X20824500Y-35350000D01*
X20824500Y-31530000D02*
X20824500Y-33230000D01*
D13*
X65852523Y-48852666D02*
X66759666Y-48852666D01*
X66941095Y-48792190D01*
X67062047Y-48671238D01*
X67122523Y-48489809D01*
X67122523Y-48368857D01*
X67122523Y-50122666D02*
X67122523Y-49396952D01*
X67122523Y-49759809D02*
X65852523Y-49759809D01*
X66033952Y-49638857D01*
X66154904Y-49517904D01*
X66215380Y-49396952D01*
D14*
X13494380Y-42164095D02*
X14303904Y-42164095D01*
X14399142Y-42211714D01*
X14446761Y-42259333D01*
X14494380Y-42354571D01*
X14494380Y-42545047D01*
X14446761Y-42640285D01*
X14399142Y-42687904D01*
X14303904Y-42735523D01*
X13494380Y-42735523D01*
X13589619Y-43164095D02*
X13542000Y-43211714D01*
X13494380Y-43306952D01*
X13494380Y-43545047D01*
X13542000Y-43640285D01*
X13589619Y-43687904D01*
X13684857Y-43735523D01*
X13780095Y-43735523D01*
X13922952Y-43687904D01*
X14494380Y-43116476D01*
X14494380Y-43735523D01*
X32321166Y-37664380D02*
X32654500Y-37188190D01*
X32892595Y-37664380D02*
X32892595Y-36664380D01*
X32511642Y-36664380D01*
X32416404Y-36712000D01*
X32368785Y-36759619D01*
X32321166Y-36854857D01*
X32321166Y-36997714D01*
X32368785Y-37092952D01*
X32416404Y-37140571D01*
X32511642Y-37188190D01*
X32892595Y-37188190D01*
X31987833Y-36664380D02*
X31368785Y-36664380D01*
X31702119Y-37045333D01*
X31559261Y-37045333D01*
X31464023Y-37092952D01*
X31416404Y-37140571D01*
X31368785Y-37235809D01*
X31368785Y-37473904D01*
X31416404Y-37569142D01*
X31464023Y-37616761D01*
X31559261Y-37664380D01*
X31844976Y-37664380D01*
X31940214Y-37616761D01*
X31987833Y-37569142D01*
X51728666Y-37585142D02*
X51776285Y-37632761D01*
X51919142Y-37680380D01*
X52014380Y-37680380D01*
X52157238Y-37632761D01*
X52252476Y-37537523D01*
X52300095Y-37442285D01*
X52347714Y-37251809D01*
X52347714Y-37108952D01*
X52300095Y-36918476D01*
X52252476Y-36823238D01*
X52157238Y-36728000D01*
X52014380Y-36680380D01*
X51919142Y-36680380D01*
X51776285Y-36728000D01*
X51728666Y-36775619D01*
X51395333Y-36680380D02*
X50728666Y-36680380D01*
X51157238Y-37680380D01*
X29711142Y-36378833D02*
X29758761Y-36331214D01*
X29806380Y-36188357D01*
X29806380Y-36093119D01*
X29758761Y-35950261D01*
X29663523Y-35855023D01*
X29568285Y-35807404D01*
X29377809Y-35759785D01*
X29234952Y-35759785D01*
X29044476Y-35807404D01*
X28949238Y-35855023D01*
X28854000Y-35950261D01*
X28806380Y-36093119D01*
X28806380Y-36188357D01*
X28854000Y-36331214D01*
X28901619Y-36378833D01*
X28806380Y-37235976D02*
X28806380Y-37045500D01*
X28854000Y-36950261D01*
X28901619Y-36902642D01*
X29044476Y-36807404D01*
X29234952Y-36759785D01*
X29615904Y-36759785D01*
X29711142Y-36807404D01*
X29758761Y-36855023D01*
X29806380Y-36950261D01*
X29806380Y-37140738D01*
X29758761Y-37235976D01*
X29711142Y-37283595D01*
X29615904Y-37331214D01*
X29377809Y-37331214D01*
X29282571Y-37283595D01*
X29234952Y-37235976D01*
X29187333Y-37140738D01*
X29187333Y-36950261D01*
X29234952Y-36855023D01*
X29282571Y-36807404D01*
X29377809Y-36759785D01*
X18231166Y-38347142D02*
X18278785Y-38394761D01*
X18421642Y-38442380D01*
X18516880Y-38442380D01*
X18659738Y-38394761D01*
X18754976Y-38299523D01*
X18802595Y-38204285D01*
X18850214Y-38013809D01*
X18850214Y-37870952D01*
X18802595Y-37680476D01*
X18754976Y-37585238D01*
X18659738Y-37490000D01*
X18516880Y-37442380D01*
X18421642Y-37442380D01*
X18278785Y-37490000D01*
X18231166Y-37537619D01*
X17374023Y-37775714D02*
X17374023Y-38442380D01*
X17612119Y-37394761D02*
X17850214Y-38109047D01*
X17231166Y-38109047D01*
M02*
