G04 #@! TF.GenerationSoftware,KiCad,Pcbnew,(5.1.9)-1*
G04 #@! TF.CreationDate,2021-08-26T16:09:32+03:00*
G04 #@! TF.ProjectId,RPi_EthShield,5250695f-4574-4685-9368-69656c642e6b,rev?*
G04 #@! TF.SameCoordinates,Original*
G04 #@! TF.FileFunction,Copper,L1,Top*
G04 #@! TF.FilePolarity,Positive*
%FSLAX46Y46*%
G04 Gerber Fmt 4.6, Leading zero omitted, Abs format (unit mm)*
G04 Created by KiCad (PCBNEW (5.1.9)-1) date 2021-08-26 16:09:32*
%MOMM*%
%LPD*%
G01*
G04 APERTURE LIST*
G04 #@! TA.AperFunction,ComponentPad*
%ADD10C,1.446000*%
G04 #@! TD*
G04 #@! TA.AperFunction,ComponentPad*
%ADD11C,1.530000*%
G04 #@! TD*
G04 #@! TA.AperFunction,ComponentPad*
%ADD12C,2.445000*%
G04 #@! TD*
G04 #@! TA.AperFunction,SMDPad,CuDef*
%ADD13R,4.500000X2.000000*%
G04 #@! TD*
G04 #@! TA.AperFunction,SMDPad,CuDef*
%ADD14R,0.950000X1.750000*%
G04 #@! TD*
G04 #@! TA.AperFunction,SMDPad,CuDef*
%ADD15R,3.250000X1.750000*%
G04 #@! TD*
G04 #@! TA.AperFunction,ComponentPad*
%ADD16O,1.700000X1.700000*%
G04 #@! TD*
G04 #@! TA.AperFunction,ComponentPad*
%ADD17R,1.700000X1.700000*%
G04 #@! TD*
G04 #@! TA.AperFunction,ViaPad*
%ADD18C,0.600000*%
G04 #@! TD*
G04 #@! TA.AperFunction,Conductor*
%ADD19C,0.250000*%
G04 #@! TD*
G04 #@! TA.AperFunction,Conductor*
%ADD20C,0.254000*%
G04 #@! TD*
G04 #@! TA.AperFunction,Conductor*
%ADD21C,0.100000*%
G04 #@! TD*
G04 APERTURE END LIST*
D10*
X60960000Y-35052000D03*
X58420000Y-36322000D03*
X60960000Y-37592000D03*
X58420000Y-38862000D03*
X60960000Y-40132000D03*
X58420000Y-41402000D03*
X60960000Y-42672000D03*
X58420000Y-43942000D03*
D11*
X72210000Y-32872000D03*
X72210000Y-35412000D03*
X72210000Y-43582000D03*
X72210000Y-46122000D03*
D12*
X64260000Y-31752000D03*
X64260000Y-47242000D03*
D13*
X46434000Y-47752000D03*
X37934000Y-47752000D03*
G04 #@! TA.AperFunction,SMDPad,CuDef*
G36*
G01*
X62592000Y-51619999D02*
X62592000Y-52520001D01*
G75*
G02*
X62342001Y-52770000I-249999J0D01*
G01*
X61816999Y-52770000D01*
G75*
G02*
X61567000Y-52520001I0J249999D01*
G01*
X61567000Y-51619999D01*
G75*
G02*
X61816999Y-51370000I249999J0D01*
G01*
X62342001Y-51370000D01*
G75*
G02*
X62592000Y-51619999I0J-249999D01*
G01*
G37*
G04 #@! TD.AperFunction*
G04 #@! TA.AperFunction,SMDPad,CuDef*
G36*
G01*
X64417000Y-51619999D02*
X64417000Y-52520001D01*
G75*
G02*
X64167001Y-52770000I-249999J0D01*
G01*
X63641999Y-52770000D01*
G75*
G02*
X63392000Y-52520001I0J249999D01*
G01*
X63392000Y-51619999D01*
G75*
G02*
X63641999Y-51370000I249999J0D01*
G01*
X64167001Y-51370000D01*
G75*
G02*
X64417000Y-51619999I0J-249999D01*
G01*
G37*
G04 #@! TD.AperFunction*
G04 #@! TA.AperFunction,SMDPad,CuDef*
G36*
G01*
X67568500Y-40697999D02*
X67568500Y-41598001D01*
G75*
G02*
X67318501Y-41848000I-249999J0D01*
G01*
X66793499Y-41848000D01*
G75*
G02*
X66543500Y-41598001I0J249999D01*
G01*
X66543500Y-40697999D01*
G75*
G02*
X66793499Y-40448000I249999J0D01*
G01*
X67318501Y-40448000D01*
G75*
G02*
X67568500Y-40697999I0J-249999D01*
G01*
G37*
G04 #@! TD.AperFunction*
G04 #@! TA.AperFunction,SMDPad,CuDef*
G36*
G01*
X69393500Y-40697999D02*
X69393500Y-41598001D01*
G75*
G02*
X69143501Y-41848000I-249999J0D01*
G01*
X68618499Y-41848000D01*
G75*
G02*
X68368500Y-41598001I0J249999D01*
G01*
X68368500Y-40697999D01*
G75*
G02*
X68618499Y-40448000I249999J0D01*
G01*
X69143501Y-40448000D01*
G75*
G02*
X69393500Y-40697999I0J-249999D01*
G01*
G37*
G04 #@! TD.AperFunction*
G04 #@! TA.AperFunction,SMDPad,CuDef*
G36*
G01*
X67521500Y-38157999D02*
X67521500Y-39058001D01*
G75*
G02*
X67271501Y-39308000I-249999J0D01*
G01*
X66746499Y-39308000D01*
G75*
G02*
X66496500Y-39058001I0J249999D01*
G01*
X66496500Y-38157999D01*
G75*
G02*
X66746499Y-37908000I249999J0D01*
G01*
X67271501Y-37908000D01*
G75*
G02*
X67521500Y-38157999I0J-249999D01*
G01*
G37*
G04 #@! TD.AperFunction*
G04 #@! TA.AperFunction,SMDPad,CuDef*
G36*
G01*
X69346500Y-38157999D02*
X69346500Y-39058001D01*
G75*
G02*
X69096501Y-39308000I-249999J0D01*
G01*
X68571499Y-39308000D01*
G75*
G02*
X68321500Y-39058001I0J249999D01*
G01*
X68321500Y-38157999D01*
G75*
G02*
X68571499Y-37908000I249999J0D01*
G01*
X69096501Y-37908000D01*
G75*
G02*
X69346500Y-38157999I0J-249999D01*
G01*
G37*
G04 #@! TD.AperFunction*
G04 #@! TA.AperFunction,SMDPad,CuDef*
G36*
G01*
X76197750Y-43809500D02*
X76710250Y-43809500D01*
G75*
G02*
X76929000Y-44028250I0J-218750D01*
G01*
X76929000Y-44465750D01*
G75*
G02*
X76710250Y-44684500I-218750J0D01*
G01*
X76197750Y-44684500D01*
G75*
G02*
X75979000Y-44465750I0J218750D01*
G01*
X75979000Y-44028250D01*
G75*
G02*
X76197750Y-43809500I218750J0D01*
G01*
G37*
G04 #@! TD.AperFunction*
G04 #@! TA.AperFunction,SMDPad,CuDef*
G36*
G01*
X76197750Y-42234500D02*
X76710250Y-42234500D01*
G75*
G02*
X76929000Y-42453250I0J-218750D01*
G01*
X76929000Y-42890750D01*
G75*
G02*
X76710250Y-43109500I-218750J0D01*
G01*
X76197750Y-43109500D01*
G75*
G02*
X75979000Y-42890750I0J218750D01*
G01*
X75979000Y-42453250D01*
G75*
G02*
X76197750Y-42234500I218750J0D01*
G01*
G37*
G04 #@! TD.AperFunction*
G04 #@! TA.AperFunction,SMDPad,CuDef*
G36*
G01*
X50005000Y-39108000D02*
X49055000Y-39108000D01*
G75*
G02*
X48805000Y-38858000I0J250000D01*
G01*
X48805000Y-38358000D01*
G75*
G02*
X49055000Y-38108000I250000J0D01*
G01*
X50005000Y-38108000D01*
G75*
G02*
X50255000Y-38358000I0J-250000D01*
G01*
X50255000Y-38858000D01*
G75*
G02*
X50005000Y-39108000I-250000J0D01*
G01*
G37*
G04 #@! TD.AperFunction*
G04 #@! TA.AperFunction,SMDPad,CuDef*
G36*
G01*
X50005000Y-41008000D02*
X49055000Y-41008000D01*
G75*
G02*
X48805000Y-40758000I0J250000D01*
G01*
X48805000Y-40258000D01*
G75*
G02*
X49055000Y-40008000I250000J0D01*
G01*
X50005000Y-40008000D01*
G75*
G02*
X50255000Y-40258000I0J-250000D01*
G01*
X50255000Y-40758000D01*
G75*
G02*
X50005000Y-41008000I-250000J0D01*
G01*
G37*
G04 #@! TD.AperFunction*
G04 #@! TA.AperFunction,SMDPad,CuDef*
G36*
G01*
X45154000Y-52291000D02*
X45154000Y-51341000D01*
G75*
G02*
X45404000Y-51091000I250000J0D01*
G01*
X45904000Y-51091000D01*
G75*
G02*
X46154000Y-51341000I0J-250000D01*
G01*
X46154000Y-52291000D01*
G75*
G02*
X45904000Y-52541000I-250000J0D01*
G01*
X45404000Y-52541000D01*
G75*
G02*
X45154000Y-52291000I0J250000D01*
G01*
G37*
G04 #@! TD.AperFunction*
G04 #@! TA.AperFunction,SMDPad,CuDef*
G36*
G01*
X43254000Y-52291000D02*
X43254000Y-51341000D01*
G75*
G02*
X43504000Y-51091000I250000J0D01*
G01*
X44004000Y-51091000D01*
G75*
G02*
X44254000Y-51341000I0J-250000D01*
G01*
X44254000Y-52291000D01*
G75*
G02*
X44004000Y-52541000I-250000J0D01*
G01*
X43504000Y-52541000D01*
G75*
G02*
X43254000Y-52291000I0J250000D01*
G01*
G37*
G04 #@! TD.AperFunction*
G04 #@! TA.AperFunction,SMDPad,CuDef*
G36*
G01*
X40516000Y-52291000D02*
X40516000Y-51341000D01*
G75*
G02*
X40766000Y-51091000I250000J0D01*
G01*
X41266000Y-51091000D01*
G75*
G02*
X41516000Y-51341000I0J-250000D01*
G01*
X41516000Y-52291000D01*
G75*
G02*
X41266000Y-52541000I-250000J0D01*
G01*
X40766000Y-52541000D01*
G75*
G02*
X40516000Y-52291000I0J250000D01*
G01*
G37*
G04 #@! TD.AperFunction*
G04 #@! TA.AperFunction,SMDPad,CuDef*
G36*
G01*
X38616000Y-52291000D02*
X38616000Y-51341000D01*
G75*
G02*
X38866000Y-51091000I250000J0D01*
G01*
X39366000Y-51091000D01*
G75*
G02*
X39616000Y-51341000I0J-250000D01*
G01*
X39616000Y-52291000D01*
G75*
G02*
X39366000Y-52541000I-250000J0D01*
G01*
X38866000Y-52541000D01*
G75*
G02*
X38616000Y-52291000I0J250000D01*
G01*
G37*
G04 #@! TD.AperFunction*
G04 #@! TA.AperFunction,SMDPad,CuDef*
G36*
G01*
X54323000Y-42730000D02*
X53373000Y-42730000D01*
G75*
G02*
X53123000Y-42480000I0J250000D01*
G01*
X53123000Y-41980000D01*
G75*
G02*
X53373000Y-41730000I250000J0D01*
G01*
X54323000Y-41730000D01*
G75*
G02*
X54573000Y-41980000I0J-250000D01*
G01*
X54573000Y-42480000D01*
G75*
G02*
X54323000Y-42730000I-250000J0D01*
G01*
G37*
G04 #@! TD.AperFunction*
G04 #@! TA.AperFunction,SMDPad,CuDef*
G36*
G01*
X54323000Y-44630000D02*
X53373000Y-44630000D01*
G75*
G02*
X53123000Y-44380000I0J250000D01*
G01*
X53123000Y-43880000D01*
G75*
G02*
X53373000Y-43630000I250000J0D01*
G01*
X54323000Y-43630000D01*
G75*
G02*
X54573000Y-43880000I0J-250000D01*
G01*
X54573000Y-44380000D01*
G75*
G02*
X54323000Y-44630000I-250000J0D01*
G01*
G37*
G04 #@! TD.AperFunction*
D14*
X26684000Y-43586000D03*
X24384000Y-43586000D03*
X22084000Y-43586000D03*
D15*
X24384000Y-49886000D03*
G04 #@! TA.AperFunction,SMDPad,CuDef*
G36*
G01*
X46967000Y-42233000D02*
X47267000Y-42233000D01*
G75*
G02*
X47417000Y-42383000I0J-150000D01*
G01*
X47417000Y-44133000D01*
G75*
G02*
X47267000Y-44283000I-150000J0D01*
G01*
X46967000Y-44283000D01*
G75*
G02*
X46817000Y-44133000I0J150000D01*
G01*
X46817000Y-42383000D01*
G75*
G02*
X46967000Y-42233000I150000J0D01*
G01*
G37*
G04 #@! TD.AperFunction*
G04 #@! TA.AperFunction,SMDPad,CuDef*
G36*
G01*
X45697000Y-42233000D02*
X45997000Y-42233000D01*
G75*
G02*
X46147000Y-42383000I0J-150000D01*
G01*
X46147000Y-44133000D01*
G75*
G02*
X45997000Y-44283000I-150000J0D01*
G01*
X45697000Y-44283000D01*
G75*
G02*
X45547000Y-44133000I0J150000D01*
G01*
X45547000Y-42383000D01*
G75*
G02*
X45697000Y-42233000I150000J0D01*
G01*
G37*
G04 #@! TD.AperFunction*
G04 #@! TA.AperFunction,SMDPad,CuDef*
G36*
G01*
X44427000Y-42233000D02*
X44727000Y-42233000D01*
G75*
G02*
X44877000Y-42383000I0J-150000D01*
G01*
X44877000Y-44133000D01*
G75*
G02*
X44727000Y-44283000I-150000J0D01*
G01*
X44427000Y-44283000D01*
G75*
G02*
X44277000Y-44133000I0J150000D01*
G01*
X44277000Y-42383000D01*
G75*
G02*
X44427000Y-42233000I150000J0D01*
G01*
G37*
G04 #@! TD.AperFunction*
G04 #@! TA.AperFunction,SMDPad,CuDef*
G36*
G01*
X43157000Y-42233000D02*
X43457000Y-42233000D01*
G75*
G02*
X43607000Y-42383000I0J-150000D01*
G01*
X43607000Y-44133000D01*
G75*
G02*
X43457000Y-44283000I-150000J0D01*
G01*
X43157000Y-44283000D01*
G75*
G02*
X43007000Y-44133000I0J150000D01*
G01*
X43007000Y-42383000D01*
G75*
G02*
X43157000Y-42233000I150000J0D01*
G01*
G37*
G04 #@! TD.AperFunction*
G04 #@! TA.AperFunction,SMDPad,CuDef*
G36*
G01*
X41887000Y-42233000D02*
X42187000Y-42233000D01*
G75*
G02*
X42337000Y-42383000I0J-150000D01*
G01*
X42337000Y-44133000D01*
G75*
G02*
X42187000Y-44283000I-150000J0D01*
G01*
X41887000Y-44283000D01*
G75*
G02*
X41737000Y-44133000I0J150000D01*
G01*
X41737000Y-42383000D01*
G75*
G02*
X41887000Y-42233000I150000J0D01*
G01*
G37*
G04 #@! TD.AperFunction*
G04 #@! TA.AperFunction,SMDPad,CuDef*
G36*
G01*
X40617000Y-42233000D02*
X40917000Y-42233000D01*
G75*
G02*
X41067000Y-42383000I0J-150000D01*
G01*
X41067000Y-44133000D01*
G75*
G02*
X40917000Y-44283000I-150000J0D01*
G01*
X40617000Y-44283000D01*
G75*
G02*
X40467000Y-44133000I0J150000D01*
G01*
X40467000Y-42383000D01*
G75*
G02*
X40617000Y-42233000I150000J0D01*
G01*
G37*
G04 #@! TD.AperFunction*
G04 #@! TA.AperFunction,SMDPad,CuDef*
G36*
G01*
X39347000Y-42233000D02*
X39647000Y-42233000D01*
G75*
G02*
X39797000Y-42383000I0J-150000D01*
G01*
X39797000Y-44133000D01*
G75*
G02*
X39647000Y-44283000I-150000J0D01*
G01*
X39347000Y-44283000D01*
G75*
G02*
X39197000Y-44133000I0J150000D01*
G01*
X39197000Y-42383000D01*
G75*
G02*
X39347000Y-42233000I150000J0D01*
G01*
G37*
G04 #@! TD.AperFunction*
G04 #@! TA.AperFunction,SMDPad,CuDef*
G36*
G01*
X38077000Y-42233000D02*
X38377000Y-42233000D01*
G75*
G02*
X38527000Y-42383000I0J-150000D01*
G01*
X38527000Y-44133000D01*
G75*
G02*
X38377000Y-44283000I-150000J0D01*
G01*
X38077000Y-44283000D01*
G75*
G02*
X37927000Y-44133000I0J150000D01*
G01*
X37927000Y-42383000D01*
G75*
G02*
X38077000Y-42233000I150000J0D01*
G01*
G37*
G04 #@! TD.AperFunction*
G04 #@! TA.AperFunction,SMDPad,CuDef*
G36*
G01*
X36807000Y-42233000D02*
X37107000Y-42233000D01*
G75*
G02*
X37257000Y-42383000I0J-150000D01*
G01*
X37257000Y-44133000D01*
G75*
G02*
X37107000Y-44283000I-150000J0D01*
G01*
X36807000Y-44283000D01*
G75*
G02*
X36657000Y-44133000I0J150000D01*
G01*
X36657000Y-42383000D01*
G75*
G02*
X36807000Y-42233000I150000J0D01*
G01*
G37*
G04 #@! TD.AperFunction*
G04 #@! TA.AperFunction,SMDPad,CuDef*
G36*
G01*
X35537000Y-42233000D02*
X35837000Y-42233000D01*
G75*
G02*
X35987000Y-42383000I0J-150000D01*
G01*
X35987000Y-44133000D01*
G75*
G02*
X35837000Y-44283000I-150000J0D01*
G01*
X35537000Y-44283000D01*
G75*
G02*
X35387000Y-44133000I0J150000D01*
G01*
X35387000Y-42383000D01*
G75*
G02*
X35537000Y-42233000I150000J0D01*
G01*
G37*
G04 #@! TD.AperFunction*
G04 #@! TA.AperFunction,SMDPad,CuDef*
G36*
G01*
X34267000Y-42233000D02*
X34567000Y-42233000D01*
G75*
G02*
X34717000Y-42383000I0J-150000D01*
G01*
X34717000Y-44133000D01*
G75*
G02*
X34567000Y-44283000I-150000J0D01*
G01*
X34267000Y-44283000D01*
G75*
G02*
X34117000Y-44133000I0J150000D01*
G01*
X34117000Y-42383000D01*
G75*
G02*
X34267000Y-42233000I150000J0D01*
G01*
G37*
G04 #@! TD.AperFunction*
G04 #@! TA.AperFunction,SMDPad,CuDef*
G36*
G01*
X32997000Y-42233000D02*
X33297000Y-42233000D01*
G75*
G02*
X33447000Y-42383000I0J-150000D01*
G01*
X33447000Y-44133000D01*
G75*
G02*
X33297000Y-44283000I-150000J0D01*
G01*
X32997000Y-44283000D01*
G75*
G02*
X32847000Y-44133000I0J150000D01*
G01*
X32847000Y-42383000D01*
G75*
G02*
X32997000Y-42233000I150000J0D01*
G01*
G37*
G04 #@! TD.AperFunction*
G04 #@! TA.AperFunction,SMDPad,CuDef*
G36*
G01*
X31727000Y-42233000D02*
X32027000Y-42233000D01*
G75*
G02*
X32177000Y-42383000I0J-150000D01*
G01*
X32177000Y-44133000D01*
G75*
G02*
X32027000Y-44283000I-150000J0D01*
G01*
X31727000Y-44283000D01*
G75*
G02*
X31577000Y-44133000I0J150000D01*
G01*
X31577000Y-42383000D01*
G75*
G02*
X31727000Y-42233000I150000J0D01*
G01*
G37*
G04 #@! TD.AperFunction*
G04 #@! TA.AperFunction,SMDPad,CuDef*
G36*
G01*
X30457000Y-42233000D02*
X30757000Y-42233000D01*
G75*
G02*
X30907000Y-42383000I0J-150000D01*
G01*
X30907000Y-44133000D01*
G75*
G02*
X30757000Y-44283000I-150000J0D01*
G01*
X30457000Y-44283000D01*
G75*
G02*
X30307000Y-44133000I0J150000D01*
G01*
X30307000Y-42383000D01*
G75*
G02*
X30457000Y-42233000I150000J0D01*
G01*
G37*
G04 #@! TD.AperFunction*
G04 #@! TA.AperFunction,SMDPad,CuDef*
G36*
G01*
X30457000Y-32933000D02*
X30757000Y-32933000D01*
G75*
G02*
X30907000Y-33083000I0J-150000D01*
G01*
X30907000Y-34833000D01*
G75*
G02*
X30757000Y-34983000I-150000J0D01*
G01*
X30457000Y-34983000D01*
G75*
G02*
X30307000Y-34833000I0J150000D01*
G01*
X30307000Y-33083000D01*
G75*
G02*
X30457000Y-32933000I150000J0D01*
G01*
G37*
G04 #@! TD.AperFunction*
G04 #@! TA.AperFunction,SMDPad,CuDef*
G36*
G01*
X31727000Y-32933000D02*
X32027000Y-32933000D01*
G75*
G02*
X32177000Y-33083000I0J-150000D01*
G01*
X32177000Y-34833000D01*
G75*
G02*
X32027000Y-34983000I-150000J0D01*
G01*
X31727000Y-34983000D01*
G75*
G02*
X31577000Y-34833000I0J150000D01*
G01*
X31577000Y-33083000D01*
G75*
G02*
X31727000Y-32933000I150000J0D01*
G01*
G37*
G04 #@! TD.AperFunction*
G04 #@! TA.AperFunction,SMDPad,CuDef*
G36*
G01*
X32997000Y-32933000D02*
X33297000Y-32933000D01*
G75*
G02*
X33447000Y-33083000I0J-150000D01*
G01*
X33447000Y-34833000D01*
G75*
G02*
X33297000Y-34983000I-150000J0D01*
G01*
X32997000Y-34983000D01*
G75*
G02*
X32847000Y-34833000I0J150000D01*
G01*
X32847000Y-33083000D01*
G75*
G02*
X32997000Y-32933000I150000J0D01*
G01*
G37*
G04 #@! TD.AperFunction*
G04 #@! TA.AperFunction,SMDPad,CuDef*
G36*
G01*
X34267000Y-32933000D02*
X34567000Y-32933000D01*
G75*
G02*
X34717000Y-33083000I0J-150000D01*
G01*
X34717000Y-34833000D01*
G75*
G02*
X34567000Y-34983000I-150000J0D01*
G01*
X34267000Y-34983000D01*
G75*
G02*
X34117000Y-34833000I0J150000D01*
G01*
X34117000Y-33083000D01*
G75*
G02*
X34267000Y-32933000I150000J0D01*
G01*
G37*
G04 #@! TD.AperFunction*
G04 #@! TA.AperFunction,SMDPad,CuDef*
G36*
G01*
X35537000Y-32933000D02*
X35837000Y-32933000D01*
G75*
G02*
X35987000Y-33083000I0J-150000D01*
G01*
X35987000Y-34833000D01*
G75*
G02*
X35837000Y-34983000I-150000J0D01*
G01*
X35537000Y-34983000D01*
G75*
G02*
X35387000Y-34833000I0J150000D01*
G01*
X35387000Y-33083000D01*
G75*
G02*
X35537000Y-32933000I150000J0D01*
G01*
G37*
G04 #@! TD.AperFunction*
G04 #@! TA.AperFunction,SMDPad,CuDef*
G36*
G01*
X36807000Y-32933000D02*
X37107000Y-32933000D01*
G75*
G02*
X37257000Y-33083000I0J-150000D01*
G01*
X37257000Y-34833000D01*
G75*
G02*
X37107000Y-34983000I-150000J0D01*
G01*
X36807000Y-34983000D01*
G75*
G02*
X36657000Y-34833000I0J150000D01*
G01*
X36657000Y-33083000D01*
G75*
G02*
X36807000Y-32933000I150000J0D01*
G01*
G37*
G04 #@! TD.AperFunction*
G04 #@! TA.AperFunction,SMDPad,CuDef*
G36*
G01*
X38077000Y-32933000D02*
X38377000Y-32933000D01*
G75*
G02*
X38527000Y-33083000I0J-150000D01*
G01*
X38527000Y-34833000D01*
G75*
G02*
X38377000Y-34983000I-150000J0D01*
G01*
X38077000Y-34983000D01*
G75*
G02*
X37927000Y-34833000I0J150000D01*
G01*
X37927000Y-33083000D01*
G75*
G02*
X38077000Y-32933000I150000J0D01*
G01*
G37*
G04 #@! TD.AperFunction*
G04 #@! TA.AperFunction,SMDPad,CuDef*
G36*
G01*
X39347000Y-32933000D02*
X39647000Y-32933000D01*
G75*
G02*
X39797000Y-33083000I0J-150000D01*
G01*
X39797000Y-34833000D01*
G75*
G02*
X39647000Y-34983000I-150000J0D01*
G01*
X39347000Y-34983000D01*
G75*
G02*
X39197000Y-34833000I0J150000D01*
G01*
X39197000Y-33083000D01*
G75*
G02*
X39347000Y-32933000I150000J0D01*
G01*
G37*
G04 #@! TD.AperFunction*
G04 #@! TA.AperFunction,SMDPad,CuDef*
G36*
G01*
X40617000Y-32933000D02*
X40917000Y-32933000D01*
G75*
G02*
X41067000Y-33083000I0J-150000D01*
G01*
X41067000Y-34833000D01*
G75*
G02*
X40917000Y-34983000I-150000J0D01*
G01*
X40617000Y-34983000D01*
G75*
G02*
X40467000Y-34833000I0J150000D01*
G01*
X40467000Y-33083000D01*
G75*
G02*
X40617000Y-32933000I150000J0D01*
G01*
G37*
G04 #@! TD.AperFunction*
G04 #@! TA.AperFunction,SMDPad,CuDef*
G36*
G01*
X41887000Y-32933000D02*
X42187000Y-32933000D01*
G75*
G02*
X42337000Y-33083000I0J-150000D01*
G01*
X42337000Y-34833000D01*
G75*
G02*
X42187000Y-34983000I-150000J0D01*
G01*
X41887000Y-34983000D01*
G75*
G02*
X41737000Y-34833000I0J150000D01*
G01*
X41737000Y-33083000D01*
G75*
G02*
X41887000Y-32933000I150000J0D01*
G01*
G37*
G04 #@! TD.AperFunction*
G04 #@! TA.AperFunction,SMDPad,CuDef*
G36*
G01*
X43157000Y-32933000D02*
X43457000Y-32933000D01*
G75*
G02*
X43607000Y-33083000I0J-150000D01*
G01*
X43607000Y-34833000D01*
G75*
G02*
X43457000Y-34983000I-150000J0D01*
G01*
X43157000Y-34983000D01*
G75*
G02*
X43007000Y-34833000I0J150000D01*
G01*
X43007000Y-33083000D01*
G75*
G02*
X43157000Y-32933000I150000J0D01*
G01*
G37*
G04 #@! TD.AperFunction*
G04 #@! TA.AperFunction,SMDPad,CuDef*
G36*
G01*
X44427000Y-32933000D02*
X44727000Y-32933000D01*
G75*
G02*
X44877000Y-33083000I0J-150000D01*
G01*
X44877000Y-34833000D01*
G75*
G02*
X44727000Y-34983000I-150000J0D01*
G01*
X44427000Y-34983000D01*
G75*
G02*
X44277000Y-34833000I0J150000D01*
G01*
X44277000Y-33083000D01*
G75*
G02*
X44427000Y-32933000I150000J0D01*
G01*
G37*
G04 #@! TD.AperFunction*
G04 #@! TA.AperFunction,SMDPad,CuDef*
G36*
G01*
X45697000Y-32933000D02*
X45997000Y-32933000D01*
G75*
G02*
X46147000Y-33083000I0J-150000D01*
G01*
X46147000Y-34833000D01*
G75*
G02*
X45997000Y-34983000I-150000J0D01*
G01*
X45697000Y-34983000D01*
G75*
G02*
X45547000Y-34833000I0J150000D01*
G01*
X45547000Y-33083000D01*
G75*
G02*
X45697000Y-32933000I150000J0D01*
G01*
G37*
G04 #@! TD.AperFunction*
G04 #@! TA.AperFunction,SMDPad,CuDef*
G36*
G01*
X46967000Y-32933000D02*
X47267000Y-32933000D01*
G75*
G02*
X47417000Y-33083000I0J-150000D01*
G01*
X47417000Y-34833000D01*
G75*
G02*
X47267000Y-34983000I-150000J0D01*
G01*
X46967000Y-34983000D01*
G75*
G02*
X46817000Y-34833000I0J150000D01*
G01*
X46817000Y-33083000D01*
G75*
G02*
X46967000Y-32933000I150000J0D01*
G01*
G37*
G04 #@! TD.AperFunction*
D16*
X69130000Y-26730000D03*
X69130000Y-29270000D03*
X66590000Y-26730000D03*
X66590000Y-29270000D03*
X64050000Y-26730000D03*
X64050000Y-29270000D03*
X61510000Y-26730000D03*
X61510000Y-29270000D03*
X58970000Y-26730000D03*
X58970000Y-29270000D03*
X56430000Y-26730000D03*
X56430000Y-29270000D03*
X53890000Y-26730000D03*
X53890000Y-29270000D03*
X51350000Y-26730000D03*
X51350000Y-29270000D03*
X48810000Y-26730000D03*
X48810000Y-29270000D03*
X46270000Y-26730000D03*
X46270000Y-29270000D03*
X43730000Y-26730000D03*
X43730000Y-29270000D03*
X41190000Y-26730000D03*
X41190000Y-29270000D03*
X38650000Y-26730000D03*
X38650000Y-29270000D03*
X36110000Y-26730000D03*
X36110000Y-29270000D03*
X33570000Y-26730000D03*
X33570000Y-29270000D03*
X31030000Y-26730000D03*
X31030000Y-29270000D03*
X28490000Y-26730000D03*
X28490000Y-29270000D03*
X25950000Y-26730000D03*
X25950000Y-29270000D03*
X23410000Y-26730000D03*
X23410000Y-29270000D03*
X20870000Y-26730000D03*
D17*
X20870000Y-29270000D03*
D18*
X35560000Y-36068000D03*
X25908010Y-41148000D03*
X33274018Y-41656000D03*
X34036000Y-40855987D03*
X25654000Y-38608000D03*
X59436000Y-51054000D03*
X56863999Y-44990001D03*
X36322000Y-41773000D03*
X33274006Y-37338000D03*
X16242000Y-39776000D03*
X52070000Y-37084000D03*
X37338000Y-32004000D03*
X38354000Y-32258000D03*
X44450000Y-32004000D03*
X41431648Y-32287648D03*
X39878000Y-32258000D03*
X31242004Y-37338000D03*
X48514000Y-36576000D03*
D19*
X72210000Y-46122000D02*
X71702000Y-46122000D01*
X71448000Y-46122000D02*
X72210000Y-46122000D01*
X68881000Y-43555000D02*
X71448000Y-46122000D01*
X68881000Y-41148000D02*
X68881000Y-43555000D01*
X72210000Y-32872000D02*
X71702000Y-32872000D01*
X71956000Y-32872000D02*
X72210000Y-32872000D01*
X68834000Y-36248000D02*
X72210000Y-32872000D01*
X68834000Y-38608000D02*
X68834000Y-36248000D01*
X35687000Y-35941000D02*
X35687000Y-33958000D01*
X35560000Y-36068000D02*
X35687000Y-35941000D01*
X24384000Y-43586000D02*
X24384000Y-41765220D01*
X24384000Y-41765220D02*
X25001220Y-41148000D01*
X25001220Y-41148000D02*
X25908010Y-41148000D01*
X33147000Y-43258000D02*
X33147000Y-41783018D01*
X33147000Y-41783018D02*
X33274018Y-41656000D01*
X32595736Y-40855987D02*
X34036000Y-40855987D01*
X31877000Y-43258000D02*
X31877000Y-41574723D01*
X31877000Y-41574723D02*
X32595736Y-40855987D01*
X31877000Y-33958000D02*
X31877000Y-32933000D01*
X31877000Y-32933000D02*
X34018011Y-30791989D01*
X34018011Y-30791989D02*
X54420465Y-30791989D01*
X60960000Y-37331524D02*
X60960000Y-37592000D01*
X54420465Y-30791989D02*
X60960000Y-37331524D01*
X22084000Y-42178000D02*
X25654000Y-38608000D01*
X22084000Y-43586000D02*
X22084000Y-42178000D01*
X43307000Y-42831232D02*
X43307000Y-43258000D01*
X46791990Y-41907990D02*
X44230242Y-41907990D01*
X44230242Y-41907990D02*
X43307000Y-42831232D01*
X47117000Y-42233000D02*
X46791990Y-41907990D01*
X47117000Y-43258000D02*
X47117000Y-42233000D01*
X36957000Y-44283000D02*
X36957000Y-43258000D01*
X37282010Y-44608010D02*
X36957000Y-44283000D01*
X40122010Y-44329758D02*
X39843758Y-44608010D01*
X39843758Y-44608010D02*
X37282010Y-44608010D01*
X40420242Y-41907990D02*
X40122010Y-42206222D01*
X42981990Y-41907990D02*
X40420242Y-41907990D01*
X40122010Y-42206222D02*
X40122010Y-44329758D01*
X43307000Y-42233000D02*
X42981990Y-41907990D01*
X43307000Y-43258000D02*
X43307000Y-42233000D01*
X47117000Y-43258000D02*
X47117000Y-42037000D01*
X47117000Y-42037000D02*
X47498000Y-41656000D01*
X47498000Y-41656000D02*
X49530000Y-41656000D01*
X49530000Y-41656000D02*
X49530000Y-40508000D01*
X49530000Y-41656000D02*
X50929010Y-43055010D01*
X52004000Y-44130000D02*
X50929010Y-43055010D01*
X53848000Y-44130000D02*
X52004000Y-44130000D01*
X60452000Y-52070000D02*
X62079500Y-52070000D01*
X59436000Y-51054000D02*
X60452000Y-52070000D01*
X54708001Y-44990001D02*
X56863999Y-44990001D01*
X53848000Y-44130000D02*
X54708001Y-44990001D01*
X30607000Y-41021000D02*
X27394000Y-37808000D01*
X30607000Y-43258000D02*
X30607000Y-41021000D01*
X27394000Y-37808000D02*
X26454000Y-37808000D01*
X26454000Y-37808000D02*
X25654000Y-38608000D01*
X36322000Y-41773000D02*
X36693000Y-41773000D01*
X36957000Y-42037000D02*
X36957000Y-43258000D01*
X36693000Y-41773000D02*
X36957000Y-42037000D01*
X35687000Y-42408000D02*
X36322000Y-41773000D01*
X35687000Y-43258000D02*
X35687000Y-42408000D01*
X34417000Y-33958000D02*
X34417000Y-36195006D01*
X34417000Y-36195006D02*
X33274006Y-37338000D01*
X43754000Y-51816000D02*
X41016000Y-51816000D01*
X21252001Y-44786001D02*
X16242000Y-39776000D01*
X25483999Y-44786001D02*
X21252001Y-44786001D01*
X26684000Y-43586000D02*
X25483999Y-44786001D01*
X24384000Y-45886000D02*
X25483999Y-44786001D01*
X24384000Y-49886000D02*
X24384000Y-45886000D01*
X39497000Y-41783000D02*
X39370000Y-41656000D01*
X39497000Y-43258000D02*
X39497000Y-41783000D01*
X34417000Y-43258000D02*
X34417000Y-41783000D01*
X34798000Y-38861994D02*
X33274006Y-37338000D01*
X34798000Y-41402000D02*
X34798000Y-38861994D01*
X34417000Y-41783000D02*
X34798000Y-41402000D01*
X27706010Y-44608010D02*
X26684000Y-43586000D01*
X34091990Y-44608010D02*
X27706010Y-44608010D01*
X34417000Y-44283000D02*
X34091990Y-44608010D01*
X34417000Y-43258000D02*
X34417000Y-44283000D01*
X45847000Y-35179000D02*
X45847000Y-33958000D01*
X39370000Y-41656000D02*
X45847000Y-35179000D01*
X49530000Y-38608000D02*
X49530000Y-37592000D01*
X48260000Y-37592000D02*
X45847000Y-35179000D01*
X49530000Y-37592000D02*
X48260000Y-37592000D01*
X34417000Y-48655190D02*
X34417000Y-43258000D01*
X38627820Y-52866010D02*
X34417000Y-48655190D01*
X39965990Y-52866010D02*
X38627820Y-52866010D01*
X41016000Y-51816000D02*
X39965990Y-52866010D01*
X53152000Y-42230000D02*
X53848000Y-42230000D01*
X49530000Y-38608000D02*
X53152000Y-42230000D01*
X51562000Y-37592000D02*
X49530000Y-37592000D01*
X52070000Y-37084000D02*
X51562000Y-37592000D01*
X55814000Y-44196000D02*
X53848000Y-42230000D01*
X58166000Y-44196000D02*
X58420000Y-43942000D01*
X55814000Y-44196000D02*
X58166000Y-44196000D01*
X38862000Y-41148000D02*
X39370000Y-41656000D01*
X35052000Y-41148000D02*
X38862000Y-41148000D01*
X34417000Y-41783000D02*
X35052000Y-41148000D01*
X38227000Y-41275000D02*
X38227000Y-43258000D01*
X38100000Y-41148000D02*
X38227000Y-41275000D01*
X75544000Y-43582000D02*
X76454000Y-42672000D01*
X72210000Y-43582000D02*
X75544000Y-43582000D01*
X36957000Y-32385000D02*
X37338000Y-32004000D01*
X36957000Y-33958000D02*
X36957000Y-32385000D01*
X38227000Y-32385000D02*
X38354000Y-32258000D01*
X38227000Y-33958000D02*
X38227000Y-32385000D01*
X43307000Y-33147000D02*
X44450000Y-32004000D01*
X43307000Y-33958000D02*
X43307000Y-33147000D01*
X40767000Y-32952296D02*
X41431648Y-32287648D01*
X40767000Y-33958000D02*
X40767000Y-32952296D01*
X39497000Y-32639000D02*
X39878000Y-32258000D01*
X39497000Y-33958000D02*
X39497000Y-32639000D01*
X47284000Y-45720000D02*
X59897000Y-45720000D01*
X45847000Y-44283000D02*
X47284000Y-45720000D01*
X45847000Y-43258000D02*
X45847000Y-44283000D01*
X59897000Y-45720000D02*
X67009000Y-38608000D01*
X61722000Y-46482000D02*
X67056000Y-41148000D01*
X48999002Y-46482000D02*
X61722000Y-46482000D01*
X48944001Y-46426999D02*
X48999002Y-46482000D01*
X44577000Y-44283000D02*
X46720999Y-46426999D01*
X46720999Y-46426999D02*
X48944001Y-46426999D01*
X44577000Y-43258000D02*
X44577000Y-44283000D01*
X42037000Y-46355000D02*
X42037000Y-43258000D01*
X43434000Y-47752000D02*
X42037000Y-46355000D01*
X46434000Y-47752000D02*
X43434000Y-47752000D01*
X45654000Y-48532000D02*
X46434000Y-47752000D01*
X45654000Y-51816000D02*
X45654000Y-48532000D01*
X40767000Y-47371000D02*
X40767000Y-43258000D01*
X40386000Y-47752000D02*
X40767000Y-47371000D01*
X37934000Y-47752000D02*
X40386000Y-47752000D01*
X39116000Y-48934000D02*
X37934000Y-47752000D01*
X39116000Y-51816000D02*
X39116000Y-48934000D01*
X30607000Y-33958000D02*
X30607000Y-36702996D01*
X30607000Y-36702996D02*
X31242004Y-37338000D01*
X47498000Y-31242000D02*
X54102000Y-37846000D01*
X34838000Y-31242000D02*
X47498000Y-31242000D01*
X33147000Y-32933000D02*
X34838000Y-31242000D01*
X33147000Y-33958000D02*
X33147000Y-32933000D01*
X54864000Y-37846000D02*
X54102000Y-37846000D01*
X58420000Y-41402000D02*
X54864000Y-37846000D01*
X47117000Y-35179000D02*
X48514000Y-36576000D01*
X47117000Y-33958000D02*
X47117000Y-35179000D01*
X72926001Y-47774999D02*
X76454000Y-44247000D01*
X68199501Y-47774999D02*
X72926001Y-47774999D01*
X63904500Y-52070000D02*
X68199501Y-47774999D01*
D20*
X74949016Y-24732312D02*
X75380930Y-24862714D01*
X75779285Y-25074524D01*
X76128914Y-25359675D01*
X76416497Y-25707303D01*
X76631086Y-26104177D01*
X76645547Y-26150894D01*
X76506575Y-25942907D01*
X76057093Y-25493425D01*
X75528558Y-25140270D01*
X74941281Y-24897012D01*
X74317832Y-24773000D01*
X73682168Y-24773000D01*
X73058719Y-24897012D01*
X72471442Y-25140270D01*
X71942907Y-25493425D01*
X71493425Y-25942907D01*
X71140270Y-26471442D01*
X70897012Y-27058719D01*
X70773000Y-27682168D01*
X70773000Y-28317832D01*
X70897012Y-28941281D01*
X71140270Y-29528558D01*
X71493425Y-30057093D01*
X71942907Y-30506575D01*
X72471442Y-30859730D01*
X73058719Y-31102988D01*
X73682168Y-31227000D01*
X74317832Y-31227000D01*
X74941281Y-31102988D01*
X75528558Y-30859730D01*
X76057093Y-30506575D01*
X76506575Y-30057093D01*
X76815000Y-29595501D01*
X76815001Y-41598278D01*
X76739750Y-41599500D01*
X76581000Y-41758250D01*
X76581000Y-42545000D01*
X76601000Y-42545000D01*
X76601000Y-42799000D01*
X76581000Y-42799000D01*
X76581000Y-42819000D01*
X76327000Y-42819000D01*
X76327000Y-42799000D01*
X75502750Y-42799000D01*
X75344000Y-42957750D01*
X75340928Y-43109500D01*
X75353188Y-43233982D01*
X75389498Y-43353680D01*
X75448463Y-43463994D01*
X75503100Y-43530570D01*
X75485329Y-43552225D01*
X75406150Y-43700358D01*
X75357392Y-43861092D01*
X75340928Y-44028250D01*
X75340928Y-44285270D01*
X73610000Y-46016199D01*
X73610000Y-45984112D01*
X73556199Y-45713635D01*
X73450664Y-45458851D01*
X73297451Y-45229552D01*
X73102448Y-45034549D01*
X72873149Y-44881336D01*
X72808406Y-44854518D01*
X72814072Y-44852478D01*
X72930760Y-44790106D01*
X72998102Y-44549707D01*
X72210000Y-43761605D01*
X71421898Y-44549707D01*
X71489240Y-44790106D01*
X71619336Y-44851312D01*
X71546851Y-44881336D01*
X71388167Y-44987365D01*
X70054701Y-43653899D01*
X70805064Y-43653899D01*
X70846086Y-43926607D01*
X70939522Y-44186072D01*
X71001894Y-44302760D01*
X71242293Y-44370102D01*
X72030395Y-43582000D01*
X72389605Y-43582000D01*
X73177707Y-44370102D01*
X73418106Y-44302760D01*
X73535506Y-44053220D01*
X73601967Y-43785573D01*
X73614936Y-43510101D01*
X73573914Y-43237393D01*
X73480478Y-42977928D01*
X73418106Y-42861240D01*
X73177707Y-42793898D01*
X72389605Y-43582000D01*
X72030395Y-43582000D01*
X71242293Y-42793898D01*
X71001894Y-42861240D01*
X70884494Y-43110780D01*
X70818033Y-43378427D01*
X70805064Y-43653899D01*
X70054701Y-43653899D01*
X69641000Y-43240199D01*
X69641000Y-42614293D01*
X71421898Y-42614293D01*
X72210000Y-43402395D01*
X72998102Y-42614293D01*
X72930760Y-42373894D01*
X72681220Y-42256494D01*
X72592648Y-42234500D01*
X75340928Y-42234500D01*
X75344000Y-42386250D01*
X75502750Y-42545000D01*
X76327000Y-42545000D01*
X76327000Y-41758250D01*
X76168250Y-41599500D01*
X75979000Y-41596428D01*
X75854518Y-41608688D01*
X75734820Y-41644998D01*
X75624506Y-41703963D01*
X75527815Y-41783315D01*
X75448463Y-41880006D01*
X75389498Y-41990320D01*
X75353188Y-42110018D01*
X75340928Y-42234500D01*
X72592648Y-42234500D01*
X72413573Y-42190033D01*
X72138101Y-42177064D01*
X71865393Y-42218086D01*
X71605928Y-42311522D01*
X71489240Y-42373894D01*
X71421898Y-42614293D01*
X69641000Y-42614293D01*
X69641000Y-42333030D01*
X69771462Y-42225962D01*
X69881905Y-42091387D01*
X69963972Y-41937851D01*
X70014508Y-41771255D01*
X70031572Y-41598001D01*
X70031572Y-40697999D01*
X70014508Y-40524745D01*
X69963972Y-40358149D01*
X69881905Y-40204613D01*
X69771462Y-40070038D01*
X69636887Y-39959595D01*
X69483351Y-39877528D01*
X69454494Y-39868774D01*
X69589887Y-39796405D01*
X69724462Y-39685962D01*
X69834905Y-39551387D01*
X69916972Y-39397851D01*
X69967508Y-39231255D01*
X69984572Y-39058001D01*
X69984572Y-38157999D01*
X69967508Y-37984745D01*
X69916972Y-37818149D01*
X69834905Y-37664613D01*
X69724462Y-37530038D01*
X69594000Y-37422970D01*
X69594000Y-36562801D01*
X69777094Y-36379707D01*
X71421898Y-36379707D01*
X71489240Y-36620106D01*
X71738780Y-36737506D01*
X72006427Y-36803967D01*
X72281899Y-36816936D01*
X72554607Y-36775914D01*
X72814072Y-36682478D01*
X72930760Y-36620106D01*
X72998102Y-36379707D01*
X72210000Y-35591605D01*
X71421898Y-36379707D01*
X69777094Y-36379707D01*
X70811593Y-35345208D01*
X70805064Y-35483899D01*
X70846086Y-35756607D01*
X70939522Y-36016072D01*
X71001894Y-36132760D01*
X71242293Y-36200102D01*
X72030395Y-35412000D01*
X72389605Y-35412000D01*
X73177707Y-36200102D01*
X73418106Y-36132760D01*
X73535506Y-35883220D01*
X73601967Y-35615573D01*
X73614936Y-35340101D01*
X73573914Y-35067393D01*
X73480478Y-34807928D01*
X73418106Y-34691240D01*
X73177707Y-34623898D01*
X72389605Y-35412000D01*
X72030395Y-35412000D01*
X72016253Y-35397858D01*
X72195858Y-35218253D01*
X72210000Y-35232395D01*
X72998102Y-34444293D01*
X72930760Y-34203894D01*
X72800664Y-34142688D01*
X72873149Y-34112664D01*
X73102448Y-33959451D01*
X73297451Y-33764448D01*
X73450664Y-33535149D01*
X73556199Y-33280365D01*
X73610000Y-33009888D01*
X73610000Y-32734112D01*
X73556199Y-32463635D01*
X73450664Y-32208851D01*
X73297451Y-31979552D01*
X73102448Y-31784549D01*
X72873149Y-31631336D01*
X72618365Y-31525801D01*
X72347888Y-31472000D01*
X72072112Y-31472000D01*
X71801635Y-31525801D01*
X71546851Y-31631336D01*
X71317552Y-31784549D01*
X71122549Y-31979552D01*
X70969336Y-32208851D01*
X70863801Y-32463635D01*
X70810000Y-32734112D01*
X70810000Y-33009888D01*
X70841077Y-33166122D01*
X69424578Y-34582620D01*
X69483149Y-34441218D01*
X69570000Y-34004591D01*
X69570000Y-33559409D01*
X69483149Y-33122782D01*
X69312786Y-32711489D01*
X69065456Y-32341334D01*
X68750666Y-32026544D01*
X68380511Y-31779214D01*
X67969218Y-31608851D01*
X67532591Y-31522000D01*
X67087409Y-31522000D01*
X66650782Y-31608851D01*
X66239489Y-31779214D01*
X66114275Y-31862880D01*
X66125713Y-31698205D01*
X66079369Y-31335256D01*
X65963108Y-30988323D01*
X65841170Y-30760194D01*
X65554012Y-30637593D01*
X64439605Y-31752000D01*
X64453748Y-31766143D01*
X64274143Y-31945748D01*
X64260000Y-31931605D01*
X63145593Y-33046012D01*
X63268194Y-33333170D01*
X63595722Y-33496280D01*
X63948778Y-33592359D01*
X64313795Y-33617713D01*
X64676744Y-33571369D01*
X65023677Y-33455108D01*
X65076347Y-33426955D01*
X65050000Y-33559409D01*
X65050000Y-34004591D01*
X65136851Y-34441218D01*
X65307214Y-34852511D01*
X65554544Y-35222666D01*
X65869334Y-35537456D01*
X66239489Y-35784786D01*
X66650782Y-35955149D01*
X67087409Y-36042000D01*
X67532591Y-36042000D01*
X67969218Y-35955149D01*
X68174150Y-35870263D01*
X68128454Y-35955754D01*
X68084998Y-36099015D01*
X68070324Y-36248000D01*
X68074001Y-36285332D01*
X68074001Y-37422970D01*
X67943538Y-37530038D01*
X67921500Y-37556891D01*
X67899462Y-37530038D01*
X67764887Y-37419595D01*
X67611351Y-37337528D01*
X67444755Y-37286992D01*
X67271501Y-37269928D01*
X66746499Y-37269928D01*
X66573245Y-37286992D01*
X66406649Y-37337528D01*
X66253113Y-37419595D01*
X66118538Y-37530038D01*
X66008095Y-37664613D01*
X65926028Y-37818149D01*
X65875492Y-37984745D01*
X65858428Y-38157999D01*
X65858428Y-38683770D01*
X62265896Y-42276303D01*
X62265813Y-42275886D01*
X62163444Y-42028746D01*
X62014828Y-41806325D01*
X61825675Y-41617172D01*
X61603254Y-41468556D01*
X61442574Y-41402000D01*
X61603254Y-41335444D01*
X61825675Y-41186828D01*
X62014828Y-40997675D01*
X62163444Y-40775254D01*
X62265813Y-40528114D01*
X62318000Y-40265751D01*
X62318000Y-39998249D01*
X62265813Y-39735886D01*
X62163444Y-39488746D01*
X62014828Y-39266325D01*
X61825675Y-39077172D01*
X61603254Y-38928556D01*
X61442574Y-38862000D01*
X61603254Y-38795444D01*
X61825675Y-38646828D01*
X62014828Y-38457675D01*
X62163444Y-38235254D01*
X62265813Y-37988114D01*
X62318000Y-37725751D01*
X62318000Y-37458249D01*
X62265813Y-37195886D01*
X62163444Y-36948746D01*
X62014828Y-36726325D01*
X61825675Y-36537172D01*
X61603254Y-36388556D01*
X61442574Y-36322000D01*
X61603254Y-36255444D01*
X61825675Y-36106828D01*
X62014828Y-35917675D01*
X62163444Y-35695254D01*
X62265813Y-35448114D01*
X62318000Y-35185751D01*
X62318000Y-34918249D01*
X62265813Y-34655886D01*
X62163444Y-34408746D01*
X62014828Y-34186325D01*
X61825675Y-33997172D01*
X61603254Y-33848556D01*
X61356114Y-33746187D01*
X61093751Y-33694000D01*
X60826249Y-33694000D01*
X60563886Y-33746187D01*
X60316746Y-33848556D01*
X60094325Y-33997172D01*
X59905172Y-34186325D01*
X59756556Y-34408746D01*
X59654187Y-34655886D01*
X59605240Y-34901962D01*
X56509073Y-31805795D01*
X62394287Y-31805795D01*
X62440631Y-32168744D01*
X62556892Y-32515677D01*
X62678830Y-32743806D01*
X62965988Y-32866407D01*
X64080395Y-31752000D01*
X62965988Y-30637593D01*
X62678830Y-30760194D01*
X62515720Y-31087722D01*
X62419641Y-31440778D01*
X62394287Y-31805795D01*
X56509073Y-31805795D01*
X54984269Y-30280992D01*
X54981946Y-30278161D01*
X55043475Y-30216632D01*
X55160000Y-30042240D01*
X55276525Y-30216632D01*
X55483368Y-30423475D01*
X55726589Y-30585990D01*
X55996842Y-30697932D01*
X56283740Y-30755000D01*
X56576260Y-30755000D01*
X56863158Y-30697932D01*
X57133411Y-30585990D01*
X57376632Y-30423475D01*
X57583475Y-30216632D01*
X57700000Y-30042240D01*
X57816525Y-30216632D01*
X58023368Y-30423475D01*
X58266589Y-30585990D01*
X58536842Y-30697932D01*
X58823740Y-30755000D01*
X59116260Y-30755000D01*
X59403158Y-30697932D01*
X59673411Y-30585990D01*
X59916632Y-30423475D01*
X60123475Y-30216632D01*
X60240000Y-30042240D01*
X60356525Y-30216632D01*
X60563368Y-30423475D01*
X60806589Y-30585990D01*
X61076842Y-30697932D01*
X61363740Y-30755000D01*
X61656260Y-30755000D01*
X61943158Y-30697932D01*
X62213411Y-30585990D01*
X62456632Y-30423475D01*
X62663475Y-30216632D01*
X62780000Y-30042240D01*
X62896525Y-30216632D01*
X63103368Y-30423475D01*
X63147685Y-30453087D01*
X63145593Y-30457988D01*
X64260000Y-31572395D01*
X65374407Y-30457988D01*
X65251806Y-30170830D01*
X65238505Y-30164206D01*
X65320000Y-30042240D01*
X65436525Y-30216632D01*
X65643368Y-30423475D01*
X65886589Y-30585990D01*
X66156842Y-30697932D01*
X66443740Y-30755000D01*
X66736260Y-30755000D01*
X67023158Y-30697932D01*
X67293411Y-30585990D01*
X67536632Y-30423475D01*
X67743475Y-30216632D01*
X67860000Y-30042240D01*
X67976525Y-30216632D01*
X68183368Y-30423475D01*
X68426589Y-30585990D01*
X68696842Y-30697932D01*
X68983740Y-30755000D01*
X69276260Y-30755000D01*
X69563158Y-30697932D01*
X69833411Y-30585990D01*
X70076632Y-30423475D01*
X70283475Y-30216632D01*
X70445990Y-29973411D01*
X70557932Y-29703158D01*
X70615000Y-29416260D01*
X70615000Y-29123740D01*
X70557932Y-28836842D01*
X70445990Y-28566589D01*
X70283475Y-28323368D01*
X70076632Y-28116525D01*
X69902240Y-28000000D01*
X70076632Y-27883475D01*
X70283475Y-27676632D01*
X70445990Y-27433411D01*
X70557932Y-27163158D01*
X70615000Y-26876260D01*
X70615000Y-26583740D01*
X70557932Y-26296842D01*
X70445990Y-26026589D01*
X70283475Y-25783368D01*
X70076632Y-25576525D01*
X69833411Y-25414010D01*
X69563158Y-25302068D01*
X69276260Y-25245000D01*
X68983740Y-25245000D01*
X68696842Y-25302068D01*
X68426589Y-25414010D01*
X68183368Y-25576525D01*
X67976525Y-25783368D01*
X67860000Y-25957760D01*
X67743475Y-25783368D01*
X67536632Y-25576525D01*
X67293411Y-25414010D01*
X67023158Y-25302068D01*
X66736260Y-25245000D01*
X66443740Y-25245000D01*
X66156842Y-25302068D01*
X65886589Y-25414010D01*
X65643368Y-25576525D01*
X65436525Y-25783368D01*
X65320000Y-25957760D01*
X65203475Y-25783368D01*
X64996632Y-25576525D01*
X64753411Y-25414010D01*
X64483158Y-25302068D01*
X64196260Y-25245000D01*
X63903740Y-25245000D01*
X63616842Y-25302068D01*
X63346589Y-25414010D01*
X63103368Y-25576525D01*
X62896525Y-25783368D01*
X62780000Y-25957760D01*
X62663475Y-25783368D01*
X62456632Y-25576525D01*
X62213411Y-25414010D01*
X61943158Y-25302068D01*
X61656260Y-25245000D01*
X61363740Y-25245000D01*
X61076842Y-25302068D01*
X60806589Y-25414010D01*
X60563368Y-25576525D01*
X60356525Y-25783368D01*
X60240000Y-25957760D01*
X60123475Y-25783368D01*
X59916632Y-25576525D01*
X59673411Y-25414010D01*
X59403158Y-25302068D01*
X59116260Y-25245000D01*
X58823740Y-25245000D01*
X58536842Y-25302068D01*
X58266589Y-25414010D01*
X58023368Y-25576525D01*
X57816525Y-25783368D01*
X57700000Y-25957760D01*
X57583475Y-25783368D01*
X57376632Y-25576525D01*
X57133411Y-25414010D01*
X56863158Y-25302068D01*
X56576260Y-25245000D01*
X56283740Y-25245000D01*
X55996842Y-25302068D01*
X55726589Y-25414010D01*
X55483368Y-25576525D01*
X55276525Y-25783368D01*
X55160000Y-25957760D01*
X55043475Y-25783368D01*
X54836632Y-25576525D01*
X54593411Y-25414010D01*
X54323158Y-25302068D01*
X54036260Y-25245000D01*
X53743740Y-25245000D01*
X53456842Y-25302068D01*
X53186589Y-25414010D01*
X52943368Y-25576525D01*
X52736525Y-25783368D01*
X52620000Y-25957760D01*
X52503475Y-25783368D01*
X52296632Y-25576525D01*
X52053411Y-25414010D01*
X51783158Y-25302068D01*
X51496260Y-25245000D01*
X51203740Y-25245000D01*
X50916842Y-25302068D01*
X50646589Y-25414010D01*
X50403368Y-25576525D01*
X50196525Y-25783368D01*
X50080000Y-25957760D01*
X49963475Y-25783368D01*
X49756632Y-25576525D01*
X49513411Y-25414010D01*
X49243158Y-25302068D01*
X48956260Y-25245000D01*
X48663740Y-25245000D01*
X48376842Y-25302068D01*
X48106589Y-25414010D01*
X47863368Y-25576525D01*
X47656525Y-25783368D01*
X47540000Y-25957760D01*
X47423475Y-25783368D01*
X47216632Y-25576525D01*
X46973411Y-25414010D01*
X46703158Y-25302068D01*
X46416260Y-25245000D01*
X46123740Y-25245000D01*
X45836842Y-25302068D01*
X45566589Y-25414010D01*
X45323368Y-25576525D01*
X45116525Y-25783368D01*
X45000000Y-25957760D01*
X44883475Y-25783368D01*
X44676632Y-25576525D01*
X44433411Y-25414010D01*
X44163158Y-25302068D01*
X43876260Y-25245000D01*
X43583740Y-25245000D01*
X43296842Y-25302068D01*
X43026589Y-25414010D01*
X42783368Y-25576525D01*
X42576525Y-25783368D01*
X42460000Y-25957760D01*
X42343475Y-25783368D01*
X42136632Y-25576525D01*
X41893411Y-25414010D01*
X41623158Y-25302068D01*
X41336260Y-25245000D01*
X41043740Y-25245000D01*
X40756842Y-25302068D01*
X40486589Y-25414010D01*
X40243368Y-25576525D01*
X40036525Y-25783368D01*
X39920000Y-25957760D01*
X39803475Y-25783368D01*
X39596632Y-25576525D01*
X39353411Y-25414010D01*
X39083158Y-25302068D01*
X38796260Y-25245000D01*
X38503740Y-25245000D01*
X38216842Y-25302068D01*
X37946589Y-25414010D01*
X37703368Y-25576525D01*
X37496525Y-25783368D01*
X37380000Y-25957760D01*
X37263475Y-25783368D01*
X37056632Y-25576525D01*
X36813411Y-25414010D01*
X36543158Y-25302068D01*
X36256260Y-25245000D01*
X35963740Y-25245000D01*
X35676842Y-25302068D01*
X35406589Y-25414010D01*
X35163368Y-25576525D01*
X34956525Y-25783368D01*
X34840000Y-25957760D01*
X34723475Y-25783368D01*
X34516632Y-25576525D01*
X34273411Y-25414010D01*
X34003158Y-25302068D01*
X33716260Y-25245000D01*
X33423740Y-25245000D01*
X33136842Y-25302068D01*
X32866589Y-25414010D01*
X32623368Y-25576525D01*
X32416525Y-25783368D01*
X32300000Y-25957760D01*
X32183475Y-25783368D01*
X31976632Y-25576525D01*
X31733411Y-25414010D01*
X31463158Y-25302068D01*
X31176260Y-25245000D01*
X30883740Y-25245000D01*
X30596842Y-25302068D01*
X30326589Y-25414010D01*
X30083368Y-25576525D01*
X29876525Y-25783368D01*
X29760000Y-25957760D01*
X29643475Y-25783368D01*
X29436632Y-25576525D01*
X29193411Y-25414010D01*
X28923158Y-25302068D01*
X28636260Y-25245000D01*
X28343740Y-25245000D01*
X28056842Y-25302068D01*
X27786589Y-25414010D01*
X27543368Y-25576525D01*
X27336525Y-25783368D01*
X27220000Y-25957760D01*
X27103475Y-25783368D01*
X26896632Y-25576525D01*
X26653411Y-25414010D01*
X26383158Y-25302068D01*
X26096260Y-25245000D01*
X25803740Y-25245000D01*
X25516842Y-25302068D01*
X25246589Y-25414010D01*
X25003368Y-25576525D01*
X24796525Y-25783368D01*
X24680000Y-25957760D01*
X24563475Y-25783368D01*
X24356632Y-25576525D01*
X24113411Y-25414010D01*
X23843158Y-25302068D01*
X23556260Y-25245000D01*
X23263740Y-25245000D01*
X22976842Y-25302068D01*
X22706589Y-25414010D01*
X22463368Y-25576525D01*
X22256525Y-25783368D01*
X22140000Y-25957760D01*
X22023475Y-25783368D01*
X21816632Y-25576525D01*
X21573411Y-25414010D01*
X21303158Y-25302068D01*
X21016260Y-25245000D01*
X20723740Y-25245000D01*
X20436842Y-25302068D01*
X20166589Y-25414010D01*
X19923368Y-25576525D01*
X19716525Y-25783368D01*
X19554010Y-26026589D01*
X19442068Y-26296842D01*
X19385000Y-26583740D01*
X19385000Y-26876260D01*
X19442068Y-27163158D01*
X19554010Y-27433411D01*
X19716525Y-27676632D01*
X19848380Y-27808487D01*
X19775820Y-27830498D01*
X19665506Y-27889463D01*
X19568815Y-27968815D01*
X19489463Y-28065506D01*
X19430498Y-28175820D01*
X19394188Y-28295518D01*
X19381928Y-28420000D01*
X19381928Y-30120000D01*
X19394188Y-30244482D01*
X19430498Y-30364180D01*
X19489463Y-30474494D01*
X19568815Y-30571185D01*
X19665506Y-30650537D01*
X19775820Y-30709502D01*
X19895518Y-30745812D01*
X20020000Y-30758072D01*
X21720000Y-30758072D01*
X21844482Y-30745812D01*
X21964180Y-30709502D01*
X22074494Y-30650537D01*
X22171185Y-30571185D01*
X22250537Y-30474494D01*
X22309502Y-30364180D01*
X22331513Y-30291620D01*
X22463368Y-30423475D01*
X22706589Y-30585990D01*
X22976842Y-30697932D01*
X23263740Y-30755000D01*
X23556260Y-30755000D01*
X23843158Y-30697932D01*
X24113411Y-30585990D01*
X24356632Y-30423475D01*
X24563475Y-30216632D01*
X24680000Y-30042240D01*
X24796525Y-30216632D01*
X25003368Y-30423475D01*
X25246589Y-30585990D01*
X25516842Y-30697932D01*
X25803740Y-30755000D01*
X26096260Y-30755000D01*
X26383158Y-30697932D01*
X26653411Y-30585990D01*
X26896632Y-30423475D01*
X27103475Y-30216632D01*
X27220000Y-30042240D01*
X27336525Y-30216632D01*
X27543368Y-30423475D01*
X27786589Y-30585990D01*
X28056842Y-30697932D01*
X28343740Y-30755000D01*
X28636260Y-30755000D01*
X28923158Y-30697932D01*
X29193411Y-30585990D01*
X29436632Y-30423475D01*
X29643475Y-30216632D01*
X29765195Y-30034466D01*
X29834822Y-30151355D01*
X30029731Y-30367588D01*
X30263080Y-30541641D01*
X30525901Y-30666825D01*
X30673110Y-30711476D01*
X30903000Y-30590155D01*
X30903000Y-29397000D01*
X30883000Y-29397000D01*
X30883000Y-29143000D01*
X30903000Y-29143000D01*
X30903000Y-29123000D01*
X31157000Y-29123000D01*
X31157000Y-29143000D01*
X31177000Y-29143000D01*
X31177000Y-29397000D01*
X31157000Y-29397000D01*
X31157000Y-30590155D01*
X31386890Y-30711476D01*
X31534099Y-30666825D01*
X31796920Y-30541641D01*
X32030269Y-30367588D01*
X32225178Y-30151355D01*
X32294805Y-30034466D01*
X32416525Y-30216632D01*
X32623368Y-30423475D01*
X32866589Y-30585990D01*
X33066431Y-30668767D01*
X31365998Y-32369201D01*
X31337000Y-32392999D01*
X31323582Y-32409349D01*
X31289171Y-32427742D01*
X31242000Y-32466454D01*
X31194829Y-32427742D01*
X31058582Y-32354916D01*
X30910745Y-32310071D01*
X30757000Y-32294928D01*
X30457000Y-32294928D01*
X30303255Y-32310071D01*
X30155418Y-32354916D01*
X30019171Y-32427742D01*
X29899749Y-32525749D01*
X29801742Y-32645171D01*
X29728916Y-32781418D01*
X29684071Y-32929255D01*
X29668928Y-33083000D01*
X29668928Y-34833000D01*
X29684071Y-34986745D01*
X29728916Y-35134582D01*
X29801742Y-35270829D01*
X29847000Y-35325977D01*
X29847001Y-36665664D01*
X29843324Y-36702996D01*
X29857998Y-36851981D01*
X29901454Y-36995242D01*
X29972026Y-37127272D01*
X30040762Y-37211026D01*
X30067000Y-37242997D01*
X30095998Y-37266795D01*
X30318851Y-37489649D01*
X30342936Y-37610729D01*
X30413418Y-37780889D01*
X30515742Y-37934028D01*
X30645976Y-38064262D01*
X30799115Y-38166586D01*
X30969275Y-38237068D01*
X31149915Y-38273000D01*
X31334093Y-38273000D01*
X31514733Y-38237068D01*
X31684893Y-38166586D01*
X31838032Y-38064262D01*
X31968266Y-37934028D01*
X32070590Y-37780889D01*
X32141072Y-37610729D01*
X32177004Y-37430089D01*
X32177004Y-37245911D01*
X32141072Y-37065271D01*
X32070590Y-36895111D01*
X31968266Y-36741972D01*
X31838032Y-36611738D01*
X31684893Y-36509414D01*
X31514733Y-36438932D01*
X31393653Y-36414847D01*
X31367000Y-36388195D01*
X31367000Y-35529859D01*
X31425418Y-35561084D01*
X31573255Y-35605929D01*
X31727000Y-35621072D01*
X32027000Y-35621072D01*
X32180745Y-35605929D01*
X32328582Y-35561084D01*
X32464829Y-35488258D01*
X32512000Y-35449546D01*
X32559171Y-35488258D01*
X32695418Y-35561084D01*
X32843255Y-35605929D01*
X32997000Y-35621072D01*
X33297000Y-35621072D01*
X33450745Y-35605929D01*
X33598582Y-35561084D01*
X33732936Y-35489270D01*
X33762506Y-35513537D01*
X33872820Y-35572502D01*
X33992518Y-35608812D01*
X34117000Y-35621072D01*
X34131250Y-35618000D01*
X34290000Y-35459250D01*
X34290000Y-34085000D01*
X34270000Y-34085000D01*
X34270000Y-33831000D01*
X34290000Y-33831000D01*
X34290000Y-33811000D01*
X34544000Y-33811000D01*
X34544000Y-33831000D01*
X34564000Y-33831000D01*
X34564000Y-34085000D01*
X34544000Y-34085000D01*
X34544000Y-35459250D01*
X34702750Y-35618000D01*
X34717000Y-35621072D01*
X34735318Y-35619268D01*
X34731414Y-35625111D01*
X34660932Y-35795271D01*
X34625000Y-35975911D01*
X34625000Y-36160089D01*
X34660932Y-36340729D01*
X34731414Y-36510889D01*
X34833738Y-36664028D01*
X34963972Y-36794262D01*
X35117111Y-36896586D01*
X35287271Y-36967068D01*
X35467911Y-37003000D01*
X35652089Y-37003000D01*
X35832729Y-36967068D01*
X36002889Y-36896586D01*
X36156028Y-36794262D01*
X36286262Y-36664028D01*
X36388586Y-36510889D01*
X36459068Y-36340729D01*
X36495000Y-36160089D01*
X36495000Y-35975911D01*
X36459068Y-35795271D01*
X36447000Y-35766136D01*
X36447000Y-35529859D01*
X36505418Y-35561084D01*
X36653255Y-35605929D01*
X36807000Y-35621072D01*
X37107000Y-35621072D01*
X37260745Y-35605929D01*
X37408582Y-35561084D01*
X37544829Y-35488258D01*
X37592000Y-35449546D01*
X37639171Y-35488258D01*
X37775418Y-35561084D01*
X37923255Y-35605929D01*
X38077000Y-35621072D01*
X38377000Y-35621072D01*
X38530745Y-35605929D01*
X38678582Y-35561084D01*
X38814829Y-35488258D01*
X38862000Y-35449546D01*
X38909171Y-35488258D01*
X39045418Y-35561084D01*
X39193255Y-35605929D01*
X39347000Y-35621072D01*
X39647000Y-35621072D01*
X39800745Y-35605929D01*
X39948582Y-35561084D01*
X40084829Y-35488258D01*
X40132000Y-35449546D01*
X40179171Y-35488258D01*
X40315418Y-35561084D01*
X40463255Y-35605929D01*
X40617000Y-35621072D01*
X40917000Y-35621072D01*
X41070745Y-35605929D01*
X41218582Y-35561084D01*
X41354829Y-35488258D01*
X41402000Y-35449546D01*
X41449171Y-35488258D01*
X41585418Y-35561084D01*
X41733255Y-35605929D01*
X41887000Y-35621072D01*
X42187000Y-35621072D01*
X42340745Y-35605929D01*
X42488582Y-35561084D01*
X42624829Y-35488258D01*
X42672000Y-35449546D01*
X42719171Y-35488258D01*
X42855418Y-35561084D01*
X43003255Y-35605929D01*
X43157000Y-35621072D01*
X43457000Y-35621072D01*
X43610745Y-35605929D01*
X43758582Y-35561084D01*
X43894829Y-35488258D01*
X43942000Y-35449546D01*
X43989171Y-35488258D01*
X44125418Y-35561084D01*
X44273255Y-35605929D01*
X44427000Y-35621072D01*
X44727000Y-35621072D01*
X44880745Y-35605929D01*
X45028582Y-35561084D01*
X45162936Y-35489270D01*
X45192506Y-35513537D01*
X45302820Y-35572502D01*
X45422518Y-35608812D01*
X45547000Y-35621072D01*
X45561250Y-35618000D01*
X45720000Y-35459250D01*
X45720000Y-34085000D01*
X45700000Y-34085000D01*
X45700000Y-33831000D01*
X45720000Y-33831000D01*
X45720000Y-32456750D01*
X45561250Y-32298000D01*
X45547000Y-32294928D01*
X45422518Y-32307188D01*
X45324083Y-32337048D01*
X45349068Y-32276729D01*
X45385000Y-32096089D01*
X45385000Y-32002000D01*
X47183199Y-32002000D01*
X47521978Y-32340779D01*
X47420745Y-32310071D01*
X47267000Y-32294928D01*
X46967000Y-32294928D01*
X46813255Y-32310071D01*
X46665418Y-32354916D01*
X46531064Y-32426730D01*
X46501494Y-32402463D01*
X46391180Y-32343498D01*
X46271482Y-32307188D01*
X46147000Y-32294928D01*
X46132750Y-32298000D01*
X45974000Y-32456750D01*
X45974000Y-33831000D01*
X45994000Y-33831000D01*
X45994000Y-34085000D01*
X45974000Y-34085000D01*
X45974000Y-35459250D01*
X46132750Y-35618000D01*
X46147000Y-35621072D01*
X46271482Y-35608812D01*
X46391180Y-35572502D01*
X46449044Y-35541572D01*
X46482026Y-35603276D01*
X46553201Y-35690002D01*
X46577000Y-35719001D01*
X46605998Y-35742799D01*
X47590847Y-36727649D01*
X47614932Y-36848729D01*
X47685414Y-37018889D01*
X47787738Y-37172028D01*
X47917972Y-37302262D01*
X48071111Y-37404586D01*
X48241271Y-37475068D01*
X48421911Y-37511000D01*
X48585538Y-37511000D01*
X48560820Y-37518498D01*
X48450506Y-37577463D01*
X48353815Y-37656815D01*
X48274463Y-37753506D01*
X48215498Y-37863820D01*
X48179188Y-37983518D01*
X48166928Y-38108000D01*
X48170000Y-38322250D01*
X48328750Y-38481000D01*
X49403000Y-38481000D01*
X49403000Y-37631750D01*
X49657000Y-37631750D01*
X49657000Y-38481000D01*
X50731250Y-38481000D01*
X50890000Y-38322250D01*
X50893072Y-38108000D01*
X50880812Y-37983518D01*
X50844502Y-37863820D01*
X50785537Y-37753506D01*
X50706185Y-37656815D01*
X50609494Y-37577463D01*
X50499180Y-37518498D01*
X50379482Y-37482188D01*
X50255000Y-37469928D01*
X49815750Y-37473000D01*
X49657000Y-37631750D01*
X49403000Y-37631750D01*
X49244250Y-37473000D01*
X48805000Y-37469928D01*
X48797310Y-37470685D01*
X48956889Y-37404586D01*
X49110028Y-37302262D01*
X49240262Y-37172028D01*
X49342586Y-37018889D01*
X49413068Y-36848729D01*
X49449000Y-36668089D01*
X49449000Y-36483911D01*
X49413068Y-36303271D01*
X49342586Y-36133111D01*
X49240262Y-35979972D01*
X49110028Y-35849738D01*
X48956889Y-35747414D01*
X48786729Y-35676932D01*
X48665649Y-35652847D01*
X48030530Y-35017729D01*
X48039929Y-34986745D01*
X48055072Y-34833000D01*
X48055072Y-33083000D01*
X48039929Y-32929255D01*
X48009221Y-32828022D01*
X53538200Y-38357002D01*
X53561999Y-38386001D01*
X53677724Y-38480974D01*
X53809753Y-38551546D01*
X53953014Y-38595003D01*
X54064667Y-38606000D01*
X54064676Y-38606000D01*
X54101999Y-38609676D01*
X54139322Y-38606000D01*
X54549199Y-38606000D01*
X57086795Y-41143597D01*
X57062000Y-41268249D01*
X57062000Y-41535751D01*
X57114187Y-41798114D01*
X57216556Y-42045254D01*
X57365172Y-42267675D01*
X57554325Y-42456828D01*
X57776746Y-42605444D01*
X57938038Y-42672254D01*
X57830599Y-42711284D01*
X57724152Y-42768182D01*
X57661901Y-43004296D01*
X58420000Y-43762395D01*
X59178099Y-43004296D01*
X59115848Y-42768182D01*
X58906463Y-42670389D01*
X59063254Y-42605444D01*
X59285675Y-42456828D01*
X59474828Y-42267675D01*
X59623444Y-42045254D01*
X59725813Y-41798114D01*
X59778000Y-41535751D01*
X59778000Y-41268249D01*
X59725813Y-41005886D01*
X59623444Y-40758746D01*
X59474828Y-40536325D01*
X59285675Y-40347172D01*
X59063254Y-40198556D01*
X58902574Y-40132000D01*
X59063254Y-40065444D01*
X59285675Y-39916828D01*
X59474828Y-39727675D01*
X59623444Y-39505254D01*
X59725813Y-39258114D01*
X59778000Y-38995751D01*
X59778000Y-38728249D01*
X59725813Y-38465886D01*
X59623444Y-38218746D01*
X59474828Y-37996325D01*
X59285675Y-37807172D01*
X59063254Y-37658556D01*
X58902574Y-37592000D01*
X59063254Y-37525444D01*
X59285675Y-37376828D01*
X59474828Y-37187675D01*
X59581581Y-37027907D01*
X59682121Y-37128447D01*
X59654187Y-37195886D01*
X59602000Y-37458249D01*
X59602000Y-37725751D01*
X59654187Y-37988114D01*
X59756556Y-38235254D01*
X59905172Y-38457675D01*
X60094325Y-38646828D01*
X60316746Y-38795444D01*
X60477426Y-38862000D01*
X60316746Y-38928556D01*
X60094325Y-39077172D01*
X59905172Y-39266325D01*
X59756556Y-39488746D01*
X59654187Y-39735886D01*
X59602000Y-39998249D01*
X59602000Y-40265751D01*
X59654187Y-40528114D01*
X59756556Y-40775254D01*
X59905172Y-40997675D01*
X60094325Y-41186828D01*
X60316746Y-41335444D01*
X60477426Y-41402000D01*
X60316746Y-41468556D01*
X60094325Y-41617172D01*
X59905172Y-41806325D01*
X59756556Y-42028746D01*
X59654187Y-42275886D01*
X59602000Y-42538249D01*
X59602000Y-42805751D01*
X59654187Y-43068114D01*
X59756556Y-43315254D01*
X59905172Y-43537675D01*
X60094325Y-43726828D01*
X60316746Y-43875444D01*
X60563886Y-43977813D01*
X60564303Y-43977896D01*
X59582199Y-44960000D01*
X59156929Y-44960000D01*
X59178099Y-44879704D01*
X58420000Y-44121605D01*
X58405858Y-44135748D01*
X58226253Y-43956143D01*
X58240395Y-43942000D01*
X58599605Y-43942000D01*
X59357704Y-44700099D01*
X59593818Y-44637848D01*
X59707017Y-44395477D01*
X59770756Y-44135679D01*
X59782587Y-43868439D01*
X59742054Y-43604025D01*
X59650716Y-43352599D01*
X59593818Y-43246152D01*
X59357704Y-43183901D01*
X58599605Y-43942000D01*
X58240395Y-43942000D01*
X57482296Y-43183901D01*
X57246182Y-43246152D01*
X57132983Y-43488523D01*
X57069244Y-43748321D01*
X57057413Y-44015561D01*
X57066836Y-44077030D01*
X56956088Y-44055001D01*
X56771910Y-44055001D01*
X56591270Y-44090933D01*
X56421110Y-44161415D01*
X56318464Y-44230001D01*
X55211072Y-44230001D01*
X55211072Y-43880000D01*
X55194008Y-43706746D01*
X55143472Y-43540150D01*
X55061405Y-43386614D01*
X54950962Y-43252038D01*
X54944406Y-43246658D01*
X55024185Y-43181185D01*
X55103537Y-43084494D01*
X55162502Y-42974180D01*
X55198812Y-42854482D01*
X55211072Y-42730000D01*
X55208000Y-42515750D01*
X55049250Y-42357000D01*
X53975000Y-42357000D01*
X53975000Y-42377000D01*
X53721000Y-42377000D01*
X53721000Y-42357000D01*
X52646750Y-42357000D01*
X52488000Y-42515750D01*
X52484928Y-42730000D01*
X52497188Y-42854482D01*
X52533498Y-42974180D01*
X52592463Y-43084494D01*
X52671815Y-43181185D01*
X52751594Y-43246658D01*
X52745038Y-43252038D01*
X52648230Y-43370000D01*
X52318803Y-43370000D01*
X51492813Y-42544012D01*
X51492809Y-42544007D01*
X50678802Y-41730000D01*
X52484928Y-41730000D01*
X52488000Y-41944250D01*
X52646750Y-42103000D01*
X53721000Y-42103000D01*
X53721000Y-41253750D01*
X53975000Y-41253750D01*
X53975000Y-42103000D01*
X55049250Y-42103000D01*
X55208000Y-41944250D01*
X55211072Y-41730000D01*
X55198812Y-41605518D01*
X55162502Y-41485820D01*
X55103537Y-41375506D01*
X55024185Y-41278815D01*
X54927494Y-41199463D01*
X54817180Y-41140498D01*
X54697482Y-41104188D01*
X54573000Y-41091928D01*
X54133750Y-41095000D01*
X53975000Y-41253750D01*
X53721000Y-41253750D01*
X53562250Y-41095000D01*
X53123000Y-41091928D01*
X52998518Y-41104188D01*
X52878820Y-41140498D01*
X52768506Y-41199463D01*
X52671815Y-41278815D01*
X52592463Y-41375506D01*
X52533498Y-41485820D01*
X52497188Y-41605518D01*
X52484928Y-41730000D01*
X50678802Y-41730000D01*
X50463730Y-41514929D01*
X50498386Y-41496405D01*
X50632962Y-41385962D01*
X50743405Y-41251386D01*
X50825472Y-41097850D01*
X50876008Y-40931254D01*
X50893072Y-40758000D01*
X50893072Y-40258000D01*
X50876008Y-40084746D01*
X50825472Y-39918150D01*
X50743405Y-39764614D01*
X50632962Y-39630038D01*
X50626406Y-39624658D01*
X50706185Y-39559185D01*
X50785537Y-39462494D01*
X50844502Y-39352180D01*
X50880812Y-39232482D01*
X50893072Y-39108000D01*
X50890000Y-38893750D01*
X50731250Y-38735000D01*
X49657000Y-38735000D01*
X49657000Y-38755000D01*
X49403000Y-38755000D01*
X49403000Y-38735000D01*
X48328750Y-38735000D01*
X48170000Y-38893750D01*
X48166928Y-39108000D01*
X48179188Y-39232482D01*
X48215498Y-39352180D01*
X48274463Y-39462494D01*
X48353815Y-39559185D01*
X48433594Y-39624658D01*
X48427038Y-39630038D01*
X48316595Y-39764614D01*
X48234528Y-39918150D01*
X48183992Y-40084746D01*
X48166928Y-40258000D01*
X48166928Y-40758000D01*
X48180520Y-40896000D01*
X47535322Y-40896000D01*
X47497999Y-40892324D01*
X47460676Y-40896000D01*
X47460667Y-40896000D01*
X47349014Y-40906997D01*
X47205753Y-40950454D01*
X47073724Y-41021026D01*
X46957999Y-41115999D01*
X46934196Y-41145003D01*
X46922074Y-41157125D01*
X46829323Y-41147990D01*
X46829312Y-41147990D01*
X46791990Y-41144314D01*
X46754668Y-41147990D01*
X44267564Y-41147990D01*
X44230241Y-41144314D01*
X44192918Y-41147990D01*
X44192909Y-41147990D01*
X44081256Y-41158987D01*
X43937995Y-41202444D01*
X43805966Y-41273016D01*
X43690241Y-41367989D01*
X43666443Y-41396987D01*
X43606116Y-41457315D01*
X43545794Y-41396993D01*
X43521991Y-41367989D01*
X43406266Y-41273016D01*
X43274237Y-41202444D01*
X43130976Y-41158987D01*
X43019323Y-41147990D01*
X43019312Y-41147990D01*
X42981990Y-41144314D01*
X42944668Y-41147990D01*
X40457567Y-41147990D01*
X40420242Y-41144314D01*
X40382917Y-41147990D01*
X40382909Y-41147990D01*
X40271256Y-41158987D01*
X40127995Y-41202444D01*
X39995966Y-41273016D01*
X39880241Y-41367989D01*
X39856438Y-41396993D01*
X39611013Y-41642418D01*
X39582009Y-41666221D01*
X39529667Y-41730000D01*
X39487036Y-41781946D01*
X39431550Y-41885753D01*
X39416464Y-41913976D01*
X39373007Y-42057237D01*
X39370000Y-42087767D01*
X39370000Y-41756750D01*
X39211250Y-41598000D01*
X39197000Y-41594928D01*
X39072518Y-41607188D01*
X38952820Y-41643498D01*
X38862000Y-41692043D01*
X38771180Y-41643498D01*
X38651482Y-41607188D01*
X38527000Y-41594928D01*
X38512750Y-41598000D01*
X38354000Y-41756750D01*
X38354000Y-43131000D01*
X39362010Y-43131000D01*
X39362011Y-43385000D01*
X38354000Y-43385000D01*
X38354000Y-43405000D01*
X38100000Y-43405000D01*
X38100000Y-43385000D01*
X38080000Y-43385000D01*
X38080000Y-43131000D01*
X38100000Y-43131000D01*
X38100000Y-41756750D01*
X37941250Y-41598000D01*
X37927000Y-41594928D01*
X37802518Y-41607188D01*
X37682820Y-41643498D01*
X37624956Y-41674428D01*
X37591974Y-41612724D01*
X37497001Y-41496999D01*
X37468003Y-41473201D01*
X37256803Y-41262002D01*
X37233001Y-41232999D01*
X37117276Y-41138026D01*
X36985247Y-41067454D01*
X36918496Y-41047206D01*
X36918028Y-41046738D01*
X36764889Y-40944414D01*
X36594729Y-40873932D01*
X36414089Y-40838000D01*
X36229911Y-40838000D01*
X36049271Y-40873932D01*
X35879111Y-40944414D01*
X35725972Y-41046738D01*
X35595738Y-41176972D01*
X35493414Y-41330111D01*
X35422932Y-41500271D01*
X35401448Y-41608279D01*
X35383255Y-41610071D01*
X35235418Y-41654916D01*
X35101064Y-41726730D01*
X35071494Y-41702463D01*
X34961180Y-41643498D01*
X34841482Y-41607188D01*
X34717000Y-41594928D01*
X34702750Y-41598000D01*
X34544002Y-41756748D01*
X34544002Y-41641066D01*
X34632028Y-41582249D01*
X34762262Y-41452015D01*
X34864586Y-41298876D01*
X34935068Y-41128716D01*
X34971000Y-40948076D01*
X34971000Y-40763898D01*
X34935068Y-40583258D01*
X34864586Y-40413098D01*
X34762262Y-40259959D01*
X34632028Y-40129725D01*
X34478889Y-40027401D01*
X34308729Y-39956919D01*
X34128089Y-39920987D01*
X33943911Y-39920987D01*
X33763271Y-39956919D01*
X33593111Y-40027401D01*
X33490465Y-40095987D01*
X32633058Y-40095987D01*
X32595735Y-40092311D01*
X32558412Y-40095987D01*
X32558403Y-40095987D01*
X32446750Y-40106984D01*
X32303489Y-40150441D01*
X32171460Y-40221013D01*
X32055735Y-40315986D01*
X32031937Y-40344985D01*
X31369353Y-41007569D01*
X31367000Y-40983676D01*
X31367000Y-40983667D01*
X31356003Y-40872014D01*
X31312546Y-40728753D01*
X31241974Y-40596724D01*
X31147001Y-40480999D01*
X31118003Y-40457201D01*
X27957804Y-37297003D01*
X27934001Y-37267999D01*
X27818276Y-37173026D01*
X27686247Y-37102454D01*
X27542986Y-37058997D01*
X27431333Y-37048000D01*
X27431322Y-37048000D01*
X27394000Y-37044324D01*
X27356678Y-37048000D01*
X26491323Y-37048000D01*
X26454000Y-37044324D01*
X26416677Y-37048000D01*
X26416667Y-37048000D01*
X26305014Y-37058997D01*
X26161753Y-37102454D01*
X26029724Y-37173026D01*
X25913999Y-37267999D01*
X25890201Y-37296998D01*
X25502351Y-37684847D01*
X25381271Y-37708932D01*
X25211111Y-37779414D01*
X25057972Y-37881738D01*
X24927738Y-38011972D01*
X24825414Y-38165111D01*
X24754932Y-38335271D01*
X24730848Y-38456350D01*
X21572998Y-41614201D01*
X21544000Y-41637999D01*
X21520202Y-41666997D01*
X21520201Y-41666998D01*
X21449026Y-41753724D01*
X21378454Y-41885754D01*
X21361771Y-41940753D01*
X21334998Y-42029014D01*
X21327020Y-42110018D01*
X21323726Y-42143464D01*
X21254506Y-42180463D01*
X21157815Y-42259815D01*
X21078463Y-42356506D01*
X21019498Y-42466820D01*
X20983188Y-42586518D01*
X20970928Y-42711000D01*
X20970928Y-44461000D01*
X20983188Y-44585482D01*
X21019498Y-44705180D01*
X21078463Y-44815494D01*
X21157815Y-44912185D01*
X21254506Y-44991537D01*
X21364820Y-45050502D01*
X21484518Y-45086812D01*
X21609000Y-45099072D01*
X22559000Y-45099072D01*
X22683482Y-45086812D01*
X22803180Y-45050502D01*
X22913494Y-44991537D01*
X23010185Y-44912185D01*
X23089537Y-44815494D01*
X23148502Y-44705180D01*
X23184812Y-44585482D01*
X23197072Y-44461000D01*
X23197072Y-42711000D01*
X23184812Y-42586518D01*
X23148502Y-42466820D01*
X23089537Y-42356506D01*
X23040296Y-42296505D01*
X23625649Y-41711152D01*
X23620324Y-41765220D01*
X23624001Y-41802552D01*
X23624001Y-42143317D01*
X23554506Y-42180463D01*
X23457815Y-42259815D01*
X23378463Y-42356506D01*
X23319498Y-42466820D01*
X23283188Y-42586518D01*
X23270928Y-42711000D01*
X23270928Y-44461000D01*
X23283188Y-44585482D01*
X23319498Y-44705180D01*
X23378463Y-44815494D01*
X23457815Y-44912185D01*
X23554506Y-44991537D01*
X23664820Y-45050502D01*
X23784518Y-45086812D01*
X23909000Y-45099072D01*
X24859000Y-45099072D01*
X24983482Y-45086812D01*
X25103180Y-45050502D01*
X25213494Y-44991537D01*
X25310185Y-44912185D01*
X25389537Y-44815494D01*
X25448502Y-44705180D01*
X25484812Y-44585482D01*
X25497072Y-44461000D01*
X25570928Y-44461000D01*
X25583188Y-44585482D01*
X25619498Y-44705180D01*
X25678463Y-44815494D01*
X25757815Y-44912185D01*
X25854506Y-44991537D01*
X25964820Y-45050502D01*
X26084518Y-45086812D01*
X26209000Y-45099072D01*
X26398250Y-45096000D01*
X26557000Y-44937250D01*
X26557000Y-43713000D01*
X26811000Y-43713000D01*
X26811000Y-44937250D01*
X26969750Y-45096000D01*
X27159000Y-45099072D01*
X27283482Y-45086812D01*
X27403180Y-45050502D01*
X27513494Y-44991537D01*
X27610185Y-44912185D01*
X27689537Y-44815494D01*
X27748502Y-44705180D01*
X27784812Y-44585482D01*
X27797072Y-44461000D01*
X27794000Y-43871750D01*
X27635250Y-43713000D01*
X26811000Y-43713000D01*
X26557000Y-43713000D01*
X25732750Y-43713000D01*
X25574000Y-43871750D01*
X25570928Y-44461000D01*
X25497072Y-44461000D01*
X25497072Y-42711000D01*
X25570928Y-42711000D01*
X25574000Y-43300250D01*
X25732750Y-43459000D01*
X26557000Y-43459000D01*
X26557000Y-42234750D01*
X26811000Y-42234750D01*
X26811000Y-43459000D01*
X27635250Y-43459000D01*
X27794000Y-43300250D01*
X27797072Y-42711000D01*
X27784812Y-42586518D01*
X27748502Y-42466820D01*
X27689537Y-42356506D01*
X27610185Y-42259815D01*
X27513494Y-42180463D01*
X27403180Y-42121498D01*
X27283482Y-42085188D01*
X27159000Y-42072928D01*
X26969750Y-42076000D01*
X26811000Y-42234750D01*
X26557000Y-42234750D01*
X26398250Y-42076000D01*
X26209000Y-42072928D01*
X26084518Y-42085188D01*
X25964820Y-42121498D01*
X25854506Y-42180463D01*
X25757815Y-42259815D01*
X25678463Y-42356506D01*
X25619498Y-42466820D01*
X25583188Y-42586518D01*
X25570928Y-42711000D01*
X25497072Y-42711000D01*
X25484812Y-42586518D01*
X25448502Y-42466820D01*
X25389537Y-42356506D01*
X25310185Y-42259815D01*
X25213494Y-42180463D01*
X25144000Y-42143317D01*
X25144000Y-42080021D01*
X25316022Y-41908000D01*
X25362475Y-41908000D01*
X25465121Y-41976586D01*
X25635281Y-42047068D01*
X25815921Y-42083000D01*
X26000099Y-42083000D01*
X26180739Y-42047068D01*
X26350899Y-41976586D01*
X26504038Y-41874262D01*
X26634272Y-41744028D01*
X26736596Y-41590889D01*
X26807078Y-41420729D01*
X26843010Y-41240089D01*
X26843010Y-41055911D01*
X26807078Y-40875271D01*
X26736596Y-40705111D01*
X26634272Y-40551972D01*
X26504038Y-40421738D01*
X26350899Y-40319414D01*
X26180739Y-40248932D01*
X26000099Y-40213000D01*
X25815921Y-40213000D01*
X25635281Y-40248932D01*
X25465121Y-40319414D01*
X25362475Y-40388000D01*
X25038543Y-40388000D01*
X25001220Y-40384324D01*
X24963897Y-40388000D01*
X24963887Y-40388000D01*
X24947154Y-40389648D01*
X25805650Y-39531152D01*
X25926729Y-39507068D01*
X26096889Y-39436586D01*
X26250028Y-39334262D01*
X26380262Y-39204028D01*
X26482586Y-39050889D01*
X26553068Y-38880729D01*
X26577153Y-38759649D01*
X26768802Y-38568000D01*
X27079199Y-38568000D01*
X29847001Y-41335803D01*
X29847001Y-41890023D01*
X29801742Y-41945171D01*
X29728916Y-42081418D01*
X29684071Y-42229255D01*
X29668928Y-42383000D01*
X29668928Y-44133000D01*
X29684071Y-44286745D01*
X29728916Y-44434582D01*
X29801742Y-44570829D01*
X29899749Y-44690251D01*
X30019171Y-44788258D01*
X30155418Y-44861084D01*
X30303255Y-44905929D01*
X30457000Y-44921072D01*
X30757000Y-44921072D01*
X30910745Y-44905929D01*
X31058582Y-44861084D01*
X31194829Y-44788258D01*
X31242000Y-44749546D01*
X31289171Y-44788258D01*
X31425418Y-44861084D01*
X31573255Y-44905929D01*
X31727000Y-44921072D01*
X32027000Y-44921072D01*
X32180745Y-44905929D01*
X32328582Y-44861084D01*
X32464829Y-44788258D01*
X32512000Y-44749546D01*
X32559171Y-44788258D01*
X32695418Y-44861084D01*
X32843255Y-44905929D01*
X32997000Y-44921072D01*
X33297000Y-44921072D01*
X33450745Y-44905929D01*
X33598582Y-44861084D01*
X33732936Y-44789270D01*
X33762506Y-44813537D01*
X33872820Y-44872502D01*
X33992518Y-44908812D01*
X34117000Y-44921072D01*
X34131250Y-44918000D01*
X34290000Y-44759250D01*
X34290000Y-43385000D01*
X34270000Y-43385000D01*
X34270000Y-43131000D01*
X34290000Y-43131000D01*
X34290000Y-43111000D01*
X34544000Y-43111000D01*
X34544000Y-43131000D01*
X34564000Y-43131000D01*
X34564000Y-43385000D01*
X34544000Y-43385000D01*
X34544000Y-44759250D01*
X34702750Y-44918000D01*
X34717000Y-44921072D01*
X34841482Y-44908812D01*
X34961180Y-44872502D01*
X35071494Y-44813537D01*
X35101064Y-44789270D01*
X35235418Y-44861084D01*
X35383255Y-44905929D01*
X35537000Y-44921072D01*
X35837000Y-44921072D01*
X35990745Y-44905929D01*
X36138582Y-44861084D01*
X36274829Y-44788258D01*
X36322000Y-44749546D01*
X36369171Y-44788258D01*
X36403581Y-44806650D01*
X36416999Y-44823001D01*
X36446003Y-44846804D01*
X36718206Y-45119007D01*
X36742009Y-45148011D01*
X36857734Y-45242984D01*
X36975829Y-45306108D01*
X36989763Y-45313556D01*
X37133024Y-45357013D01*
X37282010Y-45371687D01*
X37319343Y-45368010D01*
X39806436Y-45368010D01*
X39843758Y-45371686D01*
X39881080Y-45368010D01*
X39881091Y-45368010D01*
X39992744Y-45357013D01*
X40007000Y-45352688D01*
X40007000Y-46113928D01*
X35684000Y-46113928D01*
X35559518Y-46126188D01*
X35439820Y-46162498D01*
X35329506Y-46221463D01*
X35232815Y-46300815D01*
X35153463Y-46397506D01*
X35094498Y-46507820D01*
X35058188Y-46627518D01*
X35045928Y-46752000D01*
X35045928Y-48752000D01*
X35058188Y-48876482D01*
X35094498Y-48996180D01*
X35153463Y-49106494D01*
X35232815Y-49203185D01*
X35329506Y-49282537D01*
X35439820Y-49341502D01*
X35559518Y-49377812D01*
X35684000Y-49390072D01*
X38356001Y-49390072D01*
X38356000Y-50616229D01*
X38238038Y-50713038D01*
X38127595Y-50847614D01*
X38045528Y-51001150D01*
X37994992Y-51167746D01*
X37977928Y-51341000D01*
X37977928Y-52291000D01*
X37994992Y-52464254D01*
X38045528Y-52630850D01*
X38127595Y-52784386D01*
X38238038Y-52918962D01*
X38372614Y-53029405D01*
X38526150Y-53111472D01*
X38692746Y-53162008D01*
X38866000Y-53179072D01*
X39366000Y-53179072D01*
X39539254Y-53162008D01*
X39705850Y-53111472D01*
X39859386Y-53029405D01*
X39993962Y-52918962D01*
X39999342Y-52912406D01*
X40064815Y-52992185D01*
X40161506Y-53071537D01*
X40271820Y-53130502D01*
X40391518Y-53166812D01*
X40516000Y-53179072D01*
X40730250Y-53176000D01*
X40889000Y-53017250D01*
X40889000Y-51943000D01*
X41143000Y-51943000D01*
X41143000Y-53017250D01*
X41301750Y-53176000D01*
X41516000Y-53179072D01*
X41640482Y-53166812D01*
X41760180Y-53130502D01*
X41870494Y-53071537D01*
X41967185Y-52992185D01*
X42046537Y-52895494D01*
X42105502Y-52785180D01*
X42141812Y-52665482D01*
X42154072Y-52541000D01*
X42615928Y-52541000D01*
X42628188Y-52665482D01*
X42664498Y-52785180D01*
X42723463Y-52895494D01*
X42802815Y-52992185D01*
X42899506Y-53071537D01*
X43009820Y-53130502D01*
X43129518Y-53166812D01*
X43254000Y-53179072D01*
X43468250Y-53176000D01*
X43627000Y-53017250D01*
X43627000Y-51943000D01*
X42777750Y-51943000D01*
X42619000Y-52101750D01*
X42615928Y-52541000D01*
X42154072Y-52541000D01*
X42151000Y-52101750D01*
X41992250Y-51943000D01*
X41143000Y-51943000D01*
X40889000Y-51943000D01*
X40869000Y-51943000D01*
X40869000Y-51689000D01*
X40889000Y-51689000D01*
X40889000Y-50614750D01*
X41143000Y-50614750D01*
X41143000Y-51689000D01*
X41992250Y-51689000D01*
X42151000Y-51530250D01*
X42154072Y-51091000D01*
X42615928Y-51091000D01*
X42619000Y-51530250D01*
X42777750Y-51689000D01*
X43627000Y-51689000D01*
X43627000Y-50614750D01*
X43468250Y-50456000D01*
X43254000Y-50452928D01*
X43129518Y-50465188D01*
X43009820Y-50501498D01*
X42899506Y-50560463D01*
X42802815Y-50639815D01*
X42723463Y-50736506D01*
X42664498Y-50846820D01*
X42628188Y-50966518D01*
X42615928Y-51091000D01*
X42154072Y-51091000D01*
X42141812Y-50966518D01*
X42105502Y-50846820D01*
X42046537Y-50736506D01*
X41967185Y-50639815D01*
X41870494Y-50560463D01*
X41760180Y-50501498D01*
X41640482Y-50465188D01*
X41516000Y-50452928D01*
X41301750Y-50456000D01*
X41143000Y-50614750D01*
X40889000Y-50614750D01*
X40730250Y-50456000D01*
X40516000Y-50452928D01*
X40391518Y-50465188D01*
X40271820Y-50501498D01*
X40161506Y-50560463D01*
X40064815Y-50639815D01*
X39999342Y-50719594D01*
X39993962Y-50713038D01*
X39876000Y-50616230D01*
X39876000Y-49390072D01*
X40184000Y-49390072D01*
X40308482Y-49377812D01*
X40428180Y-49341502D01*
X40538494Y-49282537D01*
X40635185Y-49203185D01*
X40714537Y-49106494D01*
X40773502Y-48996180D01*
X40809812Y-48876482D01*
X40822072Y-48752000D01*
X40822072Y-48377293D01*
X40926001Y-48292001D01*
X40949804Y-48262997D01*
X41277998Y-47934803D01*
X41307001Y-47911001D01*
X41401974Y-47795276D01*
X41472546Y-47663247D01*
X41516003Y-47519986D01*
X41527000Y-47408333D01*
X41527000Y-47408324D01*
X41530676Y-47371001D01*
X41527000Y-47333678D01*
X41527000Y-46919801D01*
X42870200Y-48263002D01*
X42893999Y-48292001D01*
X43009724Y-48386974D01*
X43141753Y-48457546D01*
X43285014Y-48501003D01*
X43396667Y-48512000D01*
X43396676Y-48512000D01*
X43433999Y-48515676D01*
X43471322Y-48512000D01*
X43545928Y-48512000D01*
X43545928Y-48752000D01*
X43558188Y-48876482D01*
X43594498Y-48996180D01*
X43653463Y-49106494D01*
X43732815Y-49203185D01*
X43829506Y-49282537D01*
X43939820Y-49341502D01*
X44059518Y-49377812D01*
X44184000Y-49390072D01*
X44894001Y-49390072D01*
X44894000Y-50616229D01*
X44776038Y-50713038D01*
X44770658Y-50719594D01*
X44705185Y-50639815D01*
X44608494Y-50560463D01*
X44498180Y-50501498D01*
X44378482Y-50465188D01*
X44254000Y-50452928D01*
X44039750Y-50456000D01*
X43881000Y-50614750D01*
X43881000Y-51689000D01*
X43901000Y-51689000D01*
X43901000Y-51943000D01*
X43881000Y-51943000D01*
X43881000Y-53017250D01*
X44039750Y-53176000D01*
X44254000Y-53179072D01*
X44378482Y-53166812D01*
X44498180Y-53130502D01*
X44608494Y-53071537D01*
X44705185Y-52992185D01*
X44770658Y-52912406D01*
X44776038Y-52918962D01*
X44910614Y-53029405D01*
X45064150Y-53111472D01*
X45230746Y-53162008D01*
X45404000Y-53179072D01*
X45904000Y-53179072D01*
X46077254Y-53162008D01*
X46243850Y-53111472D01*
X46397386Y-53029405D01*
X46531962Y-52918962D01*
X46642405Y-52784386D01*
X46724472Y-52630850D01*
X46775008Y-52464254D01*
X46792072Y-52291000D01*
X46792072Y-51341000D01*
X46775008Y-51167746D01*
X46724472Y-51001150D01*
X46642405Y-50847614D01*
X46531962Y-50713038D01*
X46414000Y-50616230D01*
X46414000Y-49390072D01*
X48684000Y-49390072D01*
X48808482Y-49377812D01*
X48928180Y-49341502D01*
X49038494Y-49282537D01*
X49135185Y-49203185D01*
X49214537Y-49106494D01*
X49273502Y-48996180D01*
X49309812Y-48876482D01*
X49322072Y-48752000D01*
X49322072Y-48536012D01*
X63145593Y-48536012D01*
X63268194Y-48823170D01*
X63595722Y-48986280D01*
X63948778Y-49082359D01*
X64313795Y-49107713D01*
X64676744Y-49061369D01*
X65023677Y-48945108D01*
X65251806Y-48823170D01*
X65374407Y-48536012D01*
X64260000Y-47421605D01*
X63145593Y-48536012D01*
X49322072Y-48536012D01*
X49322072Y-47242000D01*
X61684678Y-47242000D01*
X61722000Y-47245676D01*
X61759322Y-47242000D01*
X61759333Y-47242000D01*
X61870986Y-47231003D01*
X62014247Y-47187546D01*
X62146276Y-47116974D01*
X62262001Y-47022001D01*
X62285804Y-46992997D01*
X62446418Y-46832383D01*
X62419641Y-46930778D01*
X62394287Y-47295795D01*
X62440631Y-47658744D01*
X62556892Y-48005677D01*
X62678830Y-48233806D01*
X62965988Y-48356407D01*
X64080395Y-47242000D01*
X64066253Y-47227858D01*
X64245858Y-47048253D01*
X64260000Y-47062395D01*
X64274143Y-47048253D01*
X64453748Y-47227858D01*
X64439605Y-47242000D01*
X65554012Y-48356407D01*
X65841170Y-48233806D01*
X66004280Y-47906278D01*
X66100359Y-47553222D01*
X66125713Y-47188205D01*
X66118811Y-47134151D01*
X66239489Y-47214786D01*
X66650782Y-47385149D01*
X67087409Y-47472000D01*
X67427698Y-47472000D01*
X64167702Y-50731997D01*
X64167001Y-50731928D01*
X63641999Y-50731928D01*
X63468745Y-50748992D01*
X63302149Y-50799528D01*
X63148613Y-50881595D01*
X63014038Y-50992038D01*
X62992000Y-51018891D01*
X62969962Y-50992038D01*
X62835387Y-50881595D01*
X62681851Y-50799528D01*
X62515255Y-50748992D01*
X62342001Y-50731928D01*
X61816999Y-50731928D01*
X61643745Y-50748992D01*
X61477149Y-50799528D01*
X61323613Y-50881595D01*
X61189038Y-50992038D01*
X61078595Y-51126613D01*
X60996528Y-51280149D01*
X60987473Y-51310000D01*
X60766802Y-51310000D01*
X60359153Y-50902351D01*
X60335068Y-50781271D01*
X60264586Y-50611111D01*
X60162262Y-50457972D01*
X60032028Y-50327738D01*
X59878889Y-50225414D01*
X59708729Y-50154932D01*
X59528089Y-50119000D01*
X59343911Y-50119000D01*
X59163271Y-50154932D01*
X58993111Y-50225414D01*
X58839972Y-50327738D01*
X58709738Y-50457972D01*
X58607414Y-50611111D01*
X58536932Y-50781271D01*
X58501000Y-50961911D01*
X58501000Y-51146089D01*
X58536932Y-51326729D01*
X58607414Y-51496889D01*
X58709738Y-51650028D01*
X58839972Y-51780262D01*
X58993111Y-51882586D01*
X59163271Y-51953068D01*
X59284351Y-51977153D01*
X59888201Y-52581003D01*
X59911999Y-52610001D01*
X59940997Y-52633799D01*
X60027723Y-52704974D01*
X60095016Y-52740943D01*
X60159753Y-52775546D01*
X60303014Y-52819003D01*
X60414667Y-52830000D01*
X60414677Y-52830000D01*
X60452000Y-52833676D01*
X60489322Y-52830000D01*
X60987473Y-52830000D01*
X60996528Y-52859851D01*
X61078595Y-53013387D01*
X61189038Y-53147962D01*
X61323613Y-53258405D01*
X61477149Y-53340472D01*
X61643745Y-53391008D01*
X61816999Y-53408072D01*
X62342001Y-53408072D01*
X62515255Y-53391008D01*
X62681851Y-53340472D01*
X62835387Y-53258405D01*
X62969962Y-53147962D01*
X62992000Y-53121109D01*
X63014038Y-53147962D01*
X63148613Y-53258405D01*
X63302149Y-53340472D01*
X63468745Y-53391008D01*
X63641999Y-53408072D01*
X64167001Y-53408072D01*
X64340255Y-53391008D01*
X64506851Y-53340472D01*
X64660387Y-53258405D01*
X64794962Y-53147962D01*
X64905405Y-53013387D01*
X64987472Y-52859851D01*
X65038008Y-52693255D01*
X65055072Y-52520001D01*
X65055072Y-51994229D01*
X68514303Y-48534999D01*
X71901333Y-48534999D01*
X71493425Y-48942907D01*
X71140270Y-49471442D01*
X70897012Y-50058719D01*
X70773000Y-50682168D01*
X70773000Y-51317832D01*
X70897012Y-51941281D01*
X71140270Y-52528558D01*
X71493425Y-53057093D01*
X71942907Y-53506575D01*
X72404499Y-53815000D01*
X17595501Y-53815000D01*
X18057093Y-53506575D01*
X18506575Y-53057093D01*
X18859730Y-52528558D01*
X19102988Y-51941281D01*
X19227000Y-51317832D01*
X19227000Y-50761000D01*
X22120928Y-50761000D01*
X22133188Y-50885482D01*
X22169498Y-51005180D01*
X22228463Y-51115494D01*
X22307815Y-51212185D01*
X22404506Y-51291537D01*
X22514820Y-51350502D01*
X22634518Y-51386812D01*
X22759000Y-51399072D01*
X24098250Y-51396000D01*
X24257000Y-51237250D01*
X24257000Y-50013000D01*
X24511000Y-50013000D01*
X24511000Y-51237250D01*
X24669750Y-51396000D01*
X26009000Y-51399072D01*
X26133482Y-51386812D01*
X26253180Y-51350502D01*
X26363494Y-51291537D01*
X26460185Y-51212185D01*
X26539537Y-51115494D01*
X26598502Y-51005180D01*
X26634812Y-50885482D01*
X26647072Y-50761000D01*
X26644000Y-50171750D01*
X26485250Y-50013000D01*
X24511000Y-50013000D01*
X24257000Y-50013000D01*
X22282750Y-50013000D01*
X22124000Y-50171750D01*
X22120928Y-50761000D01*
X19227000Y-50761000D01*
X19227000Y-50682168D01*
X19102988Y-50058719D01*
X18859730Y-49471442D01*
X18552074Y-49011000D01*
X22120928Y-49011000D01*
X22124000Y-49600250D01*
X22282750Y-49759000D01*
X24257000Y-49759000D01*
X24257000Y-48534750D01*
X24511000Y-48534750D01*
X24511000Y-49759000D01*
X26485250Y-49759000D01*
X26644000Y-49600250D01*
X26647072Y-49011000D01*
X26634812Y-48886518D01*
X26598502Y-48766820D01*
X26539537Y-48656506D01*
X26460185Y-48559815D01*
X26363494Y-48480463D01*
X26253180Y-48421498D01*
X26133482Y-48385188D01*
X26009000Y-48372928D01*
X24669750Y-48376000D01*
X24511000Y-48534750D01*
X24257000Y-48534750D01*
X24098250Y-48376000D01*
X22759000Y-48372928D01*
X22634518Y-48385188D01*
X22514820Y-48421498D01*
X22404506Y-48480463D01*
X22307815Y-48559815D01*
X22228463Y-48656506D01*
X22169498Y-48766820D01*
X22133188Y-48886518D01*
X22120928Y-49011000D01*
X18552074Y-49011000D01*
X18506575Y-48942907D01*
X18057093Y-48493425D01*
X17528558Y-48140270D01*
X16941281Y-47897012D01*
X16317832Y-47773000D01*
X15682168Y-47773000D01*
X15058719Y-47897012D01*
X14471442Y-48140270D01*
X13942907Y-48493425D01*
X13493425Y-48942907D01*
X13185000Y-49404499D01*
X13185000Y-29595501D01*
X13493425Y-30057093D01*
X13942907Y-30506575D01*
X14471442Y-30859730D01*
X15058719Y-31102988D01*
X15682168Y-31227000D01*
X16317832Y-31227000D01*
X16941281Y-31102988D01*
X17528558Y-30859730D01*
X18057093Y-30506575D01*
X18506575Y-30057093D01*
X18859730Y-29528558D01*
X19102988Y-28941281D01*
X19227000Y-28317832D01*
X19227000Y-27682168D01*
X19102988Y-27058719D01*
X18859730Y-26471442D01*
X18506575Y-25942907D01*
X18057093Y-25493425D01*
X17528558Y-25140270D01*
X16941281Y-24897012D01*
X16317832Y-24773000D01*
X15682168Y-24773000D01*
X15058719Y-24897012D01*
X14471442Y-25140270D01*
X13942907Y-25493425D01*
X13493425Y-25942907D01*
X13351996Y-26154571D01*
X13362714Y-26119070D01*
X13574524Y-25720715D01*
X13859675Y-25371086D01*
X14207303Y-25083503D01*
X14604177Y-24868914D01*
X15035161Y-24735502D01*
X15515654Y-24685000D01*
X74466495Y-24685000D01*
X74949016Y-24732312D01*
G04 #@! TA.AperFunction,Conductor*
D21*
G36*
X74949016Y-24732312D02*
G01*
X75380930Y-24862714D01*
X75779285Y-25074524D01*
X76128914Y-25359675D01*
X76416497Y-25707303D01*
X76631086Y-26104177D01*
X76645547Y-26150894D01*
X76506575Y-25942907D01*
X76057093Y-25493425D01*
X75528558Y-25140270D01*
X74941281Y-24897012D01*
X74317832Y-24773000D01*
X73682168Y-24773000D01*
X73058719Y-24897012D01*
X72471442Y-25140270D01*
X71942907Y-25493425D01*
X71493425Y-25942907D01*
X71140270Y-26471442D01*
X70897012Y-27058719D01*
X70773000Y-27682168D01*
X70773000Y-28317832D01*
X70897012Y-28941281D01*
X71140270Y-29528558D01*
X71493425Y-30057093D01*
X71942907Y-30506575D01*
X72471442Y-30859730D01*
X73058719Y-31102988D01*
X73682168Y-31227000D01*
X74317832Y-31227000D01*
X74941281Y-31102988D01*
X75528558Y-30859730D01*
X76057093Y-30506575D01*
X76506575Y-30057093D01*
X76815000Y-29595501D01*
X76815001Y-41598278D01*
X76739750Y-41599500D01*
X76581000Y-41758250D01*
X76581000Y-42545000D01*
X76601000Y-42545000D01*
X76601000Y-42799000D01*
X76581000Y-42799000D01*
X76581000Y-42819000D01*
X76327000Y-42819000D01*
X76327000Y-42799000D01*
X75502750Y-42799000D01*
X75344000Y-42957750D01*
X75340928Y-43109500D01*
X75353188Y-43233982D01*
X75389498Y-43353680D01*
X75448463Y-43463994D01*
X75503100Y-43530570D01*
X75485329Y-43552225D01*
X75406150Y-43700358D01*
X75357392Y-43861092D01*
X75340928Y-44028250D01*
X75340928Y-44285270D01*
X73610000Y-46016199D01*
X73610000Y-45984112D01*
X73556199Y-45713635D01*
X73450664Y-45458851D01*
X73297451Y-45229552D01*
X73102448Y-45034549D01*
X72873149Y-44881336D01*
X72808406Y-44854518D01*
X72814072Y-44852478D01*
X72930760Y-44790106D01*
X72998102Y-44549707D01*
X72210000Y-43761605D01*
X71421898Y-44549707D01*
X71489240Y-44790106D01*
X71619336Y-44851312D01*
X71546851Y-44881336D01*
X71388167Y-44987365D01*
X70054701Y-43653899D01*
X70805064Y-43653899D01*
X70846086Y-43926607D01*
X70939522Y-44186072D01*
X71001894Y-44302760D01*
X71242293Y-44370102D01*
X72030395Y-43582000D01*
X72389605Y-43582000D01*
X73177707Y-44370102D01*
X73418106Y-44302760D01*
X73535506Y-44053220D01*
X73601967Y-43785573D01*
X73614936Y-43510101D01*
X73573914Y-43237393D01*
X73480478Y-42977928D01*
X73418106Y-42861240D01*
X73177707Y-42793898D01*
X72389605Y-43582000D01*
X72030395Y-43582000D01*
X71242293Y-42793898D01*
X71001894Y-42861240D01*
X70884494Y-43110780D01*
X70818033Y-43378427D01*
X70805064Y-43653899D01*
X70054701Y-43653899D01*
X69641000Y-43240199D01*
X69641000Y-42614293D01*
X71421898Y-42614293D01*
X72210000Y-43402395D01*
X72998102Y-42614293D01*
X72930760Y-42373894D01*
X72681220Y-42256494D01*
X72592648Y-42234500D01*
X75340928Y-42234500D01*
X75344000Y-42386250D01*
X75502750Y-42545000D01*
X76327000Y-42545000D01*
X76327000Y-41758250D01*
X76168250Y-41599500D01*
X75979000Y-41596428D01*
X75854518Y-41608688D01*
X75734820Y-41644998D01*
X75624506Y-41703963D01*
X75527815Y-41783315D01*
X75448463Y-41880006D01*
X75389498Y-41990320D01*
X75353188Y-42110018D01*
X75340928Y-42234500D01*
X72592648Y-42234500D01*
X72413573Y-42190033D01*
X72138101Y-42177064D01*
X71865393Y-42218086D01*
X71605928Y-42311522D01*
X71489240Y-42373894D01*
X71421898Y-42614293D01*
X69641000Y-42614293D01*
X69641000Y-42333030D01*
X69771462Y-42225962D01*
X69881905Y-42091387D01*
X69963972Y-41937851D01*
X70014508Y-41771255D01*
X70031572Y-41598001D01*
X70031572Y-40697999D01*
X70014508Y-40524745D01*
X69963972Y-40358149D01*
X69881905Y-40204613D01*
X69771462Y-40070038D01*
X69636887Y-39959595D01*
X69483351Y-39877528D01*
X69454494Y-39868774D01*
X69589887Y-39796405D01*
X69724462Y-39685962D01*
X69834905Y-39551387D01*
X69916972Y-39397851D01*
X69967508Y-39231255D01*
X69984572Y-39058001D01*
X69984572Y-38157999D01*
X69967508Y-37984745D01*
X69916972Y-37818149D01*
X69834905Y-37664613D01*
X69724462Y-37530038D01*
X69594000Y-37422970D01*
X69594000Y-36562801D01*
X69777094Y-36379707D01*
X71421898Y-36379707D01*
X71489240Y-36620106D01*
X71738780Y-36737506D01*
X72006427Y-36803967D01*
X72281899Y-36816936D01*
X72554607Y-36775914D01*
X72814072Y-36682478D01*
X72930760Y-36620106D01*
X72998102Y-36379707D01*
X72210000Y-35591605D01*
X71421898Y-36379707D01*
X69777094Y-36379707D01*
X70811593Y-35345208D01*
X70805064Y-35483899D01*
X70846086Y-35756607D01*
X70939522Y-36016072D01*
X71001894Y-36132760D01*
X71242293Y-36200102D01*
X72030395Y-35412000D01*
X72389605Y-35412000D01*
X73177707Y-36200102D01*
X73418106Y-36132760D01*
X73535506Y-35883220D01*
X73601967Y-35615573D01*
X73614936Y-35340101D01*
X73573914Y-35067393D01*
X73480478Y-34807928D01*
X73418106Y-34691240D01*
X73177707Y-34623898D01*
X72389605Y-35412000D01*
X72030395Y-35412000D01*
X72016253Y-35397858D01*
X72195858Y-35218253D01*
X72210000Y-35232395D01*
X72998102Y-34444293D01*
X72930760Y-34203894D01*
X72800664Y-34142688D01*
X72873149Y-34112664D01*
X73102448Y-33959451D01*
X73297451Y-33764448D01*
X73450664Y-33535149D01*
X73556199Y-33280365D01*
X73610000Y-33009888D01*
X73610000Y-32734112D01*
X73556199Y-32463635D01*
X73450664Y-32208851D01*
X73297451Y-31979552D01*
X73102448Y-31784549D01*
X72873149Y-31631336D01*
X72618365Y-31525801D01*
X72347888Y-31472000D01*
X72072112Y-31472000D01*
X71801635Y-31525801D01*
X71546851Y-31631336D01*
X71317552Y-31784549D01*
X71122549Y-31979552D01*
X70969336Y-32208851D01*
X70863801Y-32463635D01*
X70810000Y-32734112D01*
X70810000Y-33009888D01*
X70841077Y-33166122D01*
X69424578Y-34582620D01*
X69483149Y-34441218D01*
X69570000Y-34004591D01*
X69570000Y-33559409D01*
X69483149Y-33122782D01*
X69312786Y-32711489D01*
X69065456Y-32341334D01*
X68750666Y-32026544D01*
X68380511Y-31779214D01*
X67969218Y-31608851D01*
X67532591Y-31522000D01*
X67087409Y-31522000D01*
X66650782Y-31608851D01*
X66239489Y-31779214D01*
X66114275Y-31862880D01*
X66125713Y-31698205D01*
X66079369Y-31335256D01*
X65963108Y-30988323D01*
X65841170Y-30760194D01*
X65554012Y-30637593D01*
X64439605Y-31752000D01*
X64453748Y-31766143D01*
X64274143Y-31945748D01*
X64260000Y-31931605D01*
X63145593Y-33046012D01*
X63268194Y-33333170D01*
X63595722Y-33496280D01*
X63948778Y-33592359D01*
X64313795Y-33617713D01*
X64676744Y-33571369D01*
X65023677Y-33455108D01*
X65076347Y-33426955D01*
X65050000Y-33559409D01*
X65050000Y-34004591D01*
X65136851Y-34441218D01*
X65307214Y-34852511D01*
X65554544Y-35222666D01*
X65869334Y-35537456D01*
X66239489Y-35784786D01*
X66650782Y-35955149D01*
X67087409Y-36042000D01*
X67532591Y-36042000D01*
X67969218Y-35955149D01*
X68174150Y-35870263D01*
X68128454Y-35955754D01*
X68084998Y-36099015D01*
X68070324Y-36248000D01*
X68074001Y-36285332D01*
X68074001Y-37422970D01*
X67943538Y-37530038D01*
X67921500Y-37556891D01*
X67899462Y-37530038D01*
X67764887Y-37419595D01*
X67611351Y-37337528D01*
X67444755Y-37286992D01*
X67271501Y-37269928D01*
X66746499Y-37269928D01*
X66573245Y-37286992D01*
X66406649Y-37337528D01*
X66253113Y-37419595D01*
X66118538Y-37530038D01*
X66008095Y-37664613D01*
X65926028Y-37818149D01*
X65875492Y-37984745D01*
X65858428Y-38157999D01*
X65858428Y-38683770D01*
X62265896Y-42276303D01*
X62265813Y-42275886D01*
X62163444Y-42028746D01*
X62014828Y-41806325D01*
X61825675Y-41617172D01*
X61603254Y-41468556D01*
X61442574Y-41402000D01*
X61603254Y-41335444D01*
X61825675Y-41186828D01*
X62014828Y-40997675D01*
X62163444Y-40775254D01*
X62265813Y-40528114D01*
X62318000Y-40265751D01*
X62318000Y-39998249D01*
X62265813Y-39735886D01*
X62163444Y-39488746D01*
X62014828Y-39266325D01*
X61825675Y-39077172D01*
X61603254Y-38928556D01*
X61442574Y-38862000D01*
X61603254Y-38795444D01*
X61825675Y-38646828D01*
X62014828Y-38457675D01*
X62163444Y-38235254D01*
X62265813Y-37988114D01*
X62318000Y-37725751D01*
X62318000Y-37458249D01*
X62265813Y-37195886D01*
X62163444Y-36948746D01*
X62014828Y-36726325D01*
X61825675Y-36537172D01*
X61603254Y-36388556D01*
X61442574Y-36322000D01*
X61603254Y-36255444D01*
X61825675Y-36106828D01*
X62014828Y-35917675D01*
X62163444Y-35695254D01*
X62265813Y-35448114D01*
X62318000Y-35185751D01*
X62318000Y-34918249D01*
X62265813Y-34655886D01*
X62163444Y-34408746D01*
X62014828Y-34186325D01*
X61825675Y-33997172D01*
X61603254Y-33848556D01*
X61356114Y-33746187D01*
X61093751Y-33694000D01*
X60826249Y-33694000D01*
X60563886Y-33746187D01*
X60316746Y-33848556D01*
X60094325Y-33997172D01*
X59905172Y-34186325D01*
X59756556Y-34408746D01*
X59654187Y-34655886D01*
X59605240Y-34901962D01*
X56509073Y-31805795D01*
X62394287Y-31805795D01*
X62440631Y-32168744D01*
X62556892Y-32515677D01*
X62678830Y-32743806D01*
X62965988Y-32866407D01*
X64080395Y-31752000D01*
X62965988Y-30637593D01*
X62678830Y-30760194D01*
X62515720Y-31087722D01*
X62419641Y-31440778D01*
X62394287Y-31805795D01*
X56509073Y-31805795D01*
X54984269Y-30280992D01*
X54981946Y-30278161D01*
X55043475Y-30216632D01*
X55160000Y-30042240D01*
X55276525Y-30216632D01*
X55483368Y-30423475D01*
X55726589Y-30585990D01*
X55996842Y-30697932D01*
X56283740Y-30755000D01*
X56576260Y-30755000D01*
X56863158Y-30697932D01*
X57133411Y-30585990D01*
X57376632Y-30423475D01*
X57583475Y-30216632D01*
X57700000Y-30042240D01*
X57816525Y-30216632D01*
X58023368Y-30423475D01*
X58266589Y-30585990D01*
X58536842Y-30697932D01*
X58823740Y-30755000D01*
X59116260Y-30755000D01*
X59403158Y-30697932D01*
X59673411Y-30585990D01*
X59916632Y-30423475D01*
X60123475Y-30216632D01*
X60240000Y-30042240D01*
X60356525Y-30216632D01*
X60563368Y-30423475D01*
X60806589Y-30585990D01*
X61076842Y-30697932D01*
X61363740Y-30755000D01*
X61656260Y-30755000D01*
X61943158Y-30697932D01*
X62213411Y-30585990D01*
X62456632Y-30423475D01*
X62663475Y-30216632D01*
X62780000Y-30042240D01*
X62896525Y-30216632D01*
X63103368Y-30423475D01*
X63147685Y-30453087D01*
X63145593Y-30457988D01*
X64260000Y-31572395D01*
X65374407Y-30457988D01*
X65251806Y-30170830D01*
X65238505Y-30164206D01*
X65320000Y-30042240D01*
X65436525Y-30216632D01*
X65643368Y-30423475D01*
X65886589Y-30585990D01*
X66156842Y-30697932D01*
X66443740Y-30755000D01*
X66736260Y-30755000D01*
X67023158Y-30697932D01*
X67293411Y-30585990D01*
X67536632Y-30423475D01*
X67743475Y-30216632D01*
X67860000Y-30042240D01*
X67976525Y-30216632D01*
X68183368Y-30423475D01*
X68426589Y-30585990D01*
X68696842Y-30697932D01*
X68983740Y-30755000D01*
X69276260Y-30755000D01*
X69563158Y-30697932D01*
X69833411Y-30585990D01*
X70076632Y-30423475D01*
X70283475Y-30216632D01*
X70445990Y-29973411D01*
X70557932Y-29703158D01*
X70615000Y-29416260D01*
X70615000Y-29123740D01*
X70557932Y-28836842D01*
X70445990Y-28566589D01*
X70283475Y-28323368D01*
X70076632Y-28116525D01*
X69902240Y-28000000D01*
X70076632Y-27883475D01*
X70283475Y-27676632D01*
X70445990Y-27433411D01*
X70557932Y-27163158D01*
X70615000Y-26876260D01*
X70615000Y-26583740D01*
X70557932Y-26296842D01*
X70445990Y-26026589D01*
X70283475Y-25783368D01*
X70076632Y-25576525D01*
X69833411Y-25414010D01*
X69563158Y-25302068D01*
X69276260Y-25245000D01*
X68983740Y-25245000D01*
X68696842Y-25302068D01*
X68426589Y-25414010D01*
X68183368Y-25576525D01*
X67976525Y-25783368D01*
X67860000Y-25957760D01*
X67743475Y-25783368D01*
X67536632Y-25576525D01*
X67293411Y-25414010D01*
X67023158Y-25302068D01*
X66736260Y-25245000D01*
X66443740Y-25245000D01*
X66156842Y-25302068D01*
X65886589Y-25414010D01*
X65643368Y-25576525D01*
X65436525Y-25783368D01*
X65320000Y-25957760D01*
X65203475Y-25783368D01*
X64996632Y-25576525D01*
X64753411Y-25414010D01*
X64483158Y-25302068D01*
X64196260Y-25245000D01*
X63903740Y-25245000D01*
X63616842Y-25302068D01*
X63346589Y-25414010D01*
X63103368Y-25576525D01*
X62896525Y-25783368D01*
X62780000Y-25957760D01*
X62663475Y-25783368D01*
X62456632Y-25576525D01*
X62213411Y-25414010D01*
X61943158Y-25302068D01*
X61656260Y-25245000D01*
X61363740Y-25245000D01*
X61076842Y-25302068D01*
X60806589Y-25414010D01*
X60563368Y-25576525D01*
X60356525Y-25783368D01*
X60240000Y-25957760D01*
X60123475Y-25783368D01*
X59916632Y-25576525D01*
X59673411Y-25414010D01*
X59403158Y-25302068D01*
X59116260Y-25245000D01*
X58823740Y-25245000D01*
X58536842Y-25302068D01*
X58266589Y-25414010D01*
X58023368Y-25576525D01*
X57816525Y-25783368D01*
X57700000Y-25957760D01*
X57583475Y-25783368D01*
X57376632Y-25576525D01*
X57133411Y-25414010D01*
X56863158Y-25302068D01*
X56576260Y-25245000D01*
X56283740Y-25245000D01*
X55996842Y-25302068D01*
X55726589Y-25414010D01*
X55483368Y-25576525D01*
X55276525Y-25783368D01*
X55160000Y-25957760D01*
X55043475Y-25783368D01*
X54836632Y-25576525D01*
X54593411Y-25414010D01*
X54323158Y-25302068D01*
X54036260Y-25245000D01*
X53743740Y-25245000D01*
X53456842Y-25302068D01*
X53186589Y-25414010D01*
X52943368Y-25576525D01*
X52736525Y-25783368D01*
X52620000Y-25957760D01*
X52503475Y-25783368D01*
X52296632Y-25576525D01*
X52053411Y-25414010D01*
X51783158Y-25302068D01*
X51496260Y-25245000D01*
X51203740Y-25245000D01*
X50916842Y-25302068D01*
X50646589Y-25414010D01*
X50403368Y-25576525D01*
X50196525Y-25783368D01*
X50080000Y-25957760D01*
X49963475Y-25783368D01*
X49756632Y-25576525D01*
X49513411Y-25414010D01*
X49243158Y-25302068D01*
X48956260Y-25245000D01*
X48663740Y-25245000D01*
X48376842Y-25302068D01*
X48106589Y-25414010D01*
X47863368Y-25576525D01*
X47656525Y-25783368D01*
X47540000Y-25957760D01*
X47423475Y-25783368D01*
X47216632Y-25576525D01*
X46973411Y-25414010D01*
X46703158Y-25302068D01*
X46416260Y-25245000D01*
X46123740Y-25245000D01*
X45836842Y-25302068D01*
X45566589Y-25414010D01*
X45323368Y-25576525D01*
X45116525Y-25783368D01*
X45000000Y-25957760D01*
X44883475Y-25783368D01*
X44676632Y-25576525D01*
X44433411Y-25414010D01*
X44163158Y-25302068D01*
X43876260Y-25245000D01*
X43583740Y-25245000D01*
X43296842Y-25302068D01*
X43026589Y-25414010D01*
X42783368Y-25576525D01*
X42576525Y-25783368D01*
X42460000Y-25957760D01*
X42343475Y-25783368D01*
X42136632Y-25576525D01*
X41893411Y-25414010D01*
X41623158Y-25302068D01*
X41336260Y-25245000D01*
X41043740Y-25245000D01*
X40756842Y-25302068D01*
X40486589Y-25414010D01*
X40243368Y-25576525D01*
X40036525Y-25783368D01*
X39920000Y-25957760D01*
X39803475Y-25783368D01*
X39596632Y-25576525D01*
X39353411Y-25414010D01*
X39083158Y-25302068D01*
X38796260Y-25245000D01*
X38503740Y-25245000D01*
X38216842Y-25302068D01*
X37946589Y-25414010D01*
X37703368Y-25576525D01*
X37496525Y-25783368D01*
X37380000Y-25957760D01*
X37263475Y-25783368D01*
X37056632Y-25576525D01*
X36813411Y-25414010D01*
X36543158Y-25302068D01*
X36256260Y-25245000D01*
X35963740Y-25245000D01*
X35676842Y-25302068D01*
X35406589Y-25414010D01*
X35163368Y-25576525D01*
X34956525Y-25783368D01*
X34840000Y-25957760D01*
X34723475Y-25783368D01*
X34516632Y-25576525D01*
X34273411Y-25414010D01*
X34003158Y-25302068D01*
X33716260Y-25245000D01*
X33423740Y-25245000D01*
X33136842Y-25302068D01*
X32866589Y-25414010D01*
X32623368Y-25576525D01*
X32416525Y-25783368D01*
X32300000Y-25957760D01*
X32183475Y-25783368D01*
X31976632Y-25576525D01*
X31733411Y-25414010D01*
X31463158Y-25302068D01*
X31176260Y-25245000D01*
X30883740Y-25245000D01*
X30596842Y-25302068D01*
X30326589Y-25414010D01*
X30083368Y-25576525D01*
X29876525Y-25783368D01*
X29760000Y-25957760D01*
X29643475Y-25783368D01*
X29436632Y-25576525D01*
X29193411Y-25414010D01*
X28923158Y-25302068D01*
X28636260Y-25245000D01*
X28343740Y-25245000D01*
X28056842Y-25302068D01*
X27786589Y-25414010D01*
X27543368Y-25576525D01*
X27336525Y-25783368D01*
X27220000Y-25957760D01*
X27103475Y-25783368D01*
X26896632Y-25576525D01*
X26653411Y-25414010D01*
X26383158Y-25302068D01*
X26096260Y-25245000D01*
X25803740Y-25245000D01*
X25516842Y-25302068D01*
X25246589Y-25414010D01*
X25003368Y-25576525D01*
X24796525Y-25783368D01*
X24680000Y-25957760D01*
X24563475Y-25783368D01*
X24356632Y-25576525D01*
X24113411Y-25414010D01*
X23843158Y-25302068D01*
X23556260Y-25245000D01*
X23263740Y-25245000D01*
X22976842Y-25302068D01*
X22706589Y-25414010D01*
X22463368Y-25576525D01*
X22256525Y-25783368D01*
X22140000Y-25957760D01*
X22023475Y-25783368D01*
X21816632Y-25576525D01*
X21573411Y-25414010D01*
X21303158Y-25302068D01*
X21016260Y-25245000D01*
X20723740Y-25245000D01*
X20436842Y-25302068D01*
X20166589Y-25414010D01*
X19923368Y-25576525D01*
X19716525Y-25783368D01*
X19554010Y-26026589D01*
X19442068Y-26296842D01*
X19385000Y-26583740D01*
X19385000Y-26876260D01*
X19442068Y-27163158D01*
X19554010Y-27433411D01*
X19716525Y-27676632D01*
X19848380Y-27808487D01*
X19775820Y-27830498D01*
X19665506Y-27889463D01*
X19568815Y-27968815D01*
X19489463Y-28065506D01*
X19430498Y-28175820D01*
X19394188Y-28295518D01*
X19381928Y-28420000D01*
X19381928Y-30120000D01*
X19394188Y-30244482D01*
X19430498Y-30364180D01*
X19489463Y-30474494D01*
X19568815Y-30571185D01*
X19665506Y-30650537D01*
X19775820Y-30709502D01*
X19895518Y-30745812D01*
X20020000Y-30758072D01*
X21720000Y-30758072D01*
X21844482Y-30745812D01*
X21964180Y-30709502D01*
X22074494Y-30650537D01*
X22171185Y-30571185D01*
X22250537Y-30474494D01*
X22309502Y-30364180D01*
X22331513Y-30291620D01*
X22463368Y-30423475D01*
X22706589Y-30585990D01*
X22976842Y-30697932D01*
X23263740Y-30755000D01*
X23556260Y-30755000D01*
X23843158Y-30697932D01*
X24113411Y-30585990D01*
X24356632Y-30423475D01*
X24563475Y-30216632D01*
X24680000Y-30042240D01*
X24796525Y-30216632D01*
X25003368Y-30423475D01*
X25246589Y-30585990D01*
X25516842Y-30697932D01*
X25803740Y-30755000D01*
X26096260Y-30755000D01*
X26383158Y-30697932D01*
X26653411Y-30585990D01*
X26896632Y-30423475D01*
X27103475Y-30216632D01*
X27220000Y-30042240D01*
X27336525Y-30216632D01*
X27543368Y-30423475D01*
X27786589Y-30585990D01*
X28056842Y-30697932D01*
X28343740Y-30755000D01*
X28636260Y-30755000D01*
X28923158Y-30697932D01*
X29193411Y-30585990D01*
X29436632Y-30423475D01*
X29643475Y-30216632D01*
X29765195Y-30034466D01*
X29834822Y-30151355D01*
X30029731Y-30367588D01*
X30263080Y-30541641D01*
X30525901Y-30666825D01*
X30673110Y-30711476D01*
X30903000Y-30590155D01*
X30903000Y-29397000D01*
X30883000Y-29397000D01*
X30883000Y-29143000D01*
X30903000Y-29143000D01*
X30903000Y-29123000D01*
X31157000Y-29123000D01*
X31157000Y-29143000D01*
X31177000Y-29143000D01*
X31177000Y-29397000D01*
X31157000Y-29397000D01*
X31157000Y-30590155D01*
X31386890Y-30711476D01*
X31534099Y-30666825D01*
X31796920Y-30541641D01*
X32030269Y-30367588D01*
X32225178Y-30151355D01*
X32294805Y-30034466D01*
X32416525Y-30216632D01*
X32623368Y-30423475D01*
X32866589Y-30585990D01*
X33066431Y-30668767D01*
X31365998Y-32369201D01*
X31337000Y-32392999D01*
X31323582Y-32409349D01*
X31289171Y-32427742D01*
X31242000Y-32466454D01*
X31194829Y-32427742D01*
X31058582Y-32354916D01*
X30910745Y-32310071D01*
X30757000Y-32294928D01*
X30457000Y-32294928D01*
X30303255Y-32310071D01*
X30155418Y-32354916D01*
X30019171Y-32427742D01*
X29899749Y-32525749D01*
X29801742Y-32645171D01*
X29728916Y-32781418D01*
X29684071Y-32929255D01*
X29668928Y-33083000D01*
X29668928Y-34833000D01*
X29684071Y-34986745D01*
X29728916Y-35134582D01*
X29801742Y-35270829D01*
X29847000Y-35325977D01*
X29847001Y-36665664D01*
X29843324Y-36702996D01*
X29857998Y-36851981D01*
X29901454Y-36995242D01*
X29972026Y-37127272D01*
X30040762Y-37211026D01*
X30067000Y-37242997D01*
X30095998Y-37266795D01*
X30318851Y-37489649D01*
X30342936Y-37610729D01*
X30413418Y-37780889D01*
X30515742Y-37934028D01*
X30645976Y-38064262D01*
X30799115Y-38166586D01*
X30969275Y-38237068D01*
X31149915Y-38273000D01*
X31334093Y-38273000D01*
X31514733Y-38237068D01*
X31684893Y-38166586D01*
X31838032Y-38064262D01*
X31968266Y-37934028D01*
X32070590Y-37780889D01*
X32141072Y-37610729D01*
X32177004Y-37430089D01*
X32177004Y-37245911D01*
X32141072Y-37065271D01*
X32070590Y-36895111D01*
X31968266Y-36741972D01*
X31838032Y-36611738D01*
X31684893Y-36509414D01*
X31514733Y-36438932D01*
X31393653Y-36414847D01*
X31367000Y-36388195D01*
X31367000Y-35529859D01*
X31425418Y-35561084D01*
X31573255Y-35605929D01*
X31727000Y-35621072D01*
X32027000Y-35621072D01*
X32180745Y-35605929D01*
X32328582Y-35561084D01*
X32464829Y-35488258D01*
X32512000Y-35449546D01*
X32559171Y-35488258D01*
X32695418Y-35561084D01*
X32843255Y-35605929D01*
X32997000Y-35621072D01*
X33297000Y-35621072D01*
X33450745Y-35605929D01*
X33598582Y-35561084D01*
X33732936Y-35489270D01*
X33762506Y-35513537D01*
X33872820Y-35572502D01*
X33992518Y-35608812D01*
X34117000Y-35621072D01*
X34131250Y-35618000D01*
X34290000Y-35459250D01*
X34290000Y-34085000D01*
X34270000Y-34085000D01*
X34270000Y-33831000D01*
X34290000Y-33831000D01*
X34290000Y-33811000D01*
X34544000Y-33811000D01*
X34544000Y-33831000D01*
X34564000Y-33831000D01*
X34564000Y-34085000D01*
X34544000Y-34085000D01*
X34544000Y-35459250D01*
X34702750Y-35618000D01*
X34717000Y-35621072D01*
X34735318Y-35619268D01*
X34731414Y-35625111D01*
X34660932Y-35795271D01*
X34625000Y-35975911D01*
X34625000Y-36160089D01*
X34660932Y-36340729D01*
X34731414Y-36510889D01*
X34833738Y-36664028D01*
X34963972Y-36794262D01*
X35117111Y-36896586D01*
X35287271Y-36967068D01*
X35467911Y-37003000D01*
X35652089Y-37003000D01*
X35832729Y-36967068D01*
X36002889Y-36896586D01*
X36156028Y-36794262D01*
X36286262Y-36664028D01*
X36388586Y-36510889D01*
X36459068Y-36340729D01*
X36495000Y-36160089D01*
X36495000Y-35975911D01*
X36459068Y-35795271D01*
X36447000Y-35766136D01*
X36447000Y-35529859D01*
X36505418Y-35561084D01*
X36653255Y-35605929D01*
X36807000Y-35621072D01*
X37107000Y-35621072D01*
X37260745Y-35605929D01*
X37408582Y-35561084D01*
X37544829Y-35488258D01*
X37592000Y-35449546D01*
X37639171Y-35488258D01*
X37775418Y-35561084D01*
X37923255Y-35605929D01*
X38077000Y-35621072D01*
X38377000Y-35621072D01*
X38530745Y-35605929D01*
X38678582Y-35561084D01*
X38814829Y-35488258D01*
X38862000Y-35449546D01*
X38909171Y-35488258D01*
X39045418Y-35561084D01*
X39193255Y-35605929D01*
X39347000Y-35621072D01*
X39647000Y-35621072D01*
X39800745Y-35605929D01*
X39948582Y-35561084D01*
X40084829Y-35488258D01*
X40132000Y-35449546D01*
X40179171Y-35488258D01*
X40315418Y-35561084D01*
X40463255Y-35605929D01*
X40617000Y-35621072D01*
X40917000Y-35621072D01*
X41070745Y-35605929D01*
X41218582Y-35561084D01*
X41354829Y-35488258D01*
X41402000Y-35449546D01*
X41449171Y-35488258D01*
X41585418Y-35561084D01*
X41733255Y-35605929D01*
X41887000Y-35621072D01*
X42187000Y-35621072D01*
X42340745Y-35605929D01*
X42488582Y-35561084D01*
X42624829Y-35488258D01*
X42672000Y-35449546D01*
X42719171Y-35488258D01*
X42855418Y-35561084D01*
X43003255Y-35605929D01*
X43157000Y-35621072D01*
X43457000Y-35621072D01*
X43610745Y-35605929D01*
X43758582Y-35561084D01*
X43894829Y-35488258D01*
X43942000Y-35449546D01*
X43989171Y-35488258D01*
X44125418Y-35561084D01*
X44273255Y-35605929D01*
X44427000Y-35621072D01*
X44727000Y-35621072D01*
X44880745Y-35605929D01*
X45028582Y-35561084D01*
X45162936Y-35489270D01*
X45192506Y-35513537D01*
X45302820Y-35572502D01*
X45422518Y-35608812D01*
X45547000Y-35621072D01*
X45561250Y-35618000D01*
X45720000Y-35459250D01*
X45720000Y-34085000D01*
X45700000Y-34085000D01*
X45700000Y-33831000D01*
X45720000Y-33831000D01*
X45720000Y-32456750D01*
X45561250Y-32298000D01*
X45547000Y-32294928D01*
X45422518Y-32307188D01*
X45324083Y-32337048D01*
X45349068Y-32276729D01*
X45385000Y-32096089D01*
X45385000Y-32002000D01*
X47183199Y-32002000D01*
X47521978Y-32340779D01*
X47420745Y-32310071D01*
X47267000Y-32294928D01*
X46967000Y-32294928D01*
X46813255Y-32310071D01*
X46665418Y-32354916D01*
X46531064Y-32426730D01*
X46501494Y-32402463D01*
X46391180Y-32343498D01*
X46271482Y-32307188D01*
X46147000Y-32294928D01*
X46132750Y-32298000D01*
X45974000Y-32456750D01*
X45974000Y-33831000D01*
X45994000Y-33831000D01*
X45994000Y-34085000D01*
X45974000Y-34085000D01*
X45974000Y-35459250D01*
X46132750Y-35618000D01*
X46147000Y-35621072D01*
X46271482Y-35608812D01*
X46391180Y-35572502D01*
X46449044Y-35541572D01*
X46482026Y-35603276D01*
X46553201Y-35690002D01*
X46577000Y-35719001D01*
X46605998Y-35742799D01*
X47590847Y-36727649D01*
X47614932Y-36848729D01*
X47685414Y-37018889D01*
X47787738Y-37172028D01*
X47917972Y-37302262D01*
X48071111Y-37404586D01*
X48241271Y-37475068D01*
X48421911Y-37511000D01*
X48585538Y-37511000D01*
X48560820Y-37518498D01*
X48450506Y-37577463D01*
X48353815Y-37656815D01*
X48274463Y-37753506D01*
X48215498Y-37863820D01*
X48179188Y-37983518D01*
X48166928Y-38108000D01*
X48170000Y-38322250D01*
X48328750Y-38481000D01*
X49403000Y-38481000D01*
X49403000Y-37631750D01*
X49657000Y-37631750D01*
X49657000Y-38481000D01*
X50731250Y-38481000D01*
X50890000Y-38322250D01*
X50893072Y-38108000D01*
X50880812Y-37983518D01*
X50844502Y-37863820D01*
X50785537Y-37753506D01*
X50706185Y-37656815D01*
X50609494Y-37577463D01*
X50499180Y-37518498D01*
X50379482Y-37482188D01*
X50255000Y-37469928D01*
X49815750Y-37473000D01*
X49657000Y-37631750D01*
X49403000Y-37631750D01*
X49244250Y-37473000D01*
X48805000Y-37469928D01*
X48797310Y-37470685D01*
X48956889Y-37404586D01*
X49110028Y-37302262D01*
X49240262Y-37172028D01*
X49342586Y-37018889D01*
X49413068Y-36848729D01*
X49449000Y-36668089D01*
X49449000Y-36483911D01*
X49413068Y-36303271D01*
X49342586Y-36133111D01*
X49240262Y-35979972D01*
X49110028Y-35849738D01*
X48956889Y-35747414D01*
X48786729Y-35676932D01*
X48665649Y-35652847D01*
X48030530Y-35017729D01*
X48039929Y-34986745D01*
X48055072Y-34833000D01*
X48055072Y-33083000D01*
X48039929Y-32929255D01*
X48009221Y-32828022D01*
X53538200Y-38357002D01*
X53561999Y-38386001D01*
X53677724Y-38480974D01*
X53809753Y-38551546D01*
X53953014Y-38595003D01*
X54064667Y-38606000D01*
X54064676Y-38606000D01*
X54101999Y-38609676D01*
X54139322Y-38606000D01*
X54549199Y-38606000D01*
X57086795Y-41143597D01*
X57062000Y-41268249D01*
X57062000Y-41535751D01*
X57114187Y-41798114D01*
X57216556Y-42045254D01*
X57365172Y-42267675D01*
X57554325Y-42456828D01*
X57776746Y-42605444D01*
X57938038Y-42672254D01*
X57830599Y-42711284D01*
X57724152Y-42768182D01*
X57661901Y-43004296D01*
X58420000Y-43762395D01*
X59178099Y-43004296D01*
X59115848Y-42768182D01*
X58906463Y-42670389D01*
X59063254Y-42605444D01*
X59285675Y-42456828D01*
X59474828Y-42267675D01*
X59623444Y-42045254D01*
X59725813Y-41798114D01*
X59778000Y-41535751D01*
X59778000Y-41268249D01*
X59725813Y-41005886D01*
X59623444Y-40758746D01*
X59474828Y-40536325D01*
X59285675Y-40347172D01*
X59063254Y-40198556D01*
X58902574Y-40132000D01*
X59063254Y-40065444D01*
X59285675Y-39916828D01*
X59474828Y-39727675D01*
X59623444Y-39505254D01*
X59725813Y-39258114D01*
X59778000Y-38995751D01*
X59778000Y-38728249D01*
X59725813Y-38465886D01*
X59623444Y-38218746D01*
X59474828Y-37996325D01*
X59285675Y-37807172D01*
X59063254Y-37658556D01*
X58902574Y-37592000D01*
X59063254Y-37525444D01*
X59285675Y-37376828D01*
X59474828Y-37187675D01*
X59581581Y-37027907D01*
X59682121Y-37128447D01*
X59654187Y-37195886D01*
X59602000Y-37458249D01*
X59602000Y-37725751D01*
X59654187Y-37988114D01*
X59756556Y-38235254D01*
X59905172Y-38457675D01*
X60094325Y-38646828D01*
X60316746Y-38795444D01*
X60477426Y-38862000D01*
X60316746Y-38928556D01*
X60094325Y-39077172D01*
X59905172Y-39266325D01*
X59756556Y-39488746D01*
X59654187Y-39735886D01*
X59602000Y-39998249D01*
X59602000Y-40265751D01*
X59654187Y-40528114D01*
X59756556Y-40775254D01*
X59905172Y-40997675D01*
X60094325Y-41186828D01*
X60316746Y-41335444D01*
X60477426Y-41402000D01*
X60316746Y-41468556D01*
X60094325Y-41617172D01*
X59905172Y-41806325D01*
X59756556Y-42028746D01*
X59654187Y-42275886D01*
X59602000Y-42538249D01*
X59602000Y-42805751D01*
X59654187Y-43068114D01*
X59756556Y-43315254D01*
X59905172Y-43537675D01*
X60094325Y-43726828D01*
X60316746Y-43875444D01*
X60563886Y-43977813D01*
X60564303Y-43977896D01*
X59582199Y-44960000D01*
X59156929Y-44960000D01*
X59178099Y-44879704D01*
X58420000Y-44121605D01*
X58405858Y-44135748D01*
X58226253Y-43956143D01*
X58240395Y-43942000D01*
X58599605Y-43942000D01*
X59357704Y-44700099D01*
X59593818Y-44637848D01*
X59707017Y-44395477D01*
X59770756Y-44135679D01*
X59782587Y-43868439D01*
X59742054Y-43604025D01*
X59650716Y-43352599D01*
X59593818Y-43246152D01*
X59357704Y-43183901D01*
X58599605Y-43942000D01*
X58240395Y-43942000D01*
X57482296Y-43183901D01*
X57246182Y-43246152D01*
X57132983Y-43488523D01*
X57069244Y-43748321D01*
X57057413Y-44015561D01*
X57066836Y-44077030D01*
X56956088Y-44055001D01*
X56771910Y-44055001D01*
X56591270Y-44090933D01*
X56421110Y-44161415D01*
X56318464Y-44230001D01*
X55211072Y-44230001D01*
X55211072Y-43880000D01*
X55194008Y-43706746D01*
X55143472Y-43540150D01*
X55061405Y-43386614D01*
X54950962Y-43252038D01*
X54944406Y-43246658D01*
X55024185Y-43181185D01*
X55103537Y-43084494D01*
X55162502Y-42974180D01*
X55198812Y-42854482D01*
X55211072Y-42730000D01*
X55208000Y-42515750D01*
X55049250Y-42357000D01*
X53975000Y-42357000D01*
X53975000Y-42377000D01*
X53721000Y-42377000D01*
X53721000Y-42357000D01*
X52646750Y-42357000D01*
X52488000Y-42515750D01*
X52484928Y-42730000D01*
X52497188Y-42854482D01*
X52533498Y-42974180D01*
X52592463Y-43084494D01*
X52671815Y-43181185D01*
X52751594Y-43246658D01*
X52745038Y-43252038D01*
X52648230Y-43370000D01*
X52318803Y-43370000D01*
X51492813Y-42544012D01*
X51492809Y-42544007D01*
X50678802Y-41730000D01*
X52484928Y-41730000D01*
X52488000Y-41944250D01*
X52646750Y-42103000D01*
X53721000Y-42103000D01*
X53721000Y-41253750D01*
X53975000Y-41253750D01*
X53975000Y-42103000D01*
X55049250Y-42103000D01*
X55208000Y-41944250D01*
X55211072Y-41730000D01*
X55198812Y-41605518D01*
X55162502Y-41485820D01*
X55103537Y-41375506D01*
X55024185Y-41278815D01*
X54927494Y-41199463D01*
X54817180Y-41140498D01*
X54697482Y-41104188D01*
X54573000Y-41091928D01*
X54133750Y-41095000D01*
X53975000Y-41253750D01*
X53721000Y-41253750D01*
X53562250Y-41095000D01*
X53123000Y-41091928D01*
X52998518Y-41104188D01*
X52878820Y-41140498D01*
X52768506Y-41199463D01*
X52671815Y-41278815D01*
X52592463Y-41375506D01*
X52533498Y-41485820D01*
X52497188Y-41605518D01*
X52484928Y-41730000D01*
X50678802Y-41730000D01*
X50463730Y-41514929D01*
X50498386Y-41496405D01*
X50632962Y-41385962D01*
X50743405Y-41251386D01*
X50825472Y-41097850D01*
X50876008Y-40931254D01*
X50893072Y-40758000D01*
X50893072Y-40258000D01*
X50876008Y-40084746D01*
X50825472Y-39918150D01*
X50743405Y-39764614D01*
X50632962Y-39630038D01*
X50626406Y-39624658D01*
X50706185Y-39559185D01*
X50785537Y-39462494D01*
X50844502Y-39352180D01*
X50880812Y-39232482D01*
X50893072Y-39108000D01*
X50890000Y-38893750D01*
X50731250Y-38735000D01*
X49657000Y-38735000D01*
X49657000Y-38755000D01*
X49403000Y-38755000D01*
X49403000Y-38735000D01*
X48328750Y-38735000D01*
X48170000Y-38893750D01*
X48166928Y-39108000D01*
X48179188Y-39232482D01*
X48215498Y-39352180D01*
X48274463Y-39462494D01*
X48353815Y-39559185D01*
X48433594Y-39624658D01*
X48427038Y-39630038D01*
X48316595Y-39764614D01*
X48234528Y-39918150D01*
X48183992Y-40084746D01*
X48166928Y-40258000D01*
X48166928Y-40758000D01*
X48180520Y-40896000D01*
X47535322Y-40896000D01*
X47497999Y-40892324D01*
X47460676Y-40896000D01*
X47460667Y-40896000D01*
X47349014Y-40906997D01*
X47205753Y-40950454D01*
X47073724Y-41021026D01*
X46957999Y-41115999D01*
X46934196Y-41145003D01*
X46922074Y-41157125D01*
X46829323Y-41147990D01*
X46829312Y-41147990D01*
X46791990Y-41144314D01*
X46754668Y-41147990D01*
X44267564Y-41147990D01*
X44230241Y-41144314D01*
X44192918Y-41147990D01*
X44192909Y-41147990D01*
X44081256Y-41158987D01*
X43937995Y-41202444D01*
X43805966Y-41273016D01*
X43690241Y-41367989D01*
X43666443Y-41396987D01*
X43606116Y-41457315D01*
X43545794Y-41396993D01*
X43521991Y-41367989D01*
X43406266Y-41273016D01*
X43274237Y-41202444D01*
X43130976Y-41158987D01*
X43019323Y-41147990D01*
X43019312Y-41147990D01*
X42981990Y-41144314D01*
X42944668Y-41147990D01*
X40457567Y-41147990D01*
X40420242Y-41144314D01*
X40382917Y-41147990D01*
X40382909Y-41147990D01*
X40271256Y-41158987D01*
X40127995Y-41202444D01*
X39995966Y-41273016D01*
X39880241Y-41367989D01*
X39856438Y-41396993D01*
X39611013Y-41642418D01*
X39582009Y-41666221D01*
X39529667Y-41730000D01*
X39487036Y-41781946D01*
X39431550Y-41885753D01*
X39416464Y-41913976D01*
X39373007Y-42057237D01*
X39370000Y-42087767D01*
X39370000Y-41756750D01*
X39211250Y-41598000D01*
X39197000Y-41594928D01*
X39072518Y-41607188D01*
X38952820Y-41643498D01*
X38862000Y-41692043D01*
X38771180Y-41643498D01*
X38651482Y-41607188D01*
X38527000Y-41594928D01*
X38512750Y-41598000D01*
X38354000Y-41756750D01*
X38354000Y-43131000D01*
X39362010Y-43131000D01*
X39362011Y-43385000D01*
X38354000Y-43385000D01*
X38354000Y-43405000D01*
X38100000Y-43405000D01*
X38100000Y-43385000D01*
X38080000Y-43385000D01*
X38080000Y-43131000D01*
X38100000Y-43131000D01*
X38100000Y-41756750D01*
X37941250Y-41598000D01*
X37927000Y-41594928D01*
X37802518Y-41607188D01*
X37682820Y-41643498D01*
X37624956Y-41674428D01*
X37591974Y-41612724D01*
X37497001Y-41496999D01*
X37468003Y-41473201D01*
X37256803Y-41262002D01*
X37233001Y-41232999D01*
X37117276Y-41138026D01*
X36985247Y-41067454D01*
X36918496Y-41047206D01*
X36918028Y-41046738D01*
X36764889Y-40944414D01*
X36594729Y-40873932D01*
X36414089Y-40838000D01*
X36229911Y-40838000D01*
X36049271Y-40873932D01*
X35879111Y-40944414D01*
X35725972Y-41046738D01*
X35595738Y-41176972D01*
X35493414Y-41330111D01*
X35422932Y-41500271D01*
X35401448Y-41608279D01*
X35383255Y-41610071D01*
X35235418Y-41654916D01*
X35101064Y-41726730D01*
X35071494Y-41702463D01*
X34961180Y-41643498D01*
X34841482Y-41607188D01*
X34717000Y-41594928D01*
X34702750Y-41598000D01*
X34544002Y-41756748D01*
X34544002Y-41641066D01*
X34632028Y-41582249D01*
X34762262Y-41452015D01*
X34864586Y-41298876D01*
X34935068Y-41128716D01*
X34971000Y-40948076D01*
X34971000Y-40763898D01*
X34935068Y-40583258D01*
X34864586Y-40413098D01*
X34762262Y-40259959D01*
X34632028Y-40129725D01*
X34478889Y-40027401D01*
X34308729Y-39956919D01*
X34128089Y-39920987D01*
X33943911Y-39920987D01*
X33763271Y-39956919D01*
X33593111Y-40027401D01*
X33490465Y-40095987D01*
X32633058Y-40095987D01*
X32595735Y-40092311D01*
X32558412Y-40095987D01*
X32558403Y-40095987D01*
X32446750Y-40106984D01*
X32303489Y-40150441D01*
X32171460Y-40221013D01*
X32055735Y-40315986D01*
X32031937Y-40344985D01*
X31369353Y-41007569D01*
X31367000Y-40983676D01*
X31367000Y-40983667D01*
X31356003Y-40872014D01*
X31312546Y-40728753D01*
X31241974Y-40596724D01*
X31147001Y-40480999D01*
X31118003Y-40457201D01*
X27957804Y-37297003D01*
X27934001Y-37267999D01*
X27818276Y-37173026D01*
X27686247Y-37102454D01*
X27542986Y-37058997D01*
X27431333Y-37048000D01*
X27431322Y-37048000D01*
X27394000Y-37044324D01*
X27356678Y-37048000D01*
X26491323Y-37048000D01*
X26454000Y-37044324D01*
X26416677Y-37048000D01*
X26416667Y-37048000D01*
X26305014Y-37058997D01*
X26161753Y-37102454D01*
X26029724Y-37173026D01*
X25913999Y-37267999D01*
X25890201Y-37296998D01*
X25502351Y-37684847D01*
X25381271Y-37708932D01*
X25211111Y-37779414D01*
X25057972Y-37881738D01*
X24927738Y-38011972D01*
X24825414Y-38165111D01*
X24754932Y-38335271D01*
X24730848Y-38456350D01*
X21572998Y-41614201D01*
X21544000Y-41637999D01*
X21520202Y-41666997D01*
X21520201Y-41666998D01*
X21449026Y-41753724D01*
X21378454Y-41885754D01*
X21361771Y-41940753D01*
X21334998Y-42029014D01*
X21327020Y-42110018D01*
X21323726Y-42143464D01*
X21254506Y-42180463D01*
X21157815Y-42259815D01*
X21078463Y-42356506D01*
X21019498Y-42466820D01*
X20983188Y-42586518D01*
X20970928Y-42711000D01*
X20970928Y-44461000D01*
X20983188Y-44585482D01*
X21019498Y-44705180D01*
X21078463Y-44815494D01*
X21157815Y-44912185D01*
X21254506Y-44991537D01*
X21364820Y-45050502D01*
X21484518Y-45086812D01*
X21609000Y-45099072D01*
X22559000Y-45099072D01*
X22683482Y-45086812D01*
X22803180Y-45050502D01*
X22913494Y-44991537D01*
X23010185Y-44912185D01*
X23089537Y-44815494D01*
X23148502Y-44705180D01*
X23184812Y-44585482D01*
X23197072Y-44461000D01*
X23197072Y-42711000D01*
X23184812Y-42586518D01*
X23148502Y-42466820D01*
X23089537Y-42356506D01*
X23040296Y-42296505D01*
X23625649Y-41711152D01*
X23620324Y-41765220D01*
X23624001Y-41802552D01*
X23624001Y-42143317D01*
X23554506Y-42180463D01*
X23457815Y-42259815D01*
X23378463Y-42356506D01*
X23319498Y-42466820D01*
X23283188Y-42586518D01*
X23270928Y-42711000D01*
X23270928Y-44461000D01*
X23283188Y-44585482D01*
X23319498Y-44705180D01*
X23378463Y-44815494D01*
X23457815Y-44912185D01*
X23554506Y-44991537D01*
X23664820Y-45050502D01*
X23784518Y-45086812D01*
X23909000Y-45099072D01*
X24859000Y-45099072D01*
X24983482Y-45086812D01*
X25103180Y-45050502D01*
X25213494Y-44991537D01*
X25310185Y-44912185D01*
X25389537Y-44815494D01*
X25448502Y-44705180D01*
X25484812Y-44585482D01*
X25497072Y-44461000D01*
X25570928Y-44461000D01*
X25583188Y-44585482D01*
X25619498Y-44705180D01*
X25678463Y-44815494D01*
X25757815Y-44912185D01*
X25854506Y-44991537D01*
X25964820Y-45050502D01*
X26084518Y-45086812D01*
X26209000Y-45099072D01*
X26398250Y-45096000D01*
X26557000Y-44937250D01*
X26557000Y-43713000D01*
X26811000Y-43713000D01*
X26811000Y-44937250D01*
X26969750Y-45096000D01*
X27159000Y-45099072D01*
X27283482Y-45086812D01*
X27403180Y-45050502D01*
X27513494Y-44991537D01*
X27610185Y-44912185D01*
X27689537Y-44815494D01*
X27748502Y-44705180D01*
X27784812Y-44585482D01*
X27797072Y-44461000D01*
X27794000Y-43871750D01*
X27635250Y-43713000D01*
X26811000Y-43713000D01*
X26557000Y-43713000D01*
X25732750Y-43713000D01*
X25574000Y-43871750D01*
X25570928Y-44461000D01*
X25497072Y-44461000D01*
X25497072Y-42711000D01*
X25570928Y-42711000D01*
X25574000Y-43300250D01*
X25732750Y-43459000D01*
X26557000Y-43459000D01*
X26557000Y-42234750D01*
X26811000Y-42234750D01*
X26811000Y-43459000D01*
X27635250Y-43459000D01*
X27794000Y-43300250D01*
X27797072Y-42711000D01*
X27784812Y-42586518D01*
X27748502Y-42466820D01*
X27689537Y-42356506D01*
X27610185Y-42259815D01*
X27513494Y-42180463D01*
X27403180Y-42121498D01*
X27283482Y-42085188D01*
X27159000Y-42072928D01*
X26969750Y-42076000D01*
X26811000Y-42234750D01*
X26557000Y-42234750D01*
X26398250Y-42076000D01*
X26209000Y-42072928D01*
X26084518Y-42085188D01*
X25964820Y-42121498D01*
X25854506Y-42180463D01*
X25757815Y-42259815D01*
X25678463Y-42356506D01*
X25619498Y-42466820D01*
X25583188Y-42586518D01*
X25570928Y-42711000D01*
X25497072Y-42711000D01*
X25484812Y-42586518D01*
X25448502Y-42466820D01*
X25389537Y-42356506D01*
X25310185Y-42259815D01*
X25213494Y-42180463D01*
X25144000Y-42143317D01*
X25144000Y-42080021D01*
X25316022Y-41908000D01*
X25362475Y-41908000D01*
X25465121Y-41976586D01*
X25635281Y-42047068D01*
X25815921Y-42083000D01*
X26000099Y-42083000D01*
X26180739Y-42047068D01*
X26350899Y-41976586D01*
X26504038Y-41874262D01*
X26634272Y-41744028D01*
X26736596Y-41590889D01*
X26807078Y-41420729D01*
X26843010Y-41240089D01*
X26843010Y-41055911D01*
X26807078Y-40875271D01*
X26736596Y-40705111D01*
X26634272Y-40551972D01*
X26504038Y-40421738D01*
X26350899Y-40319414D01*
X26180739Y-40248932D01*
X26000099Y-40213000D01*
X25815921Y-40213000D01*
X25635281Y-40248932D01*
X25465121Y-40319414D01*
X25362475Y-40388000D01*
X25038543Y-40388000D01*
X25001220Y-40384324D01*
X24963897Y-40388000D01*
X24963887Y-40388000D01*
X24947154Y-40389648D01*
X25805650Y-39531152D01*
X25926729Y-39507068D01*
X26096889Y-39436586D01*
X26250028Y-39334262D01*
X26380262Y-39204028D01*
X26482586Y-39050889D01*
X26553068Y-38880729D01*
X26577153Y-38759649D01*
X26768802Y-38568000D01*
X27079199Y-38568000D01*
X29847001Y-41335803D01*
X29847001Y-41890023D01*
X29801742Y-41945171D01*
X29728916Y-42081418D01*
X29684071Y-42229255D01*
X29668928Y-42383000D01*
X29668928Y-44133000D01*
X29684071Y-44286745D01*
X29728916Y-44434582D01*
X29801742Y-44570829D01*
X29899749Y-44690251D01*
X30019171Y-44788258D01*
X30155418Y-44861084D01*
X30303255Y-44905929D01*
X30457000Y-44921072D01*
X30757000Y-44921072D01*
X30910745Y-44905929D01*
X31058582Y-44861084D01*
X31194829Y-44788258D01*
X31242000Y-44749546D01*
X31289171Y-44788258D01*
X31425418Y-44861084D01*
X31573255Y-44905929D01*
X31727000Y-44921072D01*
X32027000Y-44921072D01*
X32180745Y-44905929D01*
X32328582Y-44861084D01*
X32464829Y-44788258D01*
X32512000Y-44749546D01*
X32559171Y-44788258D01*
X32695418Y-44861084D01*
X32843255Y-44905929D01*
X32997000Y-44921072D01*
X33297000Y-44921072D01*
X33450745Y-44905929D01*
X33598582Y-44861084D01*
X33732936Y-44789270D01*
X33762506Y-44813537D01*
X33872820Y-44872502D01*
X33992518Y-44908812D01*
X34117000Y-44921072D01*
X34131250Y-44918000D01*
X34290000Y-44759250D01*
X34290000Y-43385000D01*
X34270000Y-43385000D01*
X34270000Y-43131000D01*
X34290000Y-43131000D01*
X34290000Y-43111000D01*
X34544000Y-43111000D01*
X34544000Y-43131000D01*
X34564000Y-43131000D01*
X34564000Y-43385000D01*
X34544000Y-43385000D01*
X34544000Y-44759250D01*
X34702750Y-44918000D01*
X34717000Y-44921072D01*
X34841482Y-44908812D01*
X34961180Y-44872502D01*
X35071494Y-44813537D01*
X35101064Y-44789270D01*
X35235418Y-44861084D01*
X35383255Y-44905929D01*
X35537000Y-44921072D01*
X35837000Y-44921072D01*
X35990745Y-44905929D01*
X36138582Y-44861084D01*
X36274829Y-44788258D01*
X36322000Y-44749546D01*
X36369171Y-44788258D01*
X36403581Y-44806650D01*
X36416999Y-44823001D01*
X36446003Y-44846804D01*
X36718206Y-45119007D01*
X36742009Y-45148011D01*
X36857734Y-45242984D01*
X36975829Y-45306108D01*
X36989763Y-45313556D01*
X37133024Y-45357013D01*
X37282010Y-45371687D01*
X37319343Y-45368010D01*
X39806436Y-45368010D01*
X39843758Y-45371686D01*
X39881080Y-45368010D01*
X39881091Y-45368010D01*
X39992744Y-45357013D01*
X40007000Y-45352688D01*
X40007000Y-46113928D01*
X35684000Y-46113928D01*
X35559518Y-46126188D01*
X35439820Y-46162498D01*
X35329506Y-46221463D01*
X35232815Y-46300815D01*
X35153463Y-46397506D01*
X35094498Y-46507820D01*
X35058188Y-46627518D01*
X35045928Y-46752000D01*
X35045928Y-48752000D01*
X35058188Y-48876482D01*
X35094498Y-48996180D01*
X35153463Y-49106494D01*
X35232815Y-49203185D01*
X35329506Y-49282537D01*
X35439820Y-49341502D01*
X35559518Y-49377812D01*
X35684000Y-49390072D01*
X38356001Y-49390072D01*
X38356000Y-50616229D01*
X38238038Y-50713038D01*
X38127595Y-50847614D01*
X38045528Y-51001150D01*
X37994992Y-51167746D01*
X37977928Y-51341000D01*
X37977928Y-52291000D01*
X37994992Y-52464254D01*
X38045528Y-52630850D01*
X38127595Y-52784386D01*
X38238038Y-52918962D01*
X38372614Y-53029405D01*
X38526150Y-53111472D01*
X38692746Y-53162008D01*
X38866000Y-53179072D01*
X39366000Y-53179072D01*
X39539254Y-53162008D01*
X39705850Y-53111472D01*
X39859386Y-53029405D01*
X39993962Y-52918962D01*
X39999342Y-52912406D01*
X40064815Y-52992185D01*
X40161506Y-53071537D01*
X40271820Y-53130502D01*
X40391518Y-53166812D01*
X40516000Y-53179072D01*
X40730250Y-53176000D01*
X40889000Y-53017250D01*
X40889000Y-51943000D01*
X41143000Y-51943000D01*
X41143000Y-53017250D01*
X41301750Y-53176000D01*
X41516000Y-53179072D01*
X41640482Y-53166812D01*
X41760180Y-53130502D01*
X41870494Y-53071537D01*
X41967185Y-52992185D01*
X42046537Y-52895494D01*
X42105502Y-52785180D01*
X42141812Y-52665482D01*
X42154072Y-52541000D01*
X42615928Y-52541000D01*
X42628188Y-52665482D01*
X42664498Y-52785180D01*
X42723463Y-52895494D01*
X42802815Y-52992185D01*
X42899506Y-53071537D01*
X43009820Y-53130502D01*
X43129518Y-53166812D01*
X43254000Y-53179072D01*
X43468250Y-53176000D01*
X43627000Y-53017250D01*
X43627000Y-51943000D01*
X42777750Y-51943000D01*
X42619000Y-52101750D01*
X42615928Y-52541000D01*
X42154072Y-52541000D01*
X42151000Y-52101750D01*
X41992250Y-51943000D01*
X41143000Y-51943000D01*
X40889000Y-51943000D01*
X40869000Y-51943000D01*
X40869000Y-51689000D01*
X40889000Y-51689000D01*
X40889000Y-50614750D01*
X41143000Y-50614750D01*
X41143000Y-51689000D01*
X41992250Y-51689000D01*
X42151000Y-51530250D01*
X42154072Y-51091000D01*
X42615928Y-51091000D01*
X42619000Y-51530250D01*
X42777750Y-51689000D01*
X43627000Y-51689000D01*
X43627000Y-50614750D01*
X43468250Y-50456000D01*
X43254000Y-50452928D01*
X43129518Y-50465188D01*
X43009820Y-50501498D01*
X42899506Y-50560463D01*
X42802815Y-50639815D01*
X42723463Y-50736506D01*
X42664498Y-50846820D01*
X42628188Y-50966518D01*
X42615928Y-51091000D01*
X42154072Y-51091000D01*
X42141812Y-50966518D01*
X42105502Y-50846820D01*
X42046537Y-50736506D01*
X41967185Y-50639815D01*
X41870494Y-50560463D01*
X41760180Y-50501498D01*
X41640482Y-50465188D01*
X41516000Y-50452928D01*
X41301750Y-50456000D01*
X41143000Y-50614750D01*
X40889000Y-50614750D01*
X40730250Y-50456000D01*
X40516000Y-50452928D01*
X40391518Y-50465188D01*
X40271820Y-50501498D01*
X40161506Y-50560463D01*
X40064815Y-50639815D01*
X39999342Y-50719594D01*
X39993962Y-50713038D01*
X39876000Y-50616230D01*
X39876000Y-49390072D01*
X40184000Y-49390072D01*
X40308482Y-49377812D01*
X40428180Y-49341502D01*
X40538494Y-49282537D01*
X40635185Y-49203185D01*
X40714537Y-49106494D01*
X40773502Y-48996180D01*
X40809812Y-48876482D01*
X40822072Y-48752000D01*
X40822072Y-48377293D01*
X40926001Y-48292001D01*
X40949804Y-48262997D01*
X41277998Y-47934803D01*
X41307001Y-47911001D01*
X41401974Y-47795276D01*
X41472546Y-47663247D01*
X41516003Y-47519986D01*
X41527000Y-47408333D01*
X41527000Y-47408324D01*
X41530676Y-47371001D01*
X41527000Y-47333678D01*
X41527000Y-46919801D01*
X42870200Y-48263002D01*
X42893999Y-48292001D01*
X43009724Y-48386974D01*
X43141753Y-48457546D01*
X43285014Y-48501003D01*
X43396667Y-48512000D01*
X43396676Y-48512000D01*
X43433999Y-48515676D01*
X43471322Y-48512000D01*
X43545928Y-48512000D01*
X43545928Y-48752000D01*
X43558188Y-48876482D01*
X43594498Y-48996180D01*
X43653463Y-49106494D01*
X43732815Y-49203185D01*
X43829506Y-49282537D01*
X43939820Y-49341502D01*
X44059518Y-49377812D01*
X44184000Y-49390072D01*
X44894001Y-49390072D01*
X44894000Y-50616229D01*
X44776038Y-50713038D01*
X44770658Y-50719594D01*
X44705185Y-50639815D01*
X44608494Y-50560463D01*
X44498180Y-50501498D01*
X44378482Y-50465188D01*
X44254000Y-50452928D01*
X44039750Y-50456000D01*
X43881000Y-50614750D01*
X43881000Y-51689000D01*
X43901000Y-51689000D01*
X43901000Y-51943000D01*
X43881000Y-51943000D01*
X43881000Y-53017250D01*
X44039750Y-53176000D01*
X44254000Y-53179072D01*
X44378482Y-53166812D01*
X44498180Y-53130502D01*
X44608494Y-53071537D01*
X44705185Y-52992185D01*
X44770658Y-52912406D01*
X44776038Y-52918962D01*
X44910614Y-53029405D01*
X45064150Y-53111472D01*
X45230746Y-53162008D01*
X45404000Y-53179072D01*
X45904000Y-53179072D01*
X46077254Y-53162008D01*
X46243850Y-53111472D01*
X46397386Y-53029405D01*
X46531962Y-52918962D01*
X46642405Y-52784386D01*
X46724472Y-52630850D01*
X46775008Y-52464254D01*
X46792072Y-52291000D01*
X46792072Y-51341000D01*
X46775008Y-51167746D01*
X46724472Y-51001150D01*
X46642405Y-50847614D01*
X46531962Y-50713038D01*
X46414000Y-50616230D01*
X46414000Y-49390072D01*
X48684000Y-49390072D01*
X48808482Y-49377812D01*
X48928180Y-49341502D01*
X49038494Y-49282537D01*
X49135185Y-49203185D01*
X49214537Y-49106494D01*
X49273502Y-48996180D01*
X49309812Y-48876482D01*
X49322072Y-48752000D01*
X49322072Y-48536012D01*
X63145593Y-48536012D01*
X63268194Y-48823170D01*
X63595722Y-48986280D01*
X63948778Y-49082359D01*
X64313795Y-49107713D01*
X64676744Y-49061369D01*
X65023677Y-48945108D01*
X65251806Y-48823170D01*
X65374407Y-48536012D01*
X64260000Y-47421605D01*
X63145593Y-48536012D01*
X49322072Y-48536012D01*
X49322072Y-47242000D01*
X61684678Y-47242000D01*
X61722000Y-47245676D01*
X61759322Y-47242000D01*
X61759333Y-47242000D01*
X61870986Y-47231003D01*
X62014247Y-47187546D01*
X62146276Y-47116974D01*
X62262001Y-47022001D01*
X62285804Y-46992997D01*
X62446418Y-46832383D01*
X62419641Y-46930778D01*
X62394287Y-47295795D01*
X62440631Y-47658744D01*
X62556892Y-48005677D01*
X62678830Y-48233806D01*
X62965988Y-48356407D01*
X64080395Y-47242000D01*
X64066253Y-47227858D01*
X64245858Y-47048253D01*
X64260000Y-47062395D01*
X64274143Y-47048253D01*
X64453748Y-47227858D01*
X64439605Y-47242000D01*
X65554012Y-48356407D01*
X65841170Y-48233806D01*
X66004280Y-47906278D01*
X66100359Y-47553222D01*
X66125713Y-47188205D01*
X66118811Y-47134151D01*
X66239489Y-47214786D01*
X66650782Y-47385149D01*
X67087409Y-47472000D01*
X67427698Y-47472000D01*
X64167702Y-50731997D01*
X64167001Y-50731928D01*
X63641999Y-50731928D01*
X63468745Y-50748992D01*
X63302149Y-50799528D01*
X63148613Y-50881595D01*
X63014038Y-50992038D01*
X62992000Y-51018891D01*
X62969962Y-50992038D01*
X62835387Y-50881595D01*
X62681851Y-50799528D01*
X62515255Y-50748992D01*
X62342001Y-50731928D01*
X61816999Y-50731928D01*
X61643745Y-50748992D01*
X61477149Y-50799528D01*
X61323613Y-50881595D01*
X61189038Y-50992038D01*
X61078595Y-51126613D01*
X60996528Y-51280149D01*
X60987473Y-51310000D01*
X60766802Y-51310000D01*
X60359153Y-50902351D01*
X60335068Y-50781271D01*
X60264586Y-50611111D01*
X60162262Y-50457972D01*
X60032028Y-50327738D01*
X59878889Y-50225414D01*
X59708729Y-50154932D01*
X59528089Y-50119000D01*
X59343911Y-50119000D01*
X59163271Y-50154932D01*
X58993111Y-50225414D01*
X58839972Y-50327738D01*
X58709738Y-50457972D01*
X58607414Y-50611111D01*
X58536932Y-50781271D01*
X58501000Y-50961911D01*
X58501000Y-51146089D01*
X58536932Y-51326729D01*
X58607414Y-51496889D01*
X58709738Y-51650028D01*
X58839972Y-51780262D01*
X58993111Y-51882586D01*
X59163271Y-51953068D01*
X59284351Y-51977153D01*
X59888201Y-52581003D01*
X59911999Y-52610001D01*
X59940997Y-52633799D01*
X60027723Y-52704974D01*
X60095016Y-52740943D01*
X60159753Y-52775546D01*
X60303014Y-52819003D01*
X60414667Y-52830000D01*
X60414677Y-52830000D01*
X60452000Y-52833676D01*
X60489322Y-52830000D01*
X60987473Y-52830000D01*
X60996528Y-52859851D01*
X61078595Y-53013387D01*
X61189038Y-53147962D01*
X61323613Y-53258405D01*
X61477149Y-53340472D01*
X61643745Y-53391008D01*
X61816999Y-53408072D01*
X62342001Y-53408072D01*
X62515255Y-53391008D01*
X62681851Y-53340472D01*
X62835387Y-53258405D01*
X62969962Y-53147962D01*
X62992000Y-53121109D01*
X63014038Y-53147962D01*
X63148613Y-53258405D01*
X63302149Y-53340472D01*
X63468745Y-53391008D01*
X63641999Y-53408072D01*
X64167001Y-53408072D01*
X64340255Y-53391008D01*
X64506851Y-53340472D01*
X64660387Y-53258405D01*
X64794962Y-53147962D01*
X64905405Y-53013387D01*
X64987472Y-52859851D01*
X65038008Y-52693255D01*
X65055072Y-52520001D01*
X65055072Y-51994229D01*
X68514303Y-48534999D01*
X71901333Y-48534999D01*
X71493425Y-48942907D01*
X71140270Y-49471442D01*
X70897012Y-50058719D01*
X70773000Y-50682168D01*
X70773000Y-51317832D01*
X70897012Y-51941281D01*
X71140270Y-52528558D01*
X71493425Y-53057093D01*
X71942907Y-53506575D01*
X72404499Y-53815000D01*
X17595501Y-53815000D01*
X18057093Y-53506575D01*
X18506575Y-53057093D01*
X18859730Y-52528558D01*
X19102988Y-51941281D01*
X19227000Y-51317832D01*
X19227000Y-50761000D01*
X22120928Y-50761000D01*
X22133188Y-50885482D01*
X22169498Y-51005180D01*
X22228463Y-51115494D01*
X22307815Y-51212185D01*
X22404506Y-51291537D01*
X22514820Y-51350502D01*
X22634518Y-51386812D01*
X22759000Y-51399072D01*
X24098250Y-51396000D01*
X24257000Y-51237250D01*
X24257000Y-50013000D01*
X24511000Y-50013000D01*
X24511000Y-51237250D01*
X24669750Y-51396000D01*
X26009000Y-51399072D01*
X26133482Y-51386812D01*
X26253180Y-51350502D01*
X26363494Y-51291537D01*
X26460185Y-51212185D01*
X26539537Y-51115494D01*
X26598502Y-51005180D01*
X26634812Y-50885482D01*
X26647072Y-50761000D01*
X26644000Y-50171750D01*
X26485250Y-50013000D01*
X24511000Y-50013000D01*
X24257000Y-50013000D01*
X22282750Y-50013000D01*
X22124000Y-50171750D01*
X22120928Y-50761000D01*
X19227000Y-50761000D01*
X19227000Y-50682168D01*
X19102988Y-50058719D01*
X18859730Y-49471442D01*
X18552074Y-49011000D01*
X22120928Y-49011000D01*
X22124000Y-49600250D01*
X22282750Y-49759000D01*
X24257000Y-49759000D01*
X24257000Y-48534750D01*
X24511000Y-48534750D01*
X24511000Y-49759000D01*
X26485250Y-49759000D01*
X26644000Y-49600250D01*
X26647072Y-49011000D01*
X26634812Y-48886518D01*
X26598502Y-48766820D01*
X26539537Y-48656506D01*
X26460185Y-48559815D01*
X26363494Y-48480463D01*
X26253180Y-48421498D01*
X26133482Y-48385188D01*
X26009000Y-48372928D01*
X24669750Y-48376000D01*
X24511000Y-48534750D01*
X24257000Y-48534750D01*
X24098250Y-48376000D01*
X22759000Y-48372928D01*
X22634518Y-48385188D01*
X22514820Y-48421498D01*
X22404506Y-48480463D01*
X22307815Y-48559815D01*
X22228463Y-48656506D01*
X22169498Y-48766820D01*
X22133188Y-48886518D01*
X22120928Y-49011000D01*
X18552074Y-49011000D01*
X18506575Y-48942907D01*
X18057093Y-48493425D01*
X17528558Y-48140270D01*
X16941281Y-47897012D01*
X16317832Y-47773000D01*
X15682168Y-47773000D01*
X15058719Y-47897012D01*
X14471442Y-48140270D01*
X13942907Y-48493425D01*
X13493425Y-48942907D01*
X13185000Y-49404499D01*
X13185000Y-29595501D01*
X13493425Y-30057093D01*
X13942907Y-30506575D01*
X14471442Y-30859730D01*
X15058719Y-31102988D01*
X15682168Y-31227000D01*
X16317832Y-31227000D01*
X16941281Y-31102988D01*
X17528558Y-30859730D01*
X18057093Y-30506575D01*
X18506575Y-30057093D01*
X18859730Y-29528558D01*
X19102988Y-28941281D01*
X19227000Y-28317832D01*
X19227000Y-27682168D01*
X19102988Y-27058719D01*
X18859730Y-26471442D01*
X18506575Y-25942907D01*
X18057093Y-25493425D01*
X17528558Y-25140270D01*
X16941281Y-24897012D01*
X16317832Y-24773000D01*
X15682168Y-24773000D01*
X15058719Y-24897012D01*
X14471442Y-25140270D01*
X13942907Y-25493425D01*
X13493425Y-25942907D01*
X13351996Y-26154571D01*
X13362714Y-26119070D01*
X13574524Y-25720715D01*
X13859675Y-25371086D01*
X14207303Y-25083503D01*
X14604177Y-24868914D01*
X15035161Y-24735502D01*
X15515654Y-24685000D01*
X74466495Y-24685000D01*
X74949016Y-24732312D01*
G37*
G04 #@! TD.AperFunction*
M02*
