G04 #@! TF.GenerationSoftware,KiCad,Pcbnew,(5.1.9)-1*
G04 #@! TF.CreationDate,2021-08-26T16:24:34+03:00*
G04 #@! TF.ProjectId,RPi_EthShield,5250695f-4574-4685-9368-69656c642e6b,rev?*
G04 #@! TF.SameCoordinates,Original*
G04 #@! TF.FileFunction,Copper,L2,Bot*
G04 #@! TF.FilePolarity,Positive*
%FSLAX46Y46*%
G04 Gerber Fmt 4.6, Leading zero omitted, Abs format (unit mm)*
G04 Created by KiCad (PCBNEW (5.1.9)-1) date 2021-08-26 16:24:34*
%MOMM*%
%LPD*%
G01*
G04 APERTURE LIST*
G04 #@! TA.AperFunction,ComponentPad*
%ADD10C,1.446000*%
G04 #@! TD*
G04 #@! TA.AperFunction,ComponentPad*
%ADD11C,1.530000*%
G04 #@! TD*
G04 #@! TA.AperFunction,ComponentPad*
%ADD12C,2.445000*%
G04 #@! TD*
G04 #@! TA.AperFunction,SMDPad,CuDef*
%ADD13R,1.500000X2.000000*%
G04 #@! TD*
G04 #@! TA.AperFunction,SMDPad,CuDef*
%ADD14R,3.800000X2.000000*%
G04 #@! TD*
G04 #@! TA.AperFunction,ComponentPad*
%ADD15O,1.700000X1.700000*%
G04 #@! TD*
G04 #@! TA.AperFunction,ComponentPad*
%ADD16R,1.700000X1.700000*%
G04 #@! TD*
G04 #@! TA.AperFunction,ViaPad*
%ADD17C,0.600000*%
G04 #@! TD*
G04 #@! TA.AperFunction,Conductor*
%ADD18C,0.250000*%
G04 #@! TD*
G04 #@! TA.AperFunction,Conductor*
%ADD19C,0.500000*%
G04 #@! TD*
G04 #@! TA.AperFunction,Conductor*
%ADD20C,0.254000*%
G04 #@! TD*
G04 #@! TA.AperFunction,Conductor*
%ADD21C,0.100000*%
G04 #@! TD*
G04 APERTURE END LIST*
D10*
X60960000Y-35052000D03*
X58420000Y-36322000D03*
X60960000Y-37592000D03*
X58420000Y-38862000D03*
X60960000Y-40132000D03*
X58420000Y-41402000D03*
X60960000Y-42672000D03*
X58420000Y-43942000D03*
D11*
X72210000Y-32872000D03*
X72210000Y-35412000D03*
X72210000Y-43582000D03*
X72210000Y-46122000D03*
D12*
X64260000Y-31752000D03*
X64260000Y-47242000D03*
D13*
X16242000Y-39776000D03*
X20842000Y-39776000D03*
X18542000Y-39776000D03*
D14*
X18542000Y-46076000D03*
G04 #@! TA.AperFunction,SMDPad,CuDef*
G36*
G01*
X31754500Y-38411998D02*
X31754500Y-39312002D01*
G75*
G02*
X31504502Y-39562000I-249998J0D01*
G01*
X30979498Y-39562000D01*
G75*
G02*
X30729500Y-39312002I0J249998D01*
G01*
X30729500Y-38411998D01*
G75*
G02*
X30979498Y-38162000I249998J0D01*
G01*
X31504502Y-38162000D01*
G75*
G02*
X31754500Y-38411998I0J-249998D01*
G01*
G37*
G04 #@! TD.AperFunction*
G04 #@! TA.AperFunction,SMDPad,CuDef*
G36*
G01*
X33579500Y-38411998D02*
X33579500Y-39312002D01*
G75*
G02*
X33329502Y-39562000I-249998J0D01*
G01*
X32804498Y-39562000D01*
G75*
G02*
X32554500Y-39312002I0J249998D01*
G01*
X32554500Y-38411998D01*
G75*
G02*
X32804498Y-38162000I249998J0D01*
G01*
X33329502Y-38162000D01*
G75*
G02*
X33579500Y-38411998I0J-249998D01*
G01*
G37*
G04 #@! TD.AperFunction*
G04 #@! TA.AperFunction,SMDPad,CuDef*
G36*
G01*
X52237000Y-34078000D02*
X52237000Y-32978000D01*
G75*
G02*
X52487000Y-32728000I250000J0D01*
G01*
X54762000Y-32728000D01*
G75*
G02*
X55012000Y-32978000I0J-250000D01*
G01*
X55012000Y-34078000D01*
G75*
G02*
X54762000Y-34328000I-250000J0D01*
G01*
X52487000Y-34328000D01*
G75*
G02*
X52237000Y-34078000I0J250000D01*
G01*
G37*
G04 #@! TD.AperFunction*
G04 #@! TA.AperFunction,SMDPad,CuDef*
G36*
G01*
X48112000Y-34078000D02*
X48112000Y-32978000D01*
G75*
G02*
X48362000Y-32728000I250000J0D01*
G01*
X50637000Y-32728000D01*
G75*
G02*
X50887000Y-32978000I0J-250000D01*
G01*
X50887000Y-34078000D01*
G75*
G02*
X50637000Y-34328000I-250000J0D01*
G01*
X48362000Y-34328000D01*
G75*
G02*
X48112000Y-34078000I0J250000D01*
G01*
G37*
G04 #@! TD.AperFunction*
G04 #@! TA.AperFunction,SMDPad,CuDef*
G36*
G01*
X26204000Y-35870500D02*
X25104000Y-35870500D01*
G75*
G02*
X24854000Y-35620500I0J250000D01*
G01*
X24854000Y-33345500D01*
G75*
G02*
X25104000Y-33095500I250000J0D01*
G01*
X26204000Y-33095500D01*
G75*
G02*
X26454000Y-33345500I0J-250000D01*
G01*
X26454000Y-35620500D01*
G75*
G02*
X26204000Y-35870500I-250000J0D01*
G01*
G37*
G04 #@! TD.AperFunction*
G04 #@! TA.AperFunction,SMDPad,CuDef*
G36*
G01*
X26204000Y-39995500D02*
X25104000Y-39995500D01*
G75*
G02*
X24854000Y-39745500I0J250000D01*
G01*
X24854000Y-37470500D01*
G75*
G02*
X25104000Y-37220500I250000J0D01*
G01*
X26204000Y-37220500D01*
G75*
G02*
X26454000Y-37470500I0J-250000D01*
G01*
X26454000Y-39745500D01*
G75*
G02*
X26204000Y-39995500I-250000J0D01*
G01*
G37*
G04 #@! TD.AperFunction*
G04 #@! TA.AperFunction,SMDPad,CuDef*
G36*
G01*
X18739500Y-34840000D02*
X18739500Y-33740000D01*
G75*
G02*
X18989500Y-33490000I250000J0D01*
G01*
X21264500Y-33490000D01*
G75*
G02*
X21514500Y-33740000I0J-250000D01*
G01*
X21514500Y-34840000D01*
G75*
G02*
X21264500Y-35090000I-250000J0D01*
G01*
X18989500Y-35090000D01*
G75*
G02*
X18739500Y-34840000I0J250000D01*
G01*
G37*
G04 #@! TD.AperFunction*
G04 #@! TA.AperFunction,SMDPad,CuDef*
G36*
G01*
X14614500Y-34840000D02*
X14614500Y-33740000D01*
G75*
G02*
X14864500Y-33490000I250000J0D01*
G01*
X17139500Y-33490000D01*
G75*
G02*
X17389500Y-33740000I0J-250000D01*
G01*
X17389500Y-34840000D01*
G75*
G02*
X17139500Y-35090000I-250000J0D01*
G01*
X14864500Y-35090000D01*
G75*
G02*
X14614500Y-34840000I0J250000D01*
G01*
G37*
G04 #@! TD.AperFunction*
D15*
X69130000Y-26730000D03*
X69130000Y-29270000D03*
X66590000Y-26730000D03*
X66590000Y-29270000D03*
X64050000Y-26730000D03*
X64050000Y-29270000D03*
X61510000Y-26730000D03*
X61510000Y-29270000D03*
X58970000Y-26730000D03*
X58970000Y-29270000D03*
X56430000Y-26730000D03*
X56430000Y-29270000D03*
X53890000Y-26730000D03*
X53890000Y-29270000D03*
X51350000Y-26730000D03*
X51350000Y-29270000D03*
X48810000Y-26730000D03*
X48810000Y-29270000D03*
X46270000Y-26730000D03*
X46270000Y-29270000D03*
X43730000Y-26730000D03*
X43730000Y-29270000D03*
X41190000Y-26730000D03*
X41190000Y-29270000D03*
X38650000Y-26730000D03*
X38650000Y-29270000D03*
X36110000Y-26730000D03*
X36110000Y-29270000D03*
X33570000Y-26730000D03*
X33570000Y-29270000D03*
X31030000Y-26730000D03*
X31030000Y-29270000D03*
X28490000Y-26730000D03*
X28490000Y-29270000D03*
X25950000Y-26730000D03*
X25950000Y-29270000D03*
X23410000Y-26730000D03*
X23410000Y-29270000D03*
X20870000Y-26730000D03*
D16*
X20870000Y-29270000D03*
D17*
X35560000Y-36068000D03*
X25908010Y-41148000D03*
X33274018Y-41656000D03*
X34036000Y-40855987D03*
X25654000Y-38608000D03*
X59436000Y-51054000D03*
X56863999Y-44990001D03*
X36322000Y-41773000D03*
X33274006Y-37338000D03*
X16242000Y-39776000D03*
X52070000Y-37084000D03*
X37338000Y-32004000D03*
X38354000Y-32258000D03*
X44450000Y-32004000D03*
X41431648Y-32287648D03*
X39878000Y-32258000D03*
X31242004Y-37338000D03*
X48514000Y-36576000D03*
D18*
X35560000Y-36068000D02*
X30988010Y-36068000D01*
X30988010Y-36068000D02*
X25908010Y-41148000D01*
X33274000Y-41655982D02*
X33274018Y-41656000D01*
X33274000Y-40386000D02*
X33274000Y-41655982D01*
X33645001Y-40014999D02*
X33274000Y-40386000D01*
X52921959Y-40014999D02*
X33645001Y-40014999D01*
X57884958Y-35052000D02*
X60960000Y-35052000D01*
X52921959Y-40014999D02*
X57884958Y-35052000D01*
X53886013Y-40855987D02*
X58420000Y-36322000D01*
X34036000Y-40855987D02*
X53886013Y-40855987D01*
D19*
X24854000Y-37808000D02*
X25654000Y-38608000D01*
X20249998Y-37808000D02*
X24854000Y-37808000D01*
X18542000Y-39515998D02*
X20249998Y-37808000D01*
X18542000Y-39776000D02*
X18542000Y-39515998D01*
D18*
X56863999Y-48481999D02*
X59436000Y-51054000D01*
X57117999Y-40164001D02*
X58420000Y-38862000D01*
X56863999Y-40164001D02*
X57117999Y-40164001D01*
X59690000Y-38862000D02*
X60960000Y-40132000D01*
X58420000Y-38862000D02*
X59690000Y-38862000D01*
X56863999Y-44990001D02*
X56863999Y-48481999D01*
X56863999Y-40164001D02*
X56863999Y-44990001D01*
X35813999Y-42281001D02*
X36322000Y-41773000D01*
X26116009Y-42281001D02*
X35813999Y-42281001D01*
X24854000Y-41018992D02*
X26116009Y-42281001D01*
X24854000Y-39408000D02*
X24854000Y-41018992D01*
X25654000Y-38608000D02*
X24854000Y-39408000D01*
D19*
X26010000Y-34290000D02*
X31030000Y-29270000D01*
X20127000Y-34290000D02*
X26010000Y-34290000D01*
X16242000Y-38175000D02*
X20127000Y-34290000D01*
X16242000Y-39776000D02*
X16242000Y-38175000D01*
D18*
X33067000Y-38862000D02*
X33067000Y-37545006D01*
X33067000Y-37545006D02*
X33274006Y-37338000D01*
X53624500Y-35529500D02*
X52070000Y-37084000D01*
X53624500Y-33528000D02*
X53624500Y-35529500D01*
X71191001Y-36430999D02*
X72210000Y-35412000D01*
X66310997Y-36430999D02*
X71191001Y-36430999D01*
X64260000Y-34380002D02*
X66310997Y-36430999D01*
X64260000Y-31752000D02*
X64260000Y-34380002D01*
X72210000Y-35412000D02*
X72210000Y-43582000D01*
X64260000Y-44786999D02*
X64260000Y-47242000D01*
X65975998Y-43071001D02*
X64260000Y-44786999D01*
X71699001Y-43071001D02*
X65975998Y-43071001D01*
X72210000Y-43582000D02*
X71699001Y-43071001D01*
X59264999Y-44786999D02*
X58420000Y-43942000D01*
X64260000Y-44786999D02*
X59264999Y-44786999D01*
X47184989Y-25104989D02*
X48810000Y-26730000D01*
X42684588Y-25400000D02*
X42979599Y-25104989D01*
X39825001Y-25400000D02*
X42684588Y-25400000D01*
X39825001Y-30278999D02*
X39825001Y-25400000D01*
X39658999Y-30445001D02*
X39825001Y-30278999D01*
X42979599Y-25104989D02*
X47184989Y-25104989D01*
X38862000Y-30445001D02*
X39658999Y-30445001D01*
X38862000Y-30480000D02*
X38862000Y-30445001D01*
X37338000Y-32004000D02*
X38862000Y-30480000D01*
X47498000Y-27958000D02*
X48810000Y-29270000D01*
X47498000Y-26218998D02*
X47498000Y-27958000D01*
X43165998Y-25555000D02*
X46834002Y-25555000D01*
X42554999Y-26165999D02*
X43165998Y-25555000D01*
X42554999Y-29644003D02*
X42554999Y-26165999D01*
X41303990Y-30895012D02*
X42554999Y-29644003D01*
X46834002Y-25555000D02*
X47498000Y-26218998D01*
X39716988Y-30895012D02*
X41303990Y-30895012D01*
X38354000Y-32258000D02*
X39716988Y-30895012D01*
X46270000Y-27366410D02*
X46270000Y-26730000D01*
X47498000Y-28594410D02*
X46270000Y-27366410D01*
X47498000Y-29781002D02*
X47498000Y-28594410D01*
X45275002Y-32004000D02*
X47498000Y-29781002D01*
X44450000Y-32004000D02*
X45275002Y-32004000D01*
X43252352Y-32287648D02*
X46270000Y-29270000D01*
X41431648Y-32287648D02*
X43252352Y-32287648D01*
X43565412Y-29270000D02*
X43730000Y-29270000D01*
X40577412Y-32258000D02*
X43565412Y-29270000D01*
X39878000Y-32258000D02*
X40577412Y-32258000D01*
D19*
X23410000Y-26730000D02*
X20870000Y-26730000D01*
X20870000Y-26730000D02*
X19569999Y-28030001D01*
X19569999Y-30722001D02*
X19569999Y-28030001D01*
X16002000Y-34290000D02*
X19569999Y-30722001D01*
X19652001Y-41226001D02*
X20842000Y-40036002D01*
X15131999Y-41226001D02*
X19652001Y-41226001D01*
X20842000Y-40036002D02*
X20842000Y-39776000D01*
X15041999Y-41136001D02*
X15131999Y-41226001D01*
X15041999Y-35250001D02*
X15041999Y-41136001D01*
X16002000Y-34290000D02*
X15041999Y-35250001D01*
D18*
X31242000Y-38862000D02*
X31242000Y-37338004D01*
X31242000Y-37338004D02*
X31242004Y-37338000D01*
X49499500Y-35590500D02*
X49499500Y-33528000D01*
X48514000Y-36576000D02*
X49499500Y-35590500D01*
D20*
X74949016Y-24732312D02*
X75380930Y-24862714D01*
X75779285Y-25074524D01*
X76128914Y-25359675D01*
X76416497Y-25707303D01*
X76631086Y-26104177D01*
X76645547Y-26150894D01*
X76506575Y-25942907D01*
X76057093Y-25493425D01*
X75528558Y-25140270D01*
X74941281Y-24897012D01*
X74317832Y-24773000D01*
X73682168Y-24773000D01*
X73058719Y-24897012D01*
X72471442Y-25140270D01*
X71942907Y-25493425D01*
X71493425Y-25942907D01*
X71140270Y-26471442D01*
X70897012Y-27058719D01*
X70773000Y-27682168D01*
X70773000Y-28317832D01*
X70897012Y-28941281D01*
X71140270Y-29528558D01*
X71493425Y-30057093D01*
X71942907Y-30506575D01*
X72471442Y-30859730D01*
X73058719Y-31102988D01*
X73682168Y-31227000D01*
X74317832Y-31227000D01*
X74941281Y-31102988D01*
X75528558Y-30859730D01*
X76057093Y-30506575D01*
X76506575Y-30057093D01*
X76815000Y-29595501D01*
X76815001Y-49404500D01*
X76506575Y-48942907D01*
X76057093Y-48493425D01*
X75528558Y-48140270D01*
X74941281Y-47897012D01*
X74317832Y-47773000D01*
X73682168Y-47773000D01*
X73058719Y-47897012D01*
X72471442Y-48140270D01*
X71942907Y-48493425D01*
X71493425Y-48942907D01*
X71140270Y-49471442D01*
X70897012Y-50058719D01*
X70773000Y-50682168D01*
X70773000Y-51317832D01*
X70897012Y-51941281D01*
X71140270Y-52528558D01*
X71493425Y-53057093D01*
X71942907Y-53506575D01*
X72404499Y-53815000D01*
X17595501Y-53815000D01*
X18057093Y-53506575D01*
X18506575Y-53057093D01*
X18859730Y-52528558D01*
X19102988Y-51941281D01*
X19227000Y-51317832D01*
X19227000Y-50682168D01*
X19102988Y-50058719D01*
X18859730Y-49471442D01*
X18506575Y-48942907D01*
X18057093Y-48493425D01*
X17528558Y-48140270D01*
X16941281Y-47897012D01*
X16317832Y-47773000D01*
X15682168Y-47773000D01*
X15058719Y-47897012D01*
X14471442Y-48140270D01*
X13942907Y-48493425D01*
X13493425Y-48942907D01*
X13185000Y-49404499D01*
X13185000Y-45076000D01*
X16003928Y-45076000D01*
X16003928Y-47076000D01*
X16016188Y-47200482D01*
X16052498Y-47320180D01*
X16111463Y-47430494D01*
X16190815Y-47527185D01*
X16287506Y-47606537D01*
X16397820Y-47665502D01*
X16517518Y-47701812D01*
X16642000Y-47714072D01*
X20442000Y-47714072D01*
X20566482Y-47701812D01*
X20686180Y-47665502D01*
X20796494Y-47606537D01*
X20893185Y-47527185D01*
X20972537Y-47430494D01*
X21031502Y-47320180D01*
X21067812Y-47200482D01*
X21080072Y-47076000D01*
X21080072Y-45076000D01*
X21067812Y-44951518D01*
X21031502Y-44831820D01*
X20972537Y-44721506D01*
X20893185Y-44624815D01*
X20796494Y-44545463D01*
X20686180Y-44486498D01*
X20566482Y-44450188D01*
X20442000Y-44437928D01*
X16642000Y-44437928D01*
X16517518Y-44450188D01*
X16397820Y-44486498D01*
X16287506Y-44545463D01*
X16190815Y-44624815D01*
X16111463Y-44721506D01*
X16052498Y-44831820D01*
X16016188Y-44951518D01*
X16003928Y-45076000D01*
X13185000Y-45076000D01*
X13185000Y-29595501D01*
X13493425Y-30057093D01*
X13942907Y-30506575D01*
X14471442Y-30859730D01*
X15058719Y-31102988D01*
X15682168Y-31227000D01*
X16317832Y-31227000D01*
X16941281Y-31102988D01*
X17528558Y-30859730D01*
X18057093Y-30506575D01*
X18506575Y-30057093D01*
X18684999Y-29790061D01*
X18684999Y-30355422D01*
X16188494Y-32851928D01*
X14864500Y-32851928D01*
X14691246Y-32868992D01*
X14524650Y-32919528D01*
X14371114Y-33001595D01*
X14236538Y-33112038D01*
X14126095Y-33246614D01*
X14044028Y-33400150D01*
X13993492Y-33566746D01*
X13976428Y-33740000D01*
X13976428Y-34840000D01*
X13993492Y-35013254D01*
X14044028Y-35179850D01*
X14126095Y-35333386D01*
X14156999Y-35371043D01*
X14157000Y-41092522D01*
X14152718Y-41136001D01*
X14169804Y-41309491D01*
X14220411Y-41476314D01*
X14302589Y-41630060D01*
X14385467Y-41731047D01*
X14385470Y-41731050D01*
X14413183Y-41764818D01*
X14446951Y-41792531D01*
X14475465Y-41821045D01*
X14503182Y-41854818D01*
X14637940Y-41965412D01*
X14791686Y-42047590D01*
X14958509Y-42098196D01*
X15088522Y-42111001D01*
X15088532Y-42111001D01*
X15131998Y-42115282D01*
X15175464Y-42111001D01*
X19608532Y-42111001D01*
X19652001Y-42115282D01*
X19695470Y-42111001D01*
X19695478Y-42111001D01*
X19825491Y-42098196D01*
X19992314Y-42047590D01*
X20146060Y-41965412D01*
X20280818Y-41854818D01*
X20308535Y-41821045D01*
X20715508Y-41414072D01*
X21592000Y-41414072D01*
X21716482Y-41401812D01*
X21836180Y-41365502D01*
X21946494Y-41306537D01*
X22043185Y-41227185D01*
X22122537Y-41130494D01*
X22181502Y-41020180D01*
X22217812Y-40900482D01*
X22230072Y-40776000D01*
X22230072Y-38776000D01*
X22221897Y-38693000D01*
X24215928Y-38693000D01*
X24215928Y-38989520D01*
X24169077Y-39077172D01*
X24148454Y-39115754D01*
X24104997Y-39259015D01*
X24094000Y-39370668D01*
X24094000Y-39370678D01*
X24090324Y-39408000D01*
X24094000Y-39445323D01*
X24094001Y-40981660D01*
X24090324Y-41018992D01*
X24094001Y-41056325D01*
X24104998Y-41167978D01*
X24110716Y-41186828D01*
X24148454Y-41311238D01*
X24219026Y-41443268D01*
X24265808Y-41500271D01*
X24314000Y-41558993D01*
X24342998Y-41582791D01*
X25552210Y-42792004D01*
X25576008Y-42821002D01*
X25691733Y-42915975D01*
X25823762Y-42986547D01*
X25967023Y-43030004D01*
X26078676Y-43041001D01*
X26078685Y-43041001D01*
X26116008Y-43044677D01*
X26153331Y-43041001D01*
X35776677Y-43041001D01*
X35813999Y-43044677D01*
X35851321Y-43041001D01*
X35851332Y-43041001D01*
X35962985Y-43030004D01*
X36106246Y-42986547D01*
X36238275Y-42915975D01*
X36354000Y-42821002D01*
X36377803Y-42791998D01*
X36473648Y-42696153D01*
X36594729Y-42672068D01*
X36764889Y-42601586D01*
X36918028Y-42499262D01*
X37048262Y-42369028D01*
X37150586Y-42215889D01*
X37221068Y-42045729D01*
X37257000Y-41865089D01*
X37257000Y-41680911D01*
X37244086Y-41615987D01*
X53848691Y-41615987D01*
X53886013Y-41619663D01*
X53923335Y-41615987D01*
X53923346Y-41615987D01*
X54034999Y-41604990D01*
X54178260Y-41561533D01*
X54310289Y-41490961D01*
X54426014Y-41395988D01*
X54449817Y-41366984D01*
X57062000Y-38754802D01*
X57062000Y-38995751D01*
X57086795Y-39120403D01*
X56800634Y-39406565D01*
X56715013Y-39414998D01*
X56571752Y-39458455D01*
X56439723Y-39529027D01*
X56323998Y-39624000D01*
X56229025Y-39739725D01*
X56158453Y-39871754D01*
X56114996Y-40015015D01*
X56100322Y-40164001D01*
X56103999Y-40201334D01*
X56104000Y-44444464D01*
X56035413Y-44547112D01*
X55964931Y-44717272D01*
X55928999Y-44897912D01*
X55928999Y-45082090D01*
X55964931Y-45262730D01*
X56035413Y-45432890D01*
X56103999Y-45535537D01*
X56104000Y-48444667D01*
X56100323Y-48481999D01*
X56114997Y-48630984D01*
X56158453Y-48774245D01*
X56229025Y-48906275D01*
X56260895Y-48945108D01*
X56323999Y-49022000D01*
X56352997Y-49045798D01*
X58512847Y-51205649D01*
X58536932Y-51326729D01*
X58607414Y-51496889D01*
X58709738Y-51650028D01*
X58839972Y-51780262D01*
X58993111Y-51882586D01*
X59163271Y-51953068D01*
X59343911Y-51989000D01*
X59528089Y-51989000D01*
X59708729Y-51953068D01*
X59878889Y-51882586D01*
X60032028Y-51780262D01*
X60162262Y-51650028D01*
X60264586Y-51496889D01*
X60335068Y-51326729D01*
X60371000Y-51146089D01*
X60371000Y-50961911D01*
X60335068Y-50781271D01*
X60264586Y-50611111D01*
X60162262Y-50457972D01*
X60032028Y-50327738D01*
X59878889Y-50225414D01*
X59708729Y-50154932D01*
X59587649Y-50130847D01*
X57992814Y-48536012D01*
X63145593Y-48536012D01*
X63268194Y-48823170D01*
X63595722Y-48986280D01*
X63948778Y-49082359D01*
X64313795Y-49107713D01*
X64676744Y-49061369D01*
X65023677Y-48945108D01*
X65251806Y-48823170D01*
X65374407Y-48536012D01*
X64260000Y-47421605D01*
X63145593Y-48536012D01*
X57992814Y-48536012D01*
X57623999Y-48167198D01*
X57623999Y-47295795D01*
X62394287Y-47295795D01*
X62440631Y-47658744D01*
X62556892Y-48005677D01*
X62678830Y-48233806D01*
X62965988Y-48356407D01*
X64080395Y-47242000D01*
X62965988Y-46127593D01*
X62678830Y-46250194D01*
X62515720Y-46577722D01*
X62419641Y-46930778D01*
X62394287Y-47295795D01*
X57623999Y-47295795D01*
X57623999Y-45947988D01*
X63145593Y-45947988D01*
X64260000Y-47062395D01*
X64274143Y-47048253D01*
X64453748Y-47227858D01*
X64439605Y-47242000D01*
X65554012Y-48356407D01*
X65841170Y-48233806D01*
X66004280Y-47906278D01*
X66100359Y-47553222D01*
X66125713Y-47188205D01*
X66118811Y-47134151D01*
X66239489Y-47214786D01*
X66650782Y-47385149D01*
X67087409Y-47472000D01*
X67532591Y-47472000D01*
X67969218Y-47385149D01*
X68380511Y-47214786D01*
X68750666Y-46967456D01*
X69065456Y-46652666D01*
X69312786Y-46282511D01*
X69436386Y-45984112D01*
X70810000Y-45984112D01*
X70810000Y-46259888D01*
X70863801Y-46530365D01*
X70969336Y-46785149D01*
X71122549Y-47014448D01*
X71317552Y-47209451D01*
X71546851Y-47362664D01*
X71801635Y-47468199D01*
X72072112Y-47522000D01*
X72347888Y-47522000D01*
X72618365Y-47468199D01*
X72873149Y-47362664D01*
X73102448Y-47209451D01*
X73297451Y-47014448D01*
X73450664Y-46785149D01*
X73556199Y-46530365D01*
X73610000Y-46259888D01*
X73610000Y-45984112D01*
X73556199Y-45713635D01*
X73450664Y-45458851D01*
X73297451Y-45229552D01*
X73102448Y-45034549D01*
X72873149Y-44881336D01*
X72808406Y-44854518D01*
X72814072Y-44852478D01*
X72930760Y-44790106D01*
X72998102Y-44549707D01*
X72210000Y-43761605D01*
X71421898Y-44549707D01*
X71489240Y-44790106D01*
X71619336Y-44851312D01*
X71546851Y-44881336D01*
X71317552Y-45034549D01*
X71122549Y-45229552D01*
X70969336Y-45458851D01*
X70863801Y-45713635D01*
X70810000Y-45984112D01*
X69436386Y-45984112D01*
X69483149Y-45871218D01*
X69570000Y-45434591D01*
X69570000Y-44989409D01*
X69483149Y-44552782D01*
X69312786Y-44141489D01*
X69065456Y-43771334D01*
X68948021Y-43653899D01*
X70805064Y-43653899D01*
X70846086Y-43926607D01*
X70939522Y-44186072D01*
X71001894Y-44302760D01*
X71242293Y-44370102D01*
X72030395Y-43582000D01*
X72389605Y-43582000D01*
X73177707Y-44370102D01*
X73418106Y-44302760D01*
X73535506Y-44053220D01*
X73601967Y-43785573D01*
X73614936Y-43510101D01*
X73573914Y-43237393D01*
X73480478Y-42977928D01*
X73418106Y-42861240D01*
X73177707Y-42793898D01*
X72389605Y-43582000D01*
X72030395Y-43582000D01*
X71242293Y-42793898D01*
X71001894Y-42861240D01*
X70884494Y-43110780D01*
X70818033Y-43378427D01*
X70805064Y-43653899D01*
X68948021Y-43653899D01*
X68750666Y-43456544D01*
X68380511Y-43209214D01*
X67969218Y-43038851D01*
X67532591Y-42952000D01*
X67087409Y-42952000D01*
X66650782Y-43038851D01*
X66239489Y-43209214D01*
X65869334Y-43456544D01*
X65554544Y-43771334D01*
X65307214Y-44141489D01*
X65136851Y-44552782D01*
X65050000Y-44989409D01*
X65050000Y-45434591D01*
X65077761Y-45574155D01*
X64924278Y-45497720D01*
X64571222Y-45401641D01*
X64206205Y-45376287D01*
X63843256Y-45422631D01*
X63496323Y-45538892D01*
X63268194Y-45660830D01*
X63145593Y-45947988D01*
X57623999Y-45947988D01*
X57623999Y-45535536D01*
X57692585Y-45432890D01*
X57763067Y-45262730D01*
X57786498Y-45144937D01*
X57966523Y-45229017D01*
X58226321Y-45292756D01*
X58493561Y-45304587D01*
X58757975Y-45264054D01*
X59009401Y-45172716D01*
X59115848Y-45115818D01*
X59178099Y-44879704D01*
X58420000Y-44121605D01*
X58405858Y-44135748D01*
X58226253Y-43956143D01*
X58240395Y-43942000D01*
X58599605Y-43942000D01*
X59357704Y-44700099D01*
X59593818Y-44637848D01*
X59707017Y-44395477D01*
X59770756Y-44135679D01*
X59782587Y-43868439D01*
X59742054Y-43604025D01*
X59650716Y-43352599D01*
X59593818Y-43246152D01*
X59357704Y-43183901D01*
X58599605Y-43942000D01*
X58240395Y-43942000D01*
X58226253Y-43927858D01*
X58405858Y-43748253D01*
X58420000Y-43762395D01*
X59178099Y-43004296D01*
X59115848Y-42768182D01*
X58906463Y-42670389D01*
X59063254Y-42605444D01*
X59285675Y-42456828D01*
X59474828Y-42267675D01*
X59623444Y-42045254D01*
X59725813Y-41798114D01*
X59778000Y-41535751D01*
X59778000Y-41268249D01*
X59725813Y-41005886D01*
X59623444Y-40758746D01*
X59474828Y-40536325D01*
X59285675Y-40347172D01*
X59063254Y-40198556D01*
X58902574Y-40132000D01*
X59063254Y-40065444D01*
X59285675Y-39916828D01*
X59474828Y-39727675D01*
X59477250Y-39724051D01*
X59626795Y-39873596D01*
X59602000Y-39998249D01*
X59602000Y-40265751D01*
X59654187Y-40528114D01*
X59756556Y-40775254D01*
X59905172Y-40997675D01*
X60094325Y-41186828D01*
X60316746Y-41335444D01*
X60477426Y-41402000D01*
X60316746Y-41468556D01*
X60094325Y-41617172D01*
X59905172Y-41806325D01*
X59756556Y-42028746D01*
X59654187Y-42275886D01*
X59602000Y-42538249D01*
X59602000Y-42805751D01*
X59654187Y-43068114D01*
X59756556Y-43315254D01*
X59905172Y-43537675D01*
X60094325Y-43726828D01*
X60316746Y-43875444D01*
X60563886Y-43977813D01*
X60826249Y-44030000D01*
X61093751Y-44030000D01*
X61356114Y-43977813D01*
X61603254Y-43875444D01*
X61825675Y-43726828D01*
X62014828Y-43537675D01*
X62163444Y-43315254D01*
X62265813Y-43068114D01*
X62318000Y-42805751D01*
X62318000Y-42614293D01*
X71421898Y-42614293D01*
X72210000Y-43402395D01*
X72998102Y-42614293D01*
X72930760Y-42373894D01*
X72681220Y-42256494D01*
X72413573Y-42190033D01*
X72138101Y-42177064D01*
X71865393Y-42218086D01*
X71605928Y-42311522D01*
X71489240Y-42373894D01*
X71421898Y-42614293D01*
X62318000Y-42614293D01*
X62318000Y-42538249D01*
X62265813Y-42275886D01*
X62163444Y-42028746D01*
X62014828Y-41806325D01*
X61825675Y-41617172D01*
X61603254Y-41468556D01*
X61442574Y-41402000D01*
X61603254Y-41335444D01*
X61825675Y-41186828D01*
X62014828Y-40997675D01*
X62163444Y-40775254D01*
X62265813Y-40528114D01*
X62318000Y-40265751D01*
X62318000Y-39998249D01*
X62265813Y-39735886D01*
X62163444Y-39488746D01*
X62014828Y-39266325D01*
X61825675Y-39077172D01*
X61603254Y-38928556D01*
X61442574Y-38862000D01*
X61603254Y-38795444D01*
X61825675Y-38646828D01*
X62014828Y-38457675D01*
X62163444Y-38235254D01*
X62265813Y-37988114D01*
X62318000Y-37725751D01*
X62318000Y-37458249D01*
X62265813Y-37195886D01*
X62163444Y-36948746D01*
X62014828Y-36726325D01*
X61825675Y-36537172D01*
X61603254Y-36388556D01*
X61581891Y-36379707D01*
X71421898Y-36379707D01*
X71489240Y-36620106D01*
X71738780Y-36737506D01*
X72006427Y-36803967D01*
X72281899Y-36816936D01*
X72554607Y-36775914D01*
X72814072Y-36682478D01*
X72930760Y-36620106D01*
X72998102Y-36379707D01*
X72210000Y-35591605D01*
X71421898Y-36379707D01*
X61581891Y-36379707D01*
X61442574Y-36322000D01*
X61603254Y-36255444D01*
X61825675Y-36106828D01*
X62014828Y-35917675D01*
X62163444Y-35695254D01*
X62265813Y-35448114D01*
X62318000Y-35185751D01*
X62318000Y-34918249D01*
X62265813Y-34655886D01*
X62163444Y-34408746D01*
X62014828Y-34186325D01*
X61825675Y-33997172D01*
X61603254Y-33848556D01*
X61356114Y-33746187D01*
X61093751Y-33694000D01*
X60826249Y-33694000D01*
X60563886Y-33746187D01*
X60316746Y-33848556D01*
X60094325Y-33997172D01*
X59905172Y-34186325D01*
X59834563Y-34292000D01*
X57922280Y-34292000D01*
X57884957Y-34288324D01*
X57847634Y-34292000D01*
X57847625Y-34292000D01*
X57735972Y-34302997D01*
X57592711Y-34346454D01*
X57460682Y-34417026D01*
X57460680Y-34417027D01*
X57460681Y-34417027D01*
X57373954Y-34488201D01*
X57373950Y-34488205D01*
X57344957Y-34511999D01*
X57321163Y-34540992D01*
X52607158Y-39254999D01*
X34215295Y-39254999D01*
X34214500Y-39147750D01*
X34055750Y-38989000D01*
X33194000Y-38989000D01*
X33194000Y-39009000D01*
X32940000Y-39009000D01*
X32940000Y-38989000D01*
X32920000Y-38989000D01*
X32920000Y-38735000D01*
X32940000Y-38735000D01*
X32940000Y-37685750D01*
X33194000Y-37685750D01*
X33194000Y-38735000D01*
X34055750Y-38735000D01*
X34214500Y-38576250D01*
X34217572Y-38162000D01*
X34205312Y-38037518D01*
X34169002Y-37917820D01*
X34110037Y-37807506D01*
X34030685Y-37710815D01*
X33933994Y-37631463D01*
X33823680Y-37572498D01*
X33703982Y-37536188D01*
X33579500Y-37523928D01*
X33352750Y-37527000D01*
X33194000Y-37685750D01*
X32940000Y-37685750D01*
X32781250Y-37527000D01*
X32554500Y-37523928D01*
X32430018Y-37536188D01*
X32310320Y-37572498D01*
X32200006Y-37631463D01*
X32103315Y-37710815D01*
X32095845Y-37719917D01*
X32141072Y-37610729D01*
X32177004Y-37430089D01*
X32177004Y-37245911D01*
X32141072Y-37065271D01*
X32070590Y-36895111D01*
X32025748Y-36828000D01*
X35014465Y-36828000D01*
X35117111Y-36896586D01*
X35287271Y-36967068D01*
X35467911Y-37003000D01*
X35652089Y-37003000D01*
X35832729Y-36967068D01*
X36002889Y-36896586D01*
X36156028Y-36794262D01*
X36286262Y-36664028D01*
X36388586Y-36510889D01*
X36459068Y-36340729D01*
X36495000Y-36160089D01*
X36495000Y-35975911D01*
X36459068Y-35795271D01*
X36388586Y-35625111D01*
X36286262Y-35471972D01*
X36156028Y-35341738D01*
X36002889Y-35239414D01*
X35832729Y-35168932D01*
X35652089Y-35133000D01*
X35467911Y-35133000D01*
X35287271Y-35168932D01*
X35117111Y-35239414D01*
X35014465Y-35308000D01*
X31025333Y-35308000D01*
X30988010Y-35304324D01*
X30950687Y-35308000D01*
X30950677Y-35308000D01*
X30839024Y-35318997D01*
X30695763Y-35362454D01*
X30563733Y-35433026D01*
X30511032Y-35476277D01*
X30448009Y-35527999D01*
X30424211Y-35556997D01*
X27092072Y-38889137D01*
X27092072Y-37470500D01*
X27075008Y-37297246D01*
X27024472Y-37130650D01*
X26942405Y-36977114D01*
X26831962Y-36842538D01*
X26697386Y-36732095D01*
X26543850Y-36650028D01*
X26377254Y-36599492D01*
X26204000Y-36582428D01*
X25104000Y-36582428D01*
X24930746Y-36599492D01*
X24764150Y-36650028D01*
X24610614Y-36732095D01*
X24476038Y-36842538D01*
X24410005Y-36923000D01*
X20293467Y-36923000D01*
X20249998Y-36918719D01*
X20206529Y-36923000D01*
X20206521Y-36923000D01*
X20091304Y-36934348D01*
X20076507Y-36935805D01*
X20033848Y-36948746D01*
X19909685Y-36986411D01*
X19755939Y-37068589D01*
X19698168Y-37116001D01*
X19654951Y-37151468D01*
X19654949Y-37151470D01*
X19621181Y-37179183D01*
X19593468Y-37212951D01*
X18668492Y-38137928D01*
X17792000Y-38137928D01*
X17667518Y-38150188D01*
X17547820Y-38186498D01*
X17437506Y-38245463D01*
X17392000Y-38282809D01*
X17346494Y-38245463D01*
X17236180Y-38186498D01*
X17116482Y-38150188D01*
X16992000Y-38137928D01*
X16527750Y-38141000D01*
X16369000Y-38299750D01*
X16369000Y-39649000D01*
X16389000Y-39649000D01*
X16389000Y-39903000D01*
X16369000Y-39903000D01*
X16369000Y-39923000D01*
X16115000Y-39923000D01*
X16115000Y-39903000D01*
X16095000Y-39903000D01*
X16095000Y-39649000D01*
X16115000Y-39649000D01*
X16115000Y-38299750D01*
X15956250Y-38141000D01*
X15926999Y-38140806D01*
X15926999Y-35870500D01*
X24215928Y-35870500D01*
X24228188Y-35994982D01*
X24264498Y-36114680D01*
X24323463Y-36224994D01*
X24402815Y-36321685D01*
X24499506Y-36401037D01*
X24609820Y-36460002D01*
X24729518Y-36496312D01*
X24854000Y-36508572D01*
X25368250Y-36505500D01*
X25527000Y-36346750D01*
X25527000Y-34610000D01*
X25781000Y-34610000D01*
X25781000Y-36346750D01*
X25939750Y-36505500D01*
X26454000Y-36508572D01*
X26578482Y-36496312D01*
X26698180Y-36460002D01*
X26808494Y-36401037D01*
X26905185Y-36321685D01*
X26984537Y-36224994D01*
X27043502Y-36114680D01*
X27079812Y-35994982D01*
X27092072Y-35870500D01*
X27089000Y-34768750D01*
X26930250Y-34610000D01*
X25781000Y-34610000D01*
X25527000Y-34610000D01*
X24377750Y-34610000D01*
X24219000Y-34768750D01*
X24215928Y-35870500D01*
X15926999Y-35870500D01*
X15926999Y-35728072D01*
X17139500Y-35728072D01*
X17312754Y-35711008D01*
X17479350Y-35660472D01*
X17632886Y-35578405D01*
X17767462Y-35467962D01*
X17877905Y-35333386D01*
X17959972Y-35179850D01*
X17987227Y-35090000D01*
X18101428Y-35090000D01*
X18113688Y-35214482D01*
X18149998Y-35334180D01*
X18208963Y-35444494D01*
X18288315Y-35541185D01*
X18385006Y-35620537D01*
X18495320Y-35679502D01*
X18615018Y-35715812D01*
X18739500Y-35728072D01*
X19841250Y-35725000D01*
X20000000Y-35566250D01*
X20000000Y-34417000D01*
X20254000Y-34417000D01*
X20254000Y-35566250D01*
X20412750Y-35725000D01*
X21514500Y-35728072D01*
X21638982Y-35715812D01*
X21758680Y-35679502D01*
X21868994Y-35620537D01*
X21965685Y-35541185D01*
X22045037Y-35444494D01*
X22104002Y-35334180D01*
X22140312Y-35214482D01*
X22152572Y-35090000D01*
X22149500Y-34575750D01*
X21990750Y-34417000D01*
X20254000Y-34417000D01*
X20000000Y-34417000D01*
X18263250Y-34417000D01*
X18104500Y-34575750D01*
X18101428Y-35090000D01*
X17987227Y-35090000D01*
X18010508Y-35013254D01*
X18027572Y-34840000D01*
X18027572Y-33740000D01*
X18010508Y-33566746D01*
X18002670Y-33540908D01*
X18106655Y-33436923D01*
X18101428Y-33490000D01*
X18104500Y-34004250D01*
X18263250Y-34163000D01*
X20000000Y-34163000D01*
X20000000Y-33013750D01*
X20254000Y-33013750D01*
X20254000Y-34163000D01*
X21990750Y-34163000D01*
X22149500Y-34004250D01*
X22152572Y-33490000D01*
X22140312Y-33365518D01*
X22104002Y-33245820D01*
X22045037Y-33135506D01*
X22012206Y-33095500D01*
X24215928Y-33095500D01*
X24219000Y-34197250D01*
X24377750Y-34356000D01*
X25527000Y-34356000D01*
X25527000Y-32619250D01*
X25781000Y-32619250D01*
X25781000Y-34356000D01*
X26930250Y-34356000D01*
X27089000Y-34197250D01*
X27092072Y-33095500D01*
X27079812Y-32971018D01*
X27043502Y-32851320D01*
X26984537Y-32741006D01*
X26905185Y-32644315D01*
X26808494Y-32564963D01*
X26698180Y-32505998D01*
X26578482Y-32469688D01*
X26454000Y-32457428D01*
X25939750Y-32460500D01*
X25781000Y-32619250D01*
X25527000Y-32619250D01*
X25368250Y-32460500D01*
X24854000Y-32457428D01*
X24729518Y-32469688D01*
X24609820Y-32505998D01*
X24499506Y-32564963D01*
X24402815Y-32644315D01*
X24323463Y-32741006D01*
X24264498Y-32851320D01*
X24228188Y-32971018D01*
X24215928Y-33095500D01*
X22012206Y-33095500D01*
X21965685Y-33038815D01*
X21868994Y-32959463D01*
X21758680Y-32900498D01*
X21638982Y-32864188D01*
X21514500Y-32851928D01*
X20412750Y-32855000D01*
X20254000Y-33013750D01*
X20000000Y-33013750D01*
X19841250Y-32855000D01*
X18739500Y-32851928D01*
X18686423Y-32857155D01*
X20165049Y-31378530D01*
X20198816Y-31350818D01*
X20241791Y-31298454D01*
X20309410Y-31216060D01*
X20391588Y-31062315D01*
X20442194Y-30895491D01*
X20445716Y-30859730D01*
X20454999Y-30765478D01*
X20454999Y-30765470D01*
X20455728Y-30758072D01*
X21720000Y-30758072D01*
X21844482Y-30745812D01*
X21964180Y-30709502D01*
X22074494Y-30650537D01*
X22171185Y-30571185D01*
X22250537Y-30474494D01*
X22309502Y-30364180D01*
X22331513Y-30291620D01*
X22463368Y-30423475D01*
X22706589Y-30585990D01*
X22976842Y-30697932D01*
X23263740Y-30755000D01*
X23556260Y-30755000D01*
X23843158Y-30697932D01*
X24113411Y-30585990D01*
X24356632Y-30423475D01*
X24563475Y-30216632D01*
X24680000Y-30042240D01*
X24796525Y-30216632D01*
X25003368Y-30423475D01*
X25246589Y-30585990D01*
X25516842Y-30697932D01*
X25803740Y-30755000D01*
X26096260Y-30755000D01*
X26383158Y-30697932D01*
X26653411Y-30585990D01*
X26896632Y-30423475D01*
X27103475Y-30216632D01*
X27220000Y-30042240D01*
X27336525Y-30216632D01*
X27543368Y-30423475D01*
X27786589Y-30585990D01*
X28056842Y-30697932D01*
X28343740Y-30755000D01*
X28636260Y-30755000D01*
X28923158Y-30697932D01*
X29193411Y-30585990D01*
X29436632Y-30423475D01*
X29643475Y-30216632D01*
X29765195Y-30034466D01*
X29834822Y-30151355D01*
X30029731Y-30367588D01*
X30263080Y-30541641D01*
X30525901Y-30666825D01*
X30673110Y-30711476D01*
X30903000Y-30590155D01*
X30903000Y-29397000D01*
X30883000Y-29397000D01*
X30883000Y-29143000D01*
X30903000Y-29143000D01*
X30903000Y-29123000D01*
X31157000Y-29123000D01*
X31157000Y-29143000D01*
X31177000Y-29143000D01*
X31177000Y-29397000D01*
X31157000Y-29397000D01*
X31157000Y-30590155D01*
X31386890Y-30711476D01*
X31534099Y-30666825D01*
X31796920Y-30541641D01*
X32030269Y-30367588D01*
X32225178Y-30151355D01*
X32294805Y-30034466D01*
X32416525Y-30216632D01*
X32623368Y-30423475D01*
X32866589Y-30585990D01*
X33136842Y-30697932D01*
X33423740Y-30755000D01*
X33716260Y-30755000D01*
X34003158Y-30697932D01*
X34273411Y-30585990D01*
X34516632Y-30423475D01*
X34723475Y-30216632D01*
X34840000Y-30042240D01*
X34956525Y-30216632D01*
X35163368Y-30423475D01*
X35406589Y-30585990D01*
X35676842Y-30697932D01*
X35963740Y-30755000D01*
X36256260Y-30755000D01*
X36543158Y-30697932D01*
X36813411Y-30585990D01*
X37056632Y-30423475D01*
X37263475Y-30216632D01*
X37380000Y-30042240D01*
X37496525Y-30216632D01*
X37703368Y-30423475D01*
X37787505Y-30479693D01*
X37186351Y-31080847D01*
X37065271Y-31104932D01*
X36895111Y-31175414D01*
X36741972Y-31277738D01*
X36611738Y-31407972D01*
X36509414Y-31561111D01*
X36438932Y-31731271D01*
X36403000Y-31911911D01*
X36403000Y-32096089D01*
X36438932Y-32276729D01*
X36509414Y-32446889D01*
X36611738Y-32600028D01*
X36741972Y-32730262D01*
X36895111Y-32832586D01*
X37065271Y-32903068D01*
X37245911Y-32939000D01*
X37430089Y-32939000D01*
X37610729Y-32903068D01*
X37657433Y-32883723D01*
X37757972Y-32984262D01*
X37911111Y-33086586D01*
X38081271Y-33157068D01*
X38261911Y-33193000D01*
X38446089Y-33193000D01*
X38626729Y-33157068D01*
X38796889Y-33086586D01*
X38950028Y-32984262D01*
X39080262Y-32854028D01*
X39116000Y-32800542D01*
X39151738Y-32854028D01*
X39281972Y-32984262D01*
X39435111Y-33086586D01*
X39605271Y-33157068D01*
X39785911Y-33193000D01*
X39970089Y-33193000D01*
X40150729Y-33157068D01*
X40320889Y-33086586D01*
X40423535Y-33018000D01*
X40540090Y-33018000D01*
X40577412Y-33021676D01*
X40614734Y-33018000D01*
X40614745Y-33018000D01*
X40726398Y-33007003D01*
X40804900Y-32983190D01*
X40835620Y-33013910D01*
X40988759Y-33116234D01*
X41158919Y-33186716D01*
X41339559Y-33222648D01*
X41523737Y-33222648D01*
X41704377Y-33186716D01*
X41874537Y-33116234D01*
X41977183Y-33047648D01*
X43215030Y-33047648D01*
X43252352Y-33051324D01*
X43289674Y-33047648D01*
X43289685Y-33047648D01*
X43401338Y-33036651D01*
X43544599Y-32993194D01*
X43573024Y-32978000D01*
X47473928Y-32978000D01*
X47473928Y-34078000D01*
X47490992Y-34251254D01*
X47541528Y-34417850D01*
X47623595Y-34571386D01*
X47734038Y-34705962D01*
X47868614Y-34816405D01*
X48022150Y-34898472D01*
X48188746Y-34949008D01*
X48362000Y-34966072D01*
X48739500Y-34966072D01*
X48739500Y-35275697D01*
X48362351Y-35652847D01*
X48241271Y-35676932D01*
X48071111Y-35747414D01*
X47917972Y-35849738D01*
X47787738Y-35979972D01*
X47685414Y-36133111D01*
X47614932Y-36303271D01*
X47579000Y-36483911D01*
X47579000Y-36668089D01*
X47614932Y-36848729D01*
X47685414Y-37018889D01*
X47787738Y-37172028D01*
X47917972Y-37302262D01*
X48071111Y-37404586D01*
X48241271Y-37475068D01*
X48421911Y-37511000D01*
X48606089Y-37511000D01*
X48786729Y-37475068D01*
X48956889Y-37404586D01*
X49110028Y-37302262D01*
X49240262Y-37172028D01*
X49342586Y-37018889D01*
X49413068Y-36848729D01*
X49437153Y-36727649D01*
X50010509Y-36154294D01*
X50039501Y-36130501D01*
X50063295Y-36101508D01*
X50063299Y-36101504D01*
X50134473Y-36014777D01*
X50134474Y-36014776D01*
X50205046Y-35882747D01*
X50248503Y-35739486D01*
X50259500Y-35627833D01*
X50259500Y-35627824D01*
X50263176Y-35590501D01*
X50259500Y-35553178D01*
X50259500Y-34966072D01*
X50637000Y-34966072D01*
X50810254Y-34949008D01*
X50976850Y-34898472D01*
X51130386Y-34816405D01*
X51264962Y-34705962D01*
X51375405Y-34571386D01*
X51457472Y-34417850D01*
X51484727Y-34328000D01*
X51598928Y-34328000D01*
X51611188Y-34452482D01*
X51647498Y-34572180D01*
X51706463Y-34682494D01*
X51785815Y-34779185D01*
X51882506Y-34858537D01*
X51992820Y-34917502D01*
X52112518Y-34953812D01*
X52237000Y-34966072D01*
X53338750Y-34963000D01*
X53497500Y-34804250D01*
X53497500Y-33655000D01*
X53751500Y-33655000D01*
X53751500Y-34804250D01*
X53910250Y-34963000D01*
X55012000Y-34966072D01*
X55136482Y-34953812D01*
X55256180Y-34917502D01*
X55366494Y-34858537D01*
X55463185Y-34779185D01*
X55542537Y-34682494D01*
X55601502Y-34572180D01*
X55637812Y-34452482D01*
X55650072Y-34328000D01*
X55647000Y-33813750D01*
X55488250Y-33655000D01*
X53751500Y-33655000D01*
X53497500Y-33655000D01*
X51760750Y-33655000D01*
X51602000Y-33813750D01*
X51598928Y-34328000D01*
X51484727Y-34328000D01*
X51508008Y-34251254D01*
X51525072Y-34078000D01*
X51525072Y-32978000D01*
X51508008Y-32804746D01*
X51484728Y-32728000D01*
X51598928Y-32728000D01*
X51602000Y-33242250D01*
X51760750Y-33401000D01*
X53497500Y-33401000D01*
X53497500Y-32251750D01*
X53751500Y-32251750D01*
X53751500Y-33401000D01*
X55488250Y-33401000D01*
X55647000Y-33242250D01*
X55648172Y-33046012D01*
X63145593Y-33046012D01*
X63268194Y-33333170D01*
X63595722Y-33496280D01*
X63948778Y-33592359D01*
X64313795Y-33617713D01*
X64676744Y-33571369D01*
X65023677Y-33455108D01*
X65076347Y-33426955D01*
X65050000Y-33559409D01*
X65050000Y-34004591D01*
X65136851Y-34441218D01*
X65307214Y-34852511D01*
X65554544Y-35222666D01*
X65869334Y-35537456D01*
X66239489Y-35784786D01*
X66650782Y-35955149D01*
X67087409Y-36042000D01*
X67532591Y-36042000D01*
X67969218Y-35955149D01*
X68380511Y-35784786D01*
X68750666Y-35537456D01*
X68804223Y-35483899D01*
X70805064Y-35483899D01*
X70846086Y-35756607D01*
X70939522Y-36016072D01*
X71001894Y-36132760D01*
X71242293Y-36200102D01*
X72030395Y-35412000D01*
X72389605Y-35412000D01*
X73177707Y-36200102D01*
X73418106Y-36132760D01*
X73535506Y-35883220D01*
X73601967Y-35615573D01*
X73614936Y-35340101D01*
X73573914Y-35067393D01*
X73480478Y-34807928D01*
X73418106Y-34691240D01*
X73177707Y-34623898D01*
X72389605Y-35412000D01*
X72030395Y-35412000D01*
X71242293Y-34623898D01*
X71001894Y-34691240D01*
X70884494Y-34940780D01*
X70818033Y-35208427D01*
X70805064Y-35483899D01*
X68804223Y-35483899D01*
X69065456Y-35222666D01*
X69312786Y-34852511D01*
X69483149Y-34441218D01*
X69570000Y-34004591D01*
X69570000Y-33559409D01*
X69483149Y-33122782D01*
X69322157Y-32734112D01*
X70810000Y-32734112D01*
X70810000Y-33009888D01*
X70863801Y-33280365D01*
X70969336Y-33535149D01*
X71122549Y-33764448D01*
X71317552Y-33959451D01*
X71546851Y-34112664D01*
X71611594Y-34139482D01*
X71605928Y-34141522D01*
X71489240Y-34203894D01*
X71421898Y-34444293D01*
X72210000Y-35232395D01*
X72998102Y-34444293D01*
X72930760Y-34203894D01*
X72800664Y-34142688D01*
X72873149Y-34112664D01*
X73102448Y-33959451D01*
X73297451Y-33764448D01*
X73450664Y-33535149D01*
X73556199Y-33280365D01*
X73610000Y-33009888D01*
X73610000Y-32734112D01*
X73556199Y-32463635D01*
X73450664Y-32208851D01*
X73297451Y-31979552D01*
X73102448Y-31784549D01*
X72873149Y-31631336D01*
X72618365Y-31525801D01*
X72347888Y-31472000D01*
X72072112Y-31472000D01*
X71801635Y-31525801D01*
X71546851Y-31631336D01*
X71317552Y-31784549D01*
X71122549Y-31979552D01*
X70969336Y-32208851D01*
X70863801Y-32463635D01*
X70810000Y-32734112D01*
X69322157Y-32734112D01*
X69312786Y-32711489D01*
X69065456Y-32341334D01*
X68750666Y-32026544D01*
X68380511Y-31779214D01*
X67969218Y-31608851D01*
X67532591Y-31522000D01*
X67087409Y-31522000D01*
X66650782Y-31608851D01*
X66239489Y-31779214D01*
X66114275Y-31862880D01*
X66125713Y-31698205D01*
X66079369Y-31335256D01*
X65963108Y-30988323D01*
X65841170Y-30760194D01*
X65554012Y-30637593D01*
X64439605Y-31752000D01*
X64453748Y-31766143D01*
X64274143Y-31945748D01*
X64260000Y-31931605D01*
X63145593Y-33046012D01*
X55648172Y-33046012D01*
X55650072Y-32728000D01*
X55637812Y-32603518D01*
X55601502Y-32483820D01*
X55542537Y-32373506D01*
X55463185Y-32276815D01*
X55366494Y-32197463D01*
X55256180Y-32138498D01*
X55136482Y-32102188D01*
X55012000Y-32089928D01*
X53910250Y-32093000D01*
X53751500Y-32251750D01*
X53497500Y-32251750D01*
X53338750Y-32093000D01*
X52237000Y-32089928D01*
X52112518Y-32102188D01*
X51992820Y-32138498D01*
X51882506Y-32197463D01*
X51785815Y-32276815D01*
X51706463Y-32373506D01*
X51647498Y-32483820D01*
X51611188Y-32603518D01*
X51598928Y-32728000D01*
X51484728Y-32728000D01*
X51457472Y-32638150D01*
X51375405Y-32484614D01*
X51264962Y-32350038D01*
X51130386Y-32239595D01*
X50976850Y-32157528D01*
X50810254Y-32106992D01*
X50637000Y-32089928D01*
X48362000Y-32089928D01*
X48188746Y-32106992D01*
X48022150Y-32157528D01*
X47868614Y-32239595D01*
X47734038Y-32350038D01*
X47623595Y-32484614D01*
X47541528Y-32638150D01*
X47490992Y-32804746D01*
X47473928Y-32978000D01*
X43573024Y-32978000D01*
X43676628Y-32922622D01*
X43792353Y-32827649D01*
X43816156Y-32798645D01*
X43872296Y-32742505D01*
X44007111Y-32832586D01*
X44177271Y-32903068D01*
X44357911Y-32939000D01*
X44542089Y-32939000D01*
X44722729Y-32903068D01*
X44892889Y-32832586D01*
X44995535Y-32764000D01*
X45237680Y-32764000D01*
X45275002Y-32767676D01*
X45312324Y-32764000D01*
X45312335Y-32764000D01*
X45423988Y-32753003D01*
X45567249Y-32709546D01*
X45699278Y-32638974D01*
X45815003Y-32544001D01*
X45838806Y-32514997D01*
X46548008Y-31805795D01*
X62394287Y-31805795D01*
X62440631Y-32168744D01*
X62556892Y-32515677D01*
X62678830Y-32743806D01*
X62965988Y-32866407D01*
X64080395Y-31752000D01*
X62965988Y-30637593D01*
X62678830Y-30760194D01*
X62515720Y-31087722D01*
X62419641Y-31440778D01*
X62394287Y-31805795D01*
X46548008Y-31805795D01*
X47903508Y-30450296D01*
X48106589Y-30585990D01*
X48376842Y-30697932D01*
X48663740Y-30755000D01*
X48956260Y-30755000D01*
X49243158Y-30697932D01*
X49513411Y-30585990D01*
X49756632Y-30423475D01*
X49963475Y-30216632D01*
X50080000Y-30042240D01*
X50196525Y-30216632D01*
X50403368Y-30423475D01*
X50646589Y-30585990D01*
X50916842Y-30697932D01*
X51203740Y-30755000D01*
X51496260Y-30755000D01*
X51783158Y-30697932D01*
X52053411Y-30585990D01*
X52296632Y-30423475D01*
X52503475Y-30216632D01*
X52620000Y-30042240D01*
X52736525Y-30216632D01*
X52943368Y-30423475D01*
X53186589Y-30585990D01*
X53456842Y-30697932D01*
X53743740Y-30755000D01*
X54036260Y-30755000D01*
X54323158Y-30697932D01*
X54593411Y-30585990D01*
X54836632Y-30423475D01*
X55043475Y-30216632D01*
X55160000Y-30042240D01*
X55276525Y-30216632D01*
X55483368Y-30423475D01*
X55726589Y-30585990D01*
X55996842Y-30697932D01*
X56283740Y-30755000D01*
X56576260Y-30755000D01*
X56863158Y-30697932D01*
X57133411Y-30585990D01*
X57376632Y-30423475D01*
X57583475Y-30216632D01*
X57700000Y-30042240D01*
X57816525Y-30216632D01*
X58023368Y-30423475D01*
X58266589Y-30585990D01*
X58536842Y-30697932D01*
X58823740Y-30755000D01*
X59116260Y-30755000D01*
X59403158Y-30697932D01*
X59673411Y-30585990D01*
X59916632Y-30423475D01*
X60123475Y-30216632D01*
X60240000Y-30042240D01*
X60356525Y-30216632D01*
X60563368Y-30423475D01*
X60806589Y-30585990D01*
X61076842Y-30697932D01*
X61363740Y-30755000D01*
X61656260Y-30755000D01*
X61943158Y-30697932D01*
X62213411Y-30585990D01*
X62456632Y-30423475D01*
X62663475Y-30216632D01*
X62780000Y-30042240D01*
X62896525Y-30216632D01*
X63103368Y-30423475D01*
X63147685Y-30453087D01*
X63145593Y-30457988D01*
X64260000Y-31572395D01*
X65374407Y-30457988D01*
X65251806Y-30170830D01*
X65238505Y-30164206D01*
X65320000Y-30042240D01*
X65436525Y-30216632D01*
X65643368Y-30423475D01*
X65886589Y-30585990D01*
X66156842Y-30697932D01*
X66443740Y-30755000D01*
X66736260Y-30755000D01*
X67023158Y-30697932D01*
X67293411Y-30585990D01*
X67536632Y-30423475D01*
X67743475Y-30216632D01*
X67860000Y-30042240D01*
X67976525Y-30216632D01*
X68183368Y-30423475D01*
X68426589Y-30585990D01*
X68696842Y-30697932D01*
X68983740Y-30755000D01*
X69276260Y-30755000D01*
X69563158Y-30697932D01*
X69833411Y-30585990D01*
X70076632Y-30423475D01*
X70283475Y-30216632D01*
X70445990Y-29973411D01*
X70557932Y-29703158D01*
X70615000Y-29416260D01*
X70615000Y-29123740D01*
X70557932Y-28836842D01*
X70445990Y-28566589D01*
X70283475Y-28323368D01*
X70076632Y-28116525D01*
X69902240Y-28000000D01*
X70076632Y-27883475D01*
X70283475Y-27676632D01*
X70445990Y-27433411D01*
X70557932Y-27163158D01*
X70615000Y-26876260D01*
X70615000Y-26583740D01*
X70557932Y-26296842D01*
X70445990Y-26026589D01*
X70283475Y-25783368D01*
X70076632Y-25576525D01*
X69833411Y-25414010D01*
X69563158Y-25302068D01*
X69276260Y-25245000D01*
X68983740Y-25245000D01*
X68696842Y-25302068D01*
X68426589Y-25414010D01*
X68183368Y-25576525D01*
X67976525Y-25783368D01*
X67860000Y-25957760D01*
X67743475Y-25783368D01*
X67536632Y-25576525D01*
X67293411Y-25414010D01*
X67023158Y-25302068D01*
X66736260Y-25245000D01*
X66443740Y-25245000D01*
X66156842Y-25302068D01*
X65886589Y-25414010D01*
X65643368Y-25576525D01*
X65436525Y-25783368D01*
X65320000Y-25957760D01*
X65203475Y-25783368D01*
X64996632Y-25576525D01*
X64753411Y-25414010D01*
X64483158Y-25302068D01*
X64196260Y-25245000D01*
X63903740Y-25245000D01*
X63616842Y-25302068D01*
X63346589Y-25414010D01*
X63103368Y-25576525D01*
X62896525Y-25783368D01*
X62780000Y-25957760D01*
X62663475Y-25783368D01*
X62456632Y-25576525D01*
X62213411Y-25414010D01*
X61943158Y-25302068D01*
X61656260Y-25245000D01*
X61363740Y-25245000D01*
X61076842Y-25302068D01*
X60806589Y-25414010D01*
X60563368Y-25576525D01*
X60356525Y-25783368D01*
X60240000Y-25957760D01*
X60123475Y-25783368D01*
X59916632Y-25576525D01*
X59673411Y-25414010D01*
X59403158Y-25302068D01*
X59116260Y-25245000D01*
X58823740Y-25245000D01*
X58536842Y-25302068D01*
X58266589Y-25414010D01*
X58023368Y-25576525D01*
X57816525Y-25783368D01*
X57700000Y-25957760D01*
X57583475Y-25783368D01*
X57376632Y-25576525D01*
X57133411Y-25414010D01*
X56863158Y-25302068D01*
X56576260Y-25245000D01*
X56283740Y-25245000D01*
X55996842Y-25302068D01*
X55726589Y-25414010D01*
X55483368Y-25576525D01*
X55276525Y-25783368D01*
X55160000Y-25957760D01*
X55043475Y-25783368D01*
X54836632Y-25576525D01*
X54593411Y-25414010D01*
X54323158Y-25302068D01*
X54036260Y-25245000D01*
X53743740Y-25245000D01*
X53456842Y-25302068D01*
X53186589Y-25414010D01*
X52943368Y-25576525D01*
X52736525Y-25783368D01*
X52620000Y-25957760D01*
X52503475Y-25783368D01*
X52296632Y-25576525D01*
X52053411Y-25414010D01*
X51783158Y-25302068D01*
X51496260Y-25245000D01*
X51203740Y-25245000D01*
X50916842Y-25302068D01*
X50646589Y-25414010D01*
X50403368Y-25576525D01*
X50196525Y-25783368D01*
X50080000Y-25957760D01*
X49963475Y-25783368D01*
X49756632Y-25576525D01*
X49513411Y-25414010D01*
X49243158Y-25302068D01*
X48956260Y-25245000D01*
X48663740Y-25245000D01*
X48443592Y-25288791D01*
X47839801Y-24685000D01*
X74466495Y-24685000D01*
X74949016Y-24732312D01*
G04 #@! TA.AperFunction,Conductor*
D21*
G36*
X74949016Y-24732312D02*
G01*
X75380930Y-24862714D01*
X75779285Y-25074524D01*
X76128914Y-25359675D01*
X76416497Y-25707303D01*
X76631086Y-26104177D01*
X76645547Y-26150894D01*
X76506575Y-25942907D01*
X76057093Y-25493425D01*
X75528558Y-25140270D01*
X74941281Y-24897012D01*
X74317832Y-24773000D01*
X73682168Y-24773000D01*
X73058719Y-24897012D01*
X72471442Y-25140270D01*
X71942907Y-25493425D01*
X71493425Y-25942907D01*
X71140270Y-26471442D01*
X70897012Y-27058719D01*
X70773000Y-27682168D01*
X70773000Y-28317832D01*
X70897012Y-28941281D01*
X71140270Y-29528558D01*
X71493425Y-30057093D01*
X71942907Y-30506575D01*
X72471442Y-30859730D01*
X73058719Y-31102988D01*
X73682168Y-31227000D01*
X74317832Y-31227000D01*
X74941281Y-31102988D01*
X75528558Y-30859730D01*
X76057093Y-30506575D01*
X76506575Y-30057093D01*
X76815000Y-29595501D01*
X76815001Y-49404500D01*
X76506575Y-48942907D01*
X76057093Y-48493425D01*
X75528558Y-48140270D01*
X74941281Y-47897012D01*
X74317832Y-47773000D01*
X73682168Y-47773000D01*
X73058719Y-47897012D01*
X72471442Y-48140270D01*
X71942907Y-48493425D01*
X71493425Y-48942907D01*
X71140270Y-49471442D01*
X70897012Y-50058719D01*
X70773000Y-50682168D01*
X70773000Y-51317832D01*
X70897012Y-51941281D01*
X71140270Y-52528558D01*
X71493425Y-53057093D01*
X71942907Y-53506575D01*
X72404499Y-53815000D01*
X17595501Y-53815000D01*
X18057093Y-53506575D01*
X18506575Y-53057093D01*
X18859730Y-52528558D01*
X19102988Y-51941281D01*
X19227000Y-51317832D01*
X19227000Y-50682168D01*
X19102988Y-50058719D01*
X18859730Y-49471442D01*
X18506575Y-48942907D01*
X18057093Y-48493425D01*
X17528558Y-48140270D01*
X16941281Y-47897012D01*
X16317832Y-47773000D01*
X15682168Y-47773000D01*
X15058719Y-47897012D01*
X14471442Y-48140270D01*
X13942907Y-48493425D01*
X13493425Y-48942907D01*
X13185000Y-49404499D01*
X13185000Y-45076000D01*
X16003928Y-45076000D01*
X16003928Y-47076000D01*
X16016188Y-47200482D01*
X16052498Y-47320180D01*
X16111463Y-47430494D01*
X16190815Y-47527185D01*
X16287506Y-47606537D01*
X16397820Y-47665502D01*
X16517518Y-47701812D01*
X16642000Y-47714072D01*
X20442000Y-47714072D01*
X20566482Y-47701812D01*
X20686180Y-47665502D01*
X20796494Y-47606537D01*
X20893185Y-47527185D01*
X20972537Y-47430494D01*
X21031502Y-47320180D01*
X21067812Y-47200482D01*
X21080072Y-47076000D01*
X21080072Y-45076000D01*
X21067812Y-44951518D01*
X21031502Y-44831820D01*
X20972537Y-44721506D01*
X20893185Y-44624815D01*
X20796494Y-44545463D01*
X20686180Y-44486498D01*
X20566482Y-44450188D01*
X20442000Y-44437928D01*
X16642000Y-44437928D01*
X16517518Y-44450188D01*
X16397820Y-44486498D01*
X16287506Y-44545463D01*
X16190815Y-44624815D01*
X16111463Y-44721506D01*
X16052498Y-44831820D01*
X16016188Y-44951518D01*
X16003928Y-45076000D01*
X13185000Y-45076000D01*
X13185000Y-29595501D01*
X13493425Y-30057093D01*
X13942907Y-30506575D01*
X14471442Y-30859730D01*
X15058719Y-31102988D01*
X15682168Y-31227000D01*
X16317832Y-31227000D01*
X16941281Y-31102988D01*
X17528558Y-30859730D01*
X18057093Y-30506575D01*
X18506575Y-30057093D01*
X18684999Y-29790061D01*
X18684999Y-30355422D01*
X16188494Y-32851928D01*
X14864500Y-32851928D01*
X14691246Y-32868992D01*
X14524650Y-32919528D01*
X14371114Y-33001595D01*
X14236538Y-33112038D01*
X14126095Y-33246614D01*
X14044028Y-33400150D01*
X13993492Y-33566746D01*
X13976428Y-33740000D01*
X13976428Y-34840000D01*
X13993492Y-35013254D01*
X14044028Y-35179850D01*
X14126095Y-35333386D01*
X14156999Y-35371043D01*
X14157000Y-41092522D01*
X14152718Y-41136001D01*
X14169804Y-41309491D01*
X14220411Y-41476314D01*
X14302589Y-41630060D01*
X14385467Y-41731047D01*
X14385470Y-41731050D01*
X14413183Y-41764818D01*
X14446951Y-41792531D01*
X14475465Y-41821045D01*
X14503182Y-41854818D01*
X14637940Y-41965412D01*
X14791686Y-42047590D01*
X14958509Y-42098196D01*
X15088522Y-42111001D01*
X15088532Y-42111001D01*
X15131998Y-42115282D01*
X15175464Y-42111001D01*
X19608532Y-42111001D01*
X19652001Y-42115282D01*
X19695470Y-42111001D01*
X19695478Y-42111001D01*
X19825491Y-42098196D01*
X19992314Y-42047590D01*
X20146060Y-41965412D01*
X20280818Y-41854818D01*
X20308535Y-41821045D01*
X20715508Y-41414072D01*
X21592000Y-41414072D01*
X21716482Y-41401812D01*
X21836180Y-41365502D01*
X21946494Y-41306537D01*
X22043185Y-41227185D01*
X22122537Y-41130494D01*
X22181502Y-41020180D01*
X22217812Y-40900482D01*
X22230072Y-40776000D01*
X22230072Y-38776000D01*
X22221897Y-38693000D01*
X24215928Y-38693000D01*
X24215928Y-38989520D01*
X24169077Y-39077172D01*
X24148454Y-39115754D01*
X24104997Y-39259015D01*
X24094000Y-39370668D01*
X24094000Y-39370678D01*
X24090324Y-39408000D01*
X24094000Y-39445323D01*
X24094001Y-40981660D01*
X24090324Y-41018992D01*
X24094001Y-41056325D01*
X24104998Y-41167978D01*
X24110716Y-41186828D01*
X24148454Y-41311238D01*
X24219026Y-41443268D01*
X24265808Y-41500271D01*
X24314000Y-41558993D01*
X24342998Y-41582791D01*
X25552210Y-42792004D01*
X25576008Y-42821002D01*
X25691733Y-42915975D01*
X25823762Y-42986547D01*
X25967023Y-43030004D01*
X26078676Y-43041001D01*
X26078685Y-43041001D01*
X26116008Y-43044677D01*
X26153331Y-43041001D01*
X35776677Y-43041001D01*
X35813999Y-43044677D01*
X35851321Y-43041001D01*
X35851332Y-43041001D01*
X35962985Y-43030004D01*
X36106246Y-42986547D01*
X36238275Y-42915975D01*
X36354000Y-42821002D01*
X36377803Y-42791998D01*
X36473648Y-42696153D01*
X36594729Y-42672068D01*
X36764889Y-42601586D01*
X36918028Y-42499262D01*
X37048262Y-42369028D01*
X37150586Y-42215889D01*
X37221068Y-42045729D01*
X37257000Y-41865089D01*
X37257000Y-41680911D01*
X37244086Y-41615987D01*
X53848691Y-41615987D01*
X53886013Y-41619663D01*
X53923335Y-41615987D01*
X53923346Y-41615987D01*
X54034999Y-41604990D01*
X54178260Y-41561533D01*
X54310289Y-41490961D01*
X54426014Y-41395988D01*
X54449817Y-41366984D01*
X57062000Y-38754802D01*
X57062000Y-38995751D01*
X57086795Y-39120403D01*
X56800634Y-39406565D01*
X56715013Y-39414998D01*
X56571752Y-39458455D01*
X56439723Y-39529027D01*
X56323998Y-39624000D01*
X56229025Y-39739725D01*
X56158453Y-39871754D01*
X56114996Y-40015015D01*
X56100322Y-40164001D01*
X56103999Y-40201334D01*
X56104000Y-44444464D01*
X56035413Y-44547112D01*
X55964931Y-44717272D01*
X55928999Y-44897912D01*
X55928999Y-45082090D01*
X55964931Y-45262730D01*
X56035413Y-45432890D01*
X56103999Y-45535537D01*
X56104000Y-48444667D01*
X56100323Y-48481999D01*
X56114997Y-48630984D01*
X56158453Y-48774245D01*
X56229025Y-48906275D01*
X56260895Y-48945108D01*
X56323999Y-49022000D01*
X56352997Y-49045798D01*
X58512847Y-51205649D01*
X58536932Y-51326729D01*
X58607414Y-51496889D01*
X58709738Y-51650028D01*
X58839972Y-51780262D01*
X58993111Y-51882586D01*
X59163271Y-51953068D01*
X59343911Y-51989000D01*
X59528089Y-51989000D01*
X59708729Y-51953068D01*
X59878889Y-51882586D01*
X60032028Y-51780262D01*
X60162262Y-51650028D01*
X60264586Y-51496889D01*
X60335068Y-51326729D01*
X60371000Y-51146089D01*
X60371000Y-50961911D01*
X60335068Y-50781271D01*
X60264586Y-50611111D01*
X60162262Y-50457972D01*
X60032028Y-50327738D01*
X59878889Y-50225414D01*
X59708729Y-50154932D01*
X59587649Y-50130847D01*
X57992814Y-48536012D01*
X63145593Y-48536012D01*
X63268194Y-48823170D01*
X63595722Y-48986280D01*
X63948778Y-49082359D01*
X64313795Y-49107713D01*
X64676744Y-49061369D01*
X65023677Y-48945108D01*
X65251806Y-48823170D01*
X65374407Y-48536012D01*
X64260000Y-47421605D01*
X63145593Y-48536012D01*
X57992814Y-48536012D01*
X57623999Y-48167198D01*
X57623999Y-47295795D01*
X62394287Y-47295795D01*
X62440631Y-47658744D01*
X62556892Y-48005677D01*
X62678830Y-48233806D01*
X62965988Y-48356407D01*
X64080395Y-47242000D01*
X62965988Y-46127593D01*
X62678830Y-46250194D01*
X62515720Y-46577722D01*
X62419641Y-46930778D01*
X62394287Y-47295795D01*
X57623999Y-47295795D01*
X57623999Y-45947988D01*
X63145593Y-45947988D01*
X64260000Y-47062395D01*
X64274143Y-47048253D01*
X64453748Y-47227858D01*
X64439605Y-47242000D01*
X65554012Y-48356407D01*
X65841170Y-48233806D01*
X66004280Y-47906278D01*
X66100359Y-47553222D01*
X66125713Y-47188205D01*
X66118811Y-47134151D01*
X66239489Y-47214786D01*
X66650782Y-47385149D01*
X67087409Y-47472000D01*
X67532591Y-47472000D01*
X67969218Y-47385149D01*
X68380511Y-47214786D01*
X68750666Y-46967456D01*
X69065456Y-46652666D01*
X69312786Y-46282511D01*
X69436386Y-45984112D01*
X70810000Y-45984112D01*
X70810000Y-46259888D01*
X70863801Y-46530365D01*
X70969336Y-46785149D01*
X71122549Y-47014448D01*
X71317552Y-47209451D01*
X71546851Y-47362664D01*
X71801635Y-47468199D01*
X72072112Y-47522000D01*
X72347888Y-47522000D01*
X72618365Y-47468199D01*
X72873149Y-47362664D01*
X73102448Y-47209451D01*
X73297451Y-47014448D01*
X73450664Y-46785149D01*
X73556199Y-46530365D01*
X73610000Y-46259888D01*
X73610000Y-45984112D01*
X73556199Y-45713635D01*
X73450664Y-45458851D01*
X73297451Y-45229552D01*
X73102448Y-45034549D01*
X72873149Y-44881336D01*
X72808406Y-44854518D01*
X72814072Y-44852478D01*
X72930760Y-44790106D01*
X72998102Y-44549707D01*
X72210000Y-43761605D01*
X71421898Y-44549707D01*
X71489240Y-44790106D01*
X71619336Y-44851312D01*
X71546851Y-44881336D01*
X71317552Y-45034549D01*
X71122549Y-45229552D01*
X70969336Y-45458851D01*
X70863801Y-45713635D01*
X70810000Y-45984112D01*
X69436386Y-45984112D01*
X69483149Y-45871218D01*
X69570000Y-45434591D01*
X69570000Y-44989409D01*
X69483149Y-44552782D01*
X69312786Y-44141489D01*
X69065456Y-43771334D01*
X68948021Y-43653899D01*
X70805064Y-43653899D01*
X70846086Y-43926607D01*
X70939522Y-44186072D01*
X71001894Y-44302760D01*
X71242293Y-44370102D01*
X72030395Y-43582000D01*
X72389605Y-43582000D01*
X73177707Y-44370102D01*
X73418106Y-44302760D01*
X73535506Y-44053220D01*
X73601967Y-43785573D01*
X73614936Y-43510101D01*
X73573914Y-43237393D01*
X73480478Y-42977928D01*
X73418106Y-42861240D01*
X73177707Y-42793898D01*
X72389605Y-43582000D01*
X72030395Y-43582000D01*
X71242293Y-42793898D01*
X71001894Y-42861240D01*
X70884494Y-43110780D01*
X70818033Y-43378427D01*
X70805064Y-43653899D01*
X68948021Y-43653899D01*
X68750666Y-43456544D01*
X68380511Y-43209214D01*
X67969218Y-43038851D01*
X67532591Y-42952000D01*
X67087409Y-42952000D01*
X66650782Y-43038851D01*
X66239489Y-43209214D01*
X65869334Y-43456544D01*
X65554544Y-43771334D01*
X65307214Y-44141489D01*
X65136851Y-44552782D01*
X65050000Y-44989409D01*
X65050000Y-45434591D01*
X65077761Y-45574155D01*
X64924278Y-45497720D01*
X64571222Y-45401641D01*
X64206205Y-45376287D01*
X63843256Y-45422631D01*
X63496323Y-45538892D01*
X63268194Y-45660830D01*
X63145593Y-45947988D01*
X57623999Y-45947988D01*
X57623999Y-45535536D01*
X57692585Y-45432890D01*
X57763067Y-45262730D01*
X57786498Y-45144937D01*
X57966523Y-45229017D01*
X58226321Y-45292756D01*
X58493561Y-45304587D01*
X58757975Y-45264054D01*
X59009401Y-45172716D01*
X59115848Y-45115818D01*
X59178099Y-44879704D01*
X58420000Y-44121605D01*
X58405858Y-44135748D01*
X58226253Y-43956143D01*
X58240395Y-43942000D01*
X58599605Y-43942000D01*
X59357704Y-44700099D01*
X59593818Y-44637848D01*
X59707017Y-44395477D01*
X59770756Y-44135679D01*
X59782587Y-43868439D01*
X59742054Y-43604025D01*
X59650716Y-43352599D01*
X59593818Y-43246152D01*
X59357704Y-43183901D01*
X58599605Y-43942000D01*
X58240395Y-43942000D01*
X58226253Y-43927858D01*
X58405858Y-43748253D01*
X58420000Y-43762395D01*
X59178099Y-43004296D01*
X59115848Y-42768182D01*
X58906463Y-42670389D01*
X59063254Y-42605444D01*
X59285675Y-42456828D01*
X59474828Y-42267675D01*
X59623444Y-42045254D01*
X59725813Y-41798114D01*
X59778000Y-41535751D01*
X59778000Y-41268249D01*
X59725813Y-41005886D01*
X59623444Y-40758746D01*
X59474828Y-40536325D01*
X59285675Y-40347172D01*
X59063254Y-40198556D01*
X58902574Y-40132000D01*
X59063254Y-40065444D01*
X59285675Y-39916828D01*
X59474828Y-39727675D01*
X59477250Y-39724051D01*
X59626795Y-39873596D01*
X59602000Y-39998249D01*
X59602000Y-40265751D01*
X59654187Y-40528114D01*
X59756556Y-40775254D01*
X59905172Y-40997675D01*
X60094325Y-41186828D01*
X60316746Y-41335444D01*
X60477426Y-41402000D01*
X60316746Y-41468556D01*
X60094325Y-41617172D01*
X59905172Y-41806325D01*
X59756556Y-42028746D01*
X59654187Y-42275886D01*
X59602000Y-42538249D01*
X59602000Y-42805751D01*
X59654187Y-43068114D01*
X59756556Y-43315254D01*
X59905172Y-43537675D01*
X60094325Y-43726828D01*
X60316746Y-43875444D01*
X60563886Y-43977813D01*
X60826249Y-44030000D01*
X61093751Y-44030000D01*
X61356114Y-43977813D01*
X61603254Y-43875444D01*
X61825675Y-43726828D01*
X62014828Y-43537675D01*
X62163444Y-43315254D01*
X62265813Y-43068114D01*
X62318000Y-42805751D01*
X62318000Y-42614293D01*
X71421898Y-42614293D01*
X72210000Y-43402395D01*
X72998102Y-42614293D01*
X72930760Y-42373894D01*
X72681220Y-42256494D01*
X72413573Y-42190033D01*
X72138101Y-42177064D01*
X71865393Y-42218086D01*
X71605928Y-42311522D01*
X71489240Y-42373894D01*
X71421898Y-42614293D01*
X62318000Y-42614293D01*
X62318000Y-42538249D01*
X62265813Y-42275886D01*
X62163444Y-42028746D01*
X62014828Y-41806325D01*
X61825675Y-41617172D01*
X61603254Y-41468556D01*
X61442574Y-41402000D01*
X61603254Y-41335444D01*
X61825675Y-41186828D01*
X62014828Y-40997675D01*
X62163444Y-40775254D01*
X62265813Y-40528114D01*
X62318000Y-40265751D01*
X62318000Y-39998249D01*
X62265813Y-39735886D01*
X62163444Y-39488746D01*
X62014828Y-39266325D01*
X61825675Y-39077172D01*
X61603254Y-38928556D01*
X61442574Y-38862000D01*
X61603254Y-38795444D01*
X61825675Y-38646828D01*
X62014828Y-38457675D01*
X62163444Y-38235254D01*
X62265813Y-37988114D01*
X62318000Y-37725751D01*
X62318000Y-37458249D01*
X62265813Y-37195886D01*
X62163444Y-36948746D01*
X62014828Y-36726325D01*
X61825675Y-36537172D01*
X61603254Y-36388556D01*
X61581891Y-36379707D01*
X71421898Y-36379707D01*
X71489240Y-36620106D01*
X71738780Y-36737506D01*
X72006427Y-36803967D01*
X72281899Y-36816936D01*
X72554607Y-36775914D01*
X72814072Y-36682478D01*
X72930760Y-36620106D01*
X72998102Y-36379707D01*
X72210000Y-35591605D01*
X71421898Y-36379707D01*
X61581891Y-36379707D01*
X61442574Y-36322000D01*
X61603254Y-36255444D01*
X61825675Y-36106828D01*
X62014828Y-35917675D01*
X62163444Y-35695254D01*
X62265813Y-35448114D01*
X62318000Y-35185751D01*
X62318000Y-34918249D01*
X62265813Y-34655886D01*
X62163444Y-34408746D01*
X62014828Y-34186325D01*
X61825675Y-33997172D01*
X61603254Y-33848556D01*
X61356114Y-33746187D01*
X61093751Y-33694000D01*
X60826249Y-33694000D01*
X60563886Y-33746187D01*
X60316746Y-33848556D01*
X60094325Y-33997172D01*
X59905172Y-34186325D01*
X59834563Y-34292000D01*
X57922280Y-34292000D01*
X57884957Y-34288324D01*
X57847634Y-34292000D01*
X57847625Y-34292000D01*
X57735972Y-34302997D01*
X57592711Y-34346454D01*
X57460682Y-34417026D01*
X57460680Y-34417027D01*
X57460681Y-34417027D01*
X57373954Y-34488201D01*
X57373950Y-34488205D01*
X57344957Y-34511999D01*
X57321163Y-34540992D01*
X52607158Y-39254999D01*
X34215295Y-39254999D01*
X34214500Y-39147750D01*
X34055750Y-38989000D01*
X33194000Y-38989000D01*
X33194000Y-39009000D01*
X32940000Y-39009000D01*
X32940000Y-38989000D01*
X32920000Y-38989000D01*
X32920000Y-38735000D01*
X32940000Y-38735000D01*
X32940000Y-37685750D01*
X33194000Y-37685750D01*
X33194000Y-38735000D01*
X34055750Y-38735000D01*
X34214500Y-38576250D01*
X34217572Y-38162000D01*
X34205312Y-38037518D01*
X34169002Y-37917820D01*
X34110037Y-37807506D01*
X34030685Y-37710815D01*
X33933994Y-37631463D01*
X33823680Y-37572498D01*
X33703982Y-37536188D01*
X33579500Y-37523928D01*
X33352750Y-37527000D01*
X33194000Y-37685750D01*
X32940000Y-37685750D01*
X32781250Y-37527000D01*
X32554500Y-37523928D01*
X32430018Y-37536188D01*
X32310320Y-37572498D01*
X32200006Y-37631463D01*
X32103315Y-37710815D01*
X32095845Y-37719917D01*
X32141072Y-37610729D01*
X32177004Y-37430089D01*
X32177004Y-37245911D01*
X32141072Y-37065271D01*
X32070590Y-36895111D01*
X32025748Y-36828000D01*
X35014465Y-36828000D01*
X35117111Y-36896586D01*
X35287271Y-36967068D01*
X35467911Y-37003000D01*
X35652089Y-37003000D01*
X35832729Y-36967068D01*
X36002889Y-36896586D01*
X36156028Y-36794262D01*
X36286262Y-36664028D01*
X36388586Y-36510889D01*
X36459068Y-36340729D01*
X36495000Y-36160089D01*
X36495000Y-35975911D01*
X36459068Y-35795271D01*
X36388586Y-35625111D01*
X36286262Y-35471972D01*
X36156028Y-35341738D01*
X36002889Y-35239414D01*
X35832729Y-35168932D01*
X35652089Y-35133000D01*
X35467911Y-35133000D01*
X35287271Y-35168932D01*
X35117111Y-35239414D01*
X35014465Y-35308000D01*
X31025333Y-35308000D01*
X30988010Y-35304324D01*
X30950687Y-35308000D01*
X30950677Y-35308000D01*
X30839024Y-35318997D01*
X30695763Y-35362454D01*
X30563733Y-35433026D01*
X30511032Y-35476277D01*
X30448009Y-35527999D01*
X30424211Y-35556997D01*
X27092072Y-38889137D01*
X27092072Y-37470500D01*
X27075008Y-37297246D01*
X27024472Y-37130650D01*
X26942405Y-36977114D01*
X26831962Y-36842538D01*
X26697386Y-36732095D01*
X26543850Y-36650028D01*
X26377254Y-36599492D01*
X26204000Y-36582428D01*
X25104000Y-36582428D01*
X24930746Y-36599492D01*
X24764150Y-36650028D01*
X24610614Y-36732095D01*
X24476038Y-36842538D01*
X24410005Y-36923000D01*
X20293467Y-36923000D01*
X20249998Y-36918719D01*
X20206529Y-36923000D01*
X20206521Y-36923000D01*
X20091304Y-36934348D01*
X20076507Y-36935805D01*
X20033848Y-36948746D01*
X19909685Y-36986411D01*
X19755939Y-37068589D01*
X19698168Y-37116001D01*
X19654951Y-37151468D01*
X19654949Y-37151470D01*
X19621181Y-37179183D01*
X19593468Y-37212951D01*
X18668492Y-38137928D01*
X17792000Y-38137928D01*
X17667518Y-38150188D01*
X17547820Y-38186498D01*
X17437506Y-38245463D01*
X17392000Y-38282809D01*
X17346494Y-38245463D01*
X17236180Y-38186498D01*
X17116482Y-38150188D01*
X16992000Y-38137928D01*
X16527750Y-38141000D01*
X16369000Y-38299750D01*
X16369000Y-39649000D01*
X16389000Y-39649000D01*
X16389000Y-39903000D01*
X16369000Y-39903000D01*
X16369000Y-39923000D01*
X16115000Y-39923000D01*
X16115000Y-39903000D01*
X16095000Y-39903000D01*
X16095000Y-39649000D01*
X16115000Y-39649000D01*
X16115000Y-38299750D01*
X15956250Y-38141000D01*
X15926999Y-38140806D01*
X15926999Y-35870500D01*
X24215928Y-35870500D01*
X24228188Y-35994982D01*
X24264498Y-36114680D01*
X24323463Y-36224994D01*
X24402815Y-36321685D01*
X24499506Y-36401037D01*
X24609820Y-36460002D01*
X24729518Y-36496312D01*
X24854000Y-36508572D01*
X25368250Y-36505500D01*
X25527000Y-36346750D01*
X25527000Y-34610000D01*
X25781000Y-34610000D01*
X25781000Y-36346750D01*
X25939750Y-36505500D01*
X26454000Y-36508572D01*
X26578482Y-36496312D01*
X26698180Y-36460002D01*
X26808494Y-36401037D01*
X26905185Y-36321685D01*
X26984537Y-36224994D01*
X27043502Y-36114680D01*
X27079812Y-35994982D01*
X27092072Y-35870500D01*
X27089000Y-34768750D01*
X26930250Y-34610000D01*
X25781000Y-34610000D01*
X25527000Y-34610000D01*
X24377750Y-34610000D01*
X24219000Y-34768750D01*
X24215928Y-35870500D01*
X15926999Y-35870500D01*
X15926999Y-35728072D01*
X17139500Y-35728072D01*
X17312754Y-35711008D01*
X17479350Y-35660472D01*
X17632886Y-35578405D01*
X17767462Y-35467962D01*
X17877905Y-35333386D01*
X17959972Y-35179850D01*
X17987227Y-35090000D01*
X18101428Y-35090000D01*
X18113688Y-35214482D01*
X18149998Y-35334180D01*
X18208963Y-35444494D01*
X18288315Y-35541185D01*
X18385006Y-35620537D01*
X18495320Y-35679502D01*
X18615018Y-35715812D01*
X18739500Y-35728072D01*
X19841250Y-35725000D01*
X20000000Y-35566250D01*
X20000000Y-34417000D01*
X20254000Y-34417000D01*
X20254000Y-35566250D01*
X20412750Y-35725000D01*
X21514500Y-35728072D01*
X21638982Y-35715812D01*
X21758680Y-35679502D01*
X21868994Y-35620537D01*
X21965685Y-35541185D01*
X22045037Y-35444494D01*
X22104002Y-35334180D01*
X22140312Y-35214482D01*
X22152572Y-35090000D01*
X22149500Y-34575750D01*
X21990750Y-34417000D01*
X20254000Y-34417000D01*
X20000000Y-34417000D01*
X18263250Y-34417000D01*
X18104500Y-34575750D01*
X18101428Y-35090000D01*
X17987227Y-35090000D01*
X18010508Y-35013254D01*
X18027572Y-34840000D01*
X18027572Y-33740000D01*
X18010508Y-33566746D01*
X18002670Y-33540908D01*
X18106655Y-33436923D01*
X18101428Y-33490000D01*
X18104500Y-34004250D01*
X18263250Y-34163000D01*
X20000000Y-34163000D01*
X20000000Y-33013750D01*
X20254000Y-33013750D01*
X20254000Y-34163000D01*
X21990750Y-34163000D01*
X22149500Y-34004250D01*
X22152572Y-33490000D01*
X22140312Y-33365518D01*
X22104002Y-33245820D01*
X22045037Y-33135506D01*
X22012206Y-33095500D01*
X24215928Y-33095500D01*
X24219000Y-34197250D01*
X24377750Y-34356000D01*
X25527000Y-34356000D01*
X25527000Y-32619250D01*
X25781000Y-32619250D01*
X25781000Y-34356000D01*
X26930250Y-34356000D01*
X27089000Y-34197250D01*
X27092072Y-33095500D01*
X27079812Y-32971018D01*
X27043502Y-32851320D01*
X26984537Y-32741006D01*
X26905185Y-32644315D01*
X26808494Y-32564963D01*
X26698180Y-32505998D01*
X26578482Y-32469688D01*
X26454000Y-32457428D01*
X25939750Y-32460500D01*
X25781000Y-32619250D01*
X25527000Y-32619250D01*
X25368250Y-32460500D01*
X24854000Y-32457428D01*
X24729518Y-32469688D01*
X24609820Y-32505998D01*
X24499506Y-32564963D01*
X24402815Y-32644315D01*
X24323463Y-32741006D01*
X24264498Y-32851320D01*
X24228188Y-32971018D01*
X24215928Y-33095500D01*
X22012206Y-33095500D01*
X21965685Y-33038815D01*
X21868994Y-32959463D01*
X21758680Y-32900498D01*
X21638982Y-32864188D01*
X21514500Y-32851928D01*
X20412750Y-32855000D01*
X20254000Y-33013750D01*
X20000000Y-33013750D01*
X19841250Y-32855000D01*
X18739500Y-32851928D01*
X18686423Y-32857155D01*
X20165049Y-31378530D01*
X20198816Y-31350818D01*
X20241791Y-31298454D01*
X20309410Y-31216060D01*
X20391588Y-31062315D01*
X20442194Y-30895491D01*
X20445716Y-30859730D01*
X20454999Y-30765478D01*
X20454999Y-30765470D01*
X20455728Y-30758072D01*
X21720000Y-30758072D01*
X21844482Y-30745812D01*
X21964180Y-30709502D01*
X22074494Y-30650537D01*
X22171185Y-30571185D01*
X22250537Y-30474494D01*
X22309502Y-30364180D01*
X22331513Y-30291620D01*
X22463368Y-30423475D01*
X22706589Y-30585990D01*
X22976842Y-30697932D01*
X23263740Y-30755000D01*
X23556260Y-30755000D01*
X23843158Y-30697932D01*
X24113411Y-30585990D01*
X24356632Y-30423475D01*
X24563475Y-30216632D01*
X24680000Y-30042240D01*
X24796525Y-30216632D01*
X25003368Y-30423475D01*
X25246589Y-30585990D01*
X25516842Y-30697932D01*
X25803740Y-30755000D01*
X26096260Y-30755000D01*
X26383158Y-30697932D01*
X26653411Y-30585990D01*
X26896632Y-30423475D01*
X27103475Y-30216632D01*
X27220000Y-30042240D01*
X27336525Y-30216632D01*
X27543368Y-30423475D01*
X27786589Y-30585990D01*
X28056842Y-30697932D01*
X28343740Y-30755000D01*
X28636260Y-30755000D01*
X28923158Y-30697932D01*
X29193411Y-30585990D01*
X29436632Y-30423475D01*
X29643475Y-30216632D01*
X29765195Y-30034466D01*
X29834822Y-30151355D01*
X30029731Y-30367588D01*
X30263080Y-30541641D01*
X30525901Y-30666825D01*
X30673110Y-30711476D01*
X30903000Y-30590155D01*
X30903000Y-29397000D01*
X30883000Y-29397000D01*
X30883000Y-29143000D01*
X30903000Y-29143000D01*
X30903000Y-29123000D01*
X31157000Y-29123000D01*
X31157000Y-29143000D01*
X31177000Y-29143000D01*
X31177000Y-29397000D01*
X31157000Y-29397000D01*
X31157000Y-30590155D01*
X31386890Y-30711476D01*
X31534099Y-30666825D01*
X31796920Y-30541641D01*
X32030269Y-30367588D01*
X32225178Y-30151355D01*
X32294805Y-30034466D01*
X32416525Y-30216632D01*
X32623368Y-30423475D01*
X32866589Y-30585990D01*
X33136842Y-30697932D01*
X33423740Y-30755000D01*
X33716260Y-30755000D01*
X34003158Y-30697932D01*
X34273411Y-30585990D01*
X34516632Y-30423475D01*
X34723475Y-30216632D01*
X34840000Y-30042240D01*
X34956525Y-30216632D01*
X35163368Y-30423475D01*
X35406589Y-30585990D01*
X35676842Y-30697932D01*
X35963740Y-30755000D01*
X36256260Y-30755000D01*
X36543158Y-30697932D01*
X36813411Y-30585990D01*
X37056632Y-30423475D01*
X37263475Y-30216632D01*
X37380000Y-30042240D01*
X37496525Y-30216632D01*
X37703368Y-30423475D01*
X37787505Y-30479693D01*
X37186351Y-31080847D01*
X37065271Y-31104932D01*
X36895111Y-31175414D01*
X36741972Y-31277738D01*
X36611738Y-31407972D01*
X36509414Y-31561111D01*
X36438932Y-31731271D01*
X36403000Y-31911911D01*
X36403000Y-32096089D01*
X36438932Y-32276729D01*
X36509414Y-32446889D01*
X36611738Y-32600028D01*
X36741972Y-32730262D01*
X36895111Y-32832586D01*
X37065271Y-32903068D01*
X37245911Y-32939000D01*
X37430089Y-32939000D01*
X37610729Y-32903068D01*
X37657433Y-32883723D01*
X37757972Y-32984262D01*
X37911111Y-33086586D01*
X38081271Y-33157068D01*
X38261911Y-33193000D01*
X38446089Y-33193000D01*
X38626729Y-33157068D01*
X38796889Y-33086586D01*
X38950028Y-32984262D01*
X39080262Y-32854028D01*
X39116000Y-32800542D01*
X39151738Y-32854028D01*
X39281972Y-32984262D01*
X39435111Y-33086586D01*
X39605271Y-33157068D01*
X39785911Y-33193000D01*
X39970089Y-33193000D01*
X40150729Y-33157068D01*
X40320889Y-33086586D01*
X40423535Y-33018000D01*
X40540090Y-33018000D01*
X40577412Y-33021676D01*
X40614734Y-33018000D01*
X40614745Y-33018000D01*
X40726398Y-33007003D01*
X40804900Y-32983190D01*
X40835620Y-33013910D01*
X40988759Y-33116234D01*
X41158919Y-33186716D01*
X41339559Y-33222648D01*
X41523737Y-33222648D01*
X41704377Y-33186716D01*
X41874537Y-33116234D01*
X41977183Y-33047648D01*
X43215030Y-33047648D01*
X43252352Y-33051324D01*
X43289674Y-33047648D01*
X43289685Y-33047648D01*
X43401338Y-33036651D01*
X43544599Y-32993194D01*
X43573024Y-32978000D01*
X47473928Y-32978000D01*
X47473928Y-34078000D01*
X47490992Y-34251254D01*
X47541528Y-34417850D01*
X47623595Y-34571386D01*
X47734038Y-34705962D01*
X47868614Y-34816405D01*
X48022150Y-34898472D01*
X48188746Y-34949008D01*
X48362000Y-34966072D01*
X48739500Y-34966072D01*
X48739500Y-35275697D01*
X48362351Y-35652847D01*
X48241271Y-35676932D01*
X48071111Y-35747414D01*
X47917972Y-35849738D01*
X47787738Y-35979972D01*
X47685414Y-36133111D01*
X47614932Y-36303271D01*
X47579000Y-36483911D01*
X47579000Y-36668089D01*
X47614932Y-36848729D01*
X47685414Y-37018889D01*
X47787738Y-37172028D01*
X47917972Y-37302262D01*
X48071111Y-37404586D01*
X48241271Y-37475068D01*
X48421911Y-37511000D01*
X48606089Y-37511000D01*
X48786729Y-37475068D01*
X48956889Y-37404586D01*
X49110028Y-37302262D01*
X49240262Y-37172028D01*
X49342586Y-37018889D01*
X49413068Y-36848729D01*
X49437153Y-36727649D01*
X50010509Y-36154294D01*
X50039501Y-36130501D01*
X50063295Y-36101508D01*
X50063299Y-36101504D01*
X50134473Y-36014777D01*
X50134474Y-36014776D01*
X50205046Y-35882747D01*
X50248503Y-35739486D01*
X50259500Y-35627833D01*
X50259500Y-35627824D01*
X50263176Y-35590501D01*
X50259500Y-35553178D01*
X50259500Y-34966072D01*
X50637000Y-34966072D01*
X50810254Y-34949008D01*
X50976850Y-34898472D01*
X51130386Y-34816405D01*
X51264962Y-34705962D01*
X51375405Y-34571386D01*
X51457472Y-34417850D01*
X51484727Y-34328000D01*
X51598928Y-34328000D01*
X51611188Y-34452482D01*
X51647498Y-34572180D01*
X51706463Y-34682494D01*
X51785815Y-34779185D01*
X51882506Y-34858537D01*
X51992820Y-34917502D01*
X52112518Y-34953812D01*
X52237000Y-34966072D01*
X53338750Y-34963000D01*
X53497500Y-34804250D01*
X53497500Y-33655000D01*
X53751500Y-33655000D01*
X53751500Y-34804250D01*
X53910250Y-34963000D01*
X55012000Y-34966072D01*
X55136482Y-34953812D01*
X55256180Y-34917502D01*
X55366494Y-34858537D01*
X55463185Y-34779185D01*
X55542537Y-34682494D01*
X55601502Y-34572180D01*
X55637812Y-34452482D01*
X55650072Y-34328000D01*
X55647000Y-33813750D01*
X55488250Y-33655000D01*
X53751500Y-33655000D01*
X53497500Y-33655000D01*
X51760750Y-33655000D01*
X51602000Y-33813750D01*
X51598928Y-34328000D01*
X51484727Y-34328000D01*
X51508008Y-34251254D01*
X51525072Y-34078000D01*
X51525072Y-32978000D01*
X51508008Y-32804746D01*
X51484728Y-32728000D01*
X51598928Y-32728000D01*
X51602000Y-33242250D01*
X51760750Y-33401000D01*
X53497500Y-33401000D01*
X53497500Y-32251750D01*
X53751500Y-32251750D01*
X53751500Y-33401000D01*
X55488250Y-33401000D01*
X55647000Y-33242250D01*
X55648172Y-33046012D01*
X63145593Y-33046012D01*
X63268194Y-33333170D01*
X63595722Y-33496280D01*
X63948778Y-33592359D01*
X64313795Y-33617713D01*
X64676744Y-33571369D01*
X65023677Y-33455108D01*
X65076347Y-33426955D01*
X65050000Y-33559409D01*
X65050000Y-34004591D01*
X65136851Y-34441218D01*
X65307214Y-34852511D01*
X65554544Y-35222666D01*
X65869334Y-35537456D01*
X66239489Y-35784786D01*
X66650782Y-35955149D01*
X67087409Y-36042000D01*
X67532591Y-36042000D01*
X67969218Y-35955149D01*
X68380511Y-35784786D01*
X68750666Y-35537456D01*
X68804223Y-35483899D01*
X70805064Y-35483899D01*
X70846086Y-35756607D01*
X70939522Y-36016072D01*
X71001894Y-36132760D01*
X71242293Y-36200102D01*
X72030395Y-35412000D01*
X72389605Y-35412000D01*
X73177707Y-36200102D01*
X73418106Y-36132760D01*
X73535506Y-35883220D01*
X73601967Y-35615573D01*
X73614936Y-35340101D01*
X73573914Y-35067393D01*
X73480478Y-34807928D01*
X73418106Y-34691240D01*
X73177707Y-34623898D01*
X72389605Y-35412000D01*
X72030395Y-35412000D01*
X71242293Y-34623898D01*
X71001894Y-34691240D01*
X70884494Y-34940780D01*
X70818033Y-35208427D01*
X70805064Y-35483899D01*
X68804223Y-35483899D01*
X69065456Y-35222666D01*
X69312786Y-34852511D01*
X69483149Y-34441218D01*
X69570000Y-34004591D01*
X69570000Y-33559409D01*
X69483149Y-33122782D01*
X69322157Y-32734112D01*
X70810000Y-32734112D01*
X70810000Y-33009888D01*
X70863801Y-33280365D01*
X70969336Y-33535149D01*
X71122549Y-33764448D01*
X71317552Y-33959451D01*
X71546851Y-34112664D01*
X71611594Y-34139482D01*
X71605928Y-34141522D01*
X71489240Y-34203894D01*
X71421898Y-34444293D01*
X72210000Y-35232395D01*
X72998102Y-34444293D01*
X72930760Y-34203894D01*
X72800664Y-34142688D01*
X72873149Y-34112664D01*
X73102448Y-33959451D01*
X73297451Y-33764448D01*
X73450664Y-33535149D01*
X73556199Y-33280365D01*
X73610000Y-33009888D01*
X73610000Y-32734112D01*
X73556199Y-32463635D01*
X73450664Y-32208851D01*
X73297451Y-31979552D01*
X73102448Y-31784549D01*
X72873149Y-31631336D01*
X72618365Y-31525801D01*
X72347888Y-31472000D01*
X72072112Y-31472000D01*
X71801635Y-31525801D01*
X71546851Y-31631336D01*
X71317552Y-31784549D01*
X71122549Y-31979552D01*
X70969336Y-32208851D01*
X70863801Y-32463635D01*
X70810000Y-32734112D01*
X69322157Y-32734112D01*
X69312786Y-32711489D01*
X69065456Y-32341334D01*
X68750666Y-32026544D01*
X68380511Y-31779214D01*
X67969218Y-31608851D01*
X67532591Y-31522000D01*
X67087409Y-31522000D01*
X66650782Y-31608851D01*
X66239489Y-31779214D01*
X66114275Y-31862880D01*
X66125713Y-31698205D01*
X66079369Y-31335256D01*
X65963108Y-30988323D01*
X65841170Y-30760194D01*
X65554012Y-30637593D01*
X64439605Y-31752000D01*
X64453748Y-31766143D01*
X64274143Y-31945748D01*
X64260000Y-31931605D01*
X63145593Y-33046012D01*
X55648172Y-33046012D01*
X55650072Y-32728000D01*
X55637812Y-32603518D01*
X55601502Y-32483820D01*
X55542537Y-32373506D01*
X55463185Y-32276815D01*
X55366494Y-32197463D01*
X55256180Y-32138498D01*
X55136482Y-32102188D01*
X55012000Y-32089928D01*
X53910250Y-32093000D01*
X53751500Y-32251750D01*
X53497500Y-32251750D01*
X53338750Y-32093000D01*
X52237000Y-32089928D01*
X52112518Y-32102188D01*
X51992820Y-32138498D01*
X51882506Y-32197463D01*
X51785815Y-32276815D01*
X51706463Y-32373506D01*
X51647498Y-32483820D01*
X51611188Y-32603518D01*
X51598928Y-32728000D01*
X51484728Y-32728000D01*
X51457472Y-32638150D01*
X51375405Y-32484614D01*
X51264962Y-32350038D01*
X51130386Y-32239595D01*
X50976850Y-32157528D01*
X50810254Y-32106992D01*
X50637000Y-32089928D01*
X48362000Y-32089928D01*
X48188746Y-32106992D01*
X48022150Y-32157528D01*
X47868614Y-32239595D01*
X47734038Y-32350038D01*
X47623595Y-32484614D01*
X47541528Y-32638150D01*
X47490992Y-32804746D01*
X47473928Y-32978000D01*
X43573024Y-32978000D01*
X43676628Y-32922622D01*
X43792353Y-32827649D01*
X43816156Y-32798645D01*
X43872296Y-32742505D01*
X44007111Y-32832586D01*
X44177271Y-32903068D01*
X44357911Y-32939000D01*
X44542089Y-32939000D01*
X44722729Y-32903068D01*
X44892889Y-32832586D01*
X44995535Y-32764000D01*
X45237680Y-32764000D01*
X45275002Y-32767676D01*
X45312324Y-32764000D01*
X45312335Y-32764000D01*
X45423988Y-32753003D01*
X45567249Y-32709546D01*
X45699278Y-32638974D01*
X45815003Y-32544001D01*
X45838806Y-32514997D01*
X46548008Y-31805795D01*
X62394287Y-31805795D01*
X62440631Y-32168744D01*
X62556892Y-32515677D01*
X62678830Y-32743806D01*
X62965988Y-32866407D01*
X64080395Y-31752000D01*
X62965988Y-30637593D01*
X62678830Y-30760194D01*
X62515720Y-31087722D01*
X62419641Y-31440778D01*
X62394287Y-31805795D01*
X46548008Y-31805795D01*
X47903508Y-30450296D01*
X48106589Y-30585990D01*
X48376842Y-30697932D01*
X48663740Y-30755000D01*
X48956260Y-30755000D01*
X49243158Y-30697932D01*
X49513411Y-30585990D01*
X49756632Y-30423475D01*
X49963475Y-30216632D01*
X50080000Y-30042240D01*
X50196525Y-30216632D01*
X50403368Y-30423475D01*
X50646589Y-30585990D01*
X50916842Y-30697932D01*
X51203740Y-30755000D01*
X51496260Y-30755000D01*
X51783158Y-30697932D01*
X52053411Y-30585990D01*
X52296632Y-30423475D01*
X52503475Y-30216632D01*
X52620000Y-30042240D01*
X52736525Y-30216632D01*
X52943368Y-30423475D01*
X53186589Y-30585990D01*
X53456842Y-30697932D01*
X53743740Y-30755000D01*
X54036260Y-30755000D01*
X54323158Y-30697932D01*
X54593411Y-30585990D01*
X54836632Y-30423475D01*
X55043475Y-30216632D01*
X55160000Y-30042240D01*
X55276525Y-30216632D01*
X55483368Y-30423475D01*
X55726589Y-30585990D01*
X55996842Y-30697932D01*
X56283740Y-30755000D01*
X56576260Y-30755000D01*
X56863158Y-30697932D01*
X57133411Y-30585990D01*
X57376632Y-30423475D01*
X57583475Y-30216632D01*
X57700000Y-30042240D01*
X57816525Y-30216632D01*
X58023368Y-30423475D01*
X58266589Y-30585990D01*
X58536842Y-30697932D01*
X58823740Y-30755000D01*
X59116260Y-30755000D01*
X59403158Y-30697932D01*
X59673411Y-30585990D01*
X59916632Y-30423475D01*
X60123475Y-30216632D01*
X60240000Y-30042240D01*
X60356525Y-30216632D01*
X60563368Y-30423475D01*
X60806589Y-30585990D01*
X61076842Y-30697932D01*
X61363740Y-30755000D01*
X61656260Y-30755000D01*
X61943158Y-30697932D01*
X62213411Y-30585990D01*
X62456632Y-30423475D01*
X62663475Y-30216632D01*
X62780000Y-30042240D01*
X62896525Y-30216632D01*
X63103368Y-30423475D01*
X63147685Y-30453087D01*
X63145593Y-30457988D01*
X64260000Y-31572395D01*
X65374407Y-30457988D01*
X65251806Y-30170830D01*
X65238505Y-30164206D01*
X65320000Y-30042240D01*
X65436525Y-30216632D01*
X65643368Y-30423475D01*
X65886589Y-30585990D01*
X66156842Y-30697932D01*
X66443740Y-30755000D01*
X66736260Y-30755000D01*
X67023158Y-30697932D01*
X67293411Y-30585990D01*
X67536632Y-30423475D01*
X67743475Y-30216632D01*
X67860000Y-30042240D01*
X67976525Y-30216632D01*
X68183368Y-30423475D01*
X68426589Y-30585990D01*
X68696842Y-30697932D01*
X68983740Y-30755000D01*
X69276260Y-30755000D01*
X69563158Y-30697932D01*
X69833411Y-30585990D01*
X70076632Y-30423475D01*
X70283475Y-30216632D01*
X70445990Y-29973411D01*
X70557932Y-29703158D01*
X70615000Y-29416260D01*
X70615000Y-29123740D01*
X70557932Y-28836842D01*
X70445990Y-28566589D01*
X70283475Y-28323368D01*
X70076632Y-28116525D01*
X69902240Y-28000000D01*
X70076632Y-27883475D01*
X70283475Y-27676632D01*
X70445990Y-27433411D01*
X70557932Y-27163158D01*
X70615000Y-26876260D01*
X70615000Y-26583740D01*
X70557932Y-26296842D01*
X70445990Y-26026589D01*
X70283475Y-25783368D01*
X70076632Y-25576525D01*
X69833411Y-25414010D01*
X69563158Y-25302068D01*
X69276260Y-25245000D01*
X68983740Y-25245000D01*
X68696842Y-25302068D01*
X68426589Y-25414010D01*
X68183368Y-25576525D01*
X67976525Y-25783368D01*
X67860000Y-25957760D01*
X67743475Y-25783368D01*
X67536632Y-25576525D01*
X67293411Y-25414010D01*
X67023158Y-25302068D01*
X66736260Y-25245000D01*
X66443740Y-25245000D01*
X66156842Y-25302068D01*
X65886589Y-25414010D01*
X65643368Y-25576525D01*
X65436525Y-25783368D01*
X65320000Y-25957760D01*
X65203475Y-25783368D01*
X64996632Y-25576525D01*
X64753411Y-25414010D01*
X64483158Y-25302068D01*
X64196260Y-25245000D01*
X63903740Y-25245000D01*
X63616842Y-25302068D01*
X63346589Y-25414010D01*
X63103368Y-25576525D01*
X62896525Y-25783368D01*
X62780000Y-25957760D01*
X62663475Y-25783368D01*
X62456632Y-25576525D01*
X62213411Y-25414010D01*
X61943158Y-25302068D01*
X61656260Y-25245000D01*
X61363740Y-25245000D01*
X61076842Y-25302068D01*
X60806589Y-25414010D01*
X60563368Y-25576525D01*
X60356525Y-25783368D01*
X60240000Y-25957760D01*
X60123475Y-25783368D01*
X59916632Y-25576525D01*
X59673411Y-25414010D01*
X59403158Y-25302068D01*
X59116260Y-25245000D01*
X58823740Y-25245000D01*
X58536842Y-25302068D01*
X58266589Y-25414010D01*
X58023368Y-25576525D01*
X57816525Y-25783368D01*
X57700000Y-25957760D01*
X57583475Y-25783368D01*
X57376632Y-25576525D01*
X57133411Y-25414010D01*
X56863158Y-25302068D01*
X56576260Y-25245000D01*
X56283740Y-25245000D01*
X55996842Y-25302068D01*
X55726589Y-25414010D01*
X55483368Y-25576525D01*
X55276525Y-25783368D01*
X55160000Y-25957760D01*
X55043475Y-25783368D01*
X54836632Y-25576525D01*
X54593411Y-25414010D01*
X54323158Y-25302068D01*
X54036260Y-25245000D01*
X53743740Y-25245000D01*
X53456842Y-25302068D01*
X53186589Y-25414010D01*
X52943368Y-25576525D01*
X52736525Y-25783368D01*
X52620000Y-25957760D01*
X52503475Y-25783368D01*
X52296632Y-25576525D01*
X52053411Y-25414010D01*
X51783158Y-25302068D01*
X51496260Y-25245000D01*
X51203740Y-25245000D01*
X50916842Y-25302068D01*
X50646589Y-25414010D01*
X50403368Y-25576525D01*
X50196525Y-25783368D01*
X50080000Y-25957760D01*
X49963475Y-25783368D01*
X49756632Y-25576525D01*
X49513411Y-25414010D01*
X49243158Y-25302068D01*
X48956260Y-25245000D01*
X48663740Y-25245000D01*
X48443592Y-25288791D01*
X47839801Y-24685000D01*
X74466495Y-24685000D01*
X74949016Y-24732312D01*
G37*
G04 #@! TD.AperFunction*
M02*
