G04 #@! TF.GenerationSoftware,KiCad,Pcbnew,(5.1.9)-1*
G04 #@! TF.CreationDate,2021-09-02T14:26:12+03:00*
G04 #@! TF.ProjectId,RPi_EthShield,5250695f-4574-4685-9368-69656c642e6b,rev?*
G04 #@! TF.SameCoordinates,Original*
G04 #@! TF.FileFunction,Soldermask,Top*
G04 #@! TF.FilePolarity,Negative*
%FSLAX46Y46*%
G04 Gerber Fmt 4.6, Leading zero omitted, Abs format (unit mm)*
G04 Created by KiCad (PCBNEW (5.1.9)-1) date 2021-09-02 14:26:12*
%MOMM*%
%LPD*%
G01*
G04 APERTURE LIST*
%ADD10C,1.446000*%
%ADD11C,1.530000*%
%ADD12C,2.445000*%
%ADD13R,4.500000X2.000000*%
%ADD14R,0.950000X1.750000*%
%ADD15R,3.250000X1.750000*%
%ADD16O,1.700000X1.700000*%
%ADD17R,1.700000X1.700000*%
%ADD18C,6.200000*%
G04 APERTURE END LIST*
D10*
X60960000Y-35052000D03*
X58420000Y-36322000D03*
X60960000Y-37592000D03*
X58420000Y-38862000D03*
X60960000Y-40132000D03*
X58420000Y-41402000D03*
X60960000Y-42672000D03*
X58420000Y-43942000D03*
D11*
X72210000Y-32872000D03*
X72210000Y-35412000D03*
X72210000Y-43582000D03*
X72210000Y-46122000D03*
D12*
X64260000Y-31752000D03*
X64260000Y-47242000D03*
D13*
X46434000Y-47752000D03*
X37934000Y-47752000D03*
G36*
G01*
X62592000Y-51619998D02*
X62592000Y-52520002D01*
G75*
G02*
X62342002Y-52770000I-249998J0D01*
G01*
X61816998Y-52770000D01*
G75*
G02*
X61567000Y-52520002I0J249998D01*
G01*
X61567000Y-51619998D01*
G75*
G02*
X61816998Y-51370000I249998J0D01*
G01*
X62342002Y-51370000D01*
G75*
G02*
X62592000Y-51619998I0J-249998D01*
G01*
G37*
G36*
G01*
X64417000Y-51619998D02*
X64417000Y-52520002D01*
G75*
G02*
X64167002Y-52770000I-249998J0D01*
G01*
X63641998Y-52770000D01*
G75*
G02*
X63392000Y-52520002I0J249998D01*
G01*
X63392000Y-51619998D01*
G75*
G02*
X63641998Y-51370000I249998J0D01*
G01*
X64167002Y-51370000D01*
G75*
G02*
X64417000Y-51619998I0J-249998D01*
G01*
G37*
G36*
G01*
X67568500Y-40697998D02*
X67568500Y-41598002D01*
G75*
G02*
X67318502Y-41848000I-249998J0D01*
G01*
X66793498Y-41848000D01*
G75*
G02*
X66543500Y-41598002I0J249998D01*
G01*
X66543500Y-40697998D01*
G75*
G02*
X66793498Y-40448000I249998J0D01*
G01*
X67318502Y-40448000D01*
G75*
G02*
X67568500Y-40697998I0J-249998D01*
G01*
G37*
G36*
G01*
X69393500Y-40697998D02*
X69393500Y-41598002D01*
G75*
G02*
X69143502Y-41848000I-249998J0D01*
G01*
X68618498Y-41848000D01*
G75*
G02*
X68368500Y-41598002I0J249998D01*
G01*
X68368500Y-40697998D01*
G75*
G02*
X68618498Y-40448000I249998J0D01*
G01*
X69143502Y-40448000D01*
G75*
G02*
X69393500Y-40697998I0J-249998D01*
G01*
G37*
G36*
G01*
X67521500Y-38157998D02*
X67521500Y-39058002D01*
G75*
G02*
X67271502Y-39308000I-249998J0D01*
G01*
X66746498Y-39308000D01*
G75*
G02*
X66496500Y-39058002I0J249998D01*
G01*
X66496500Y-38157998D01*
G75*
G02*
X66746498Y-37908000I249998J0D01*
G01*
X67271502Y-37908000D01*
G75*
G02*
X67521500Y-38157998I0J-249998D01*
G01*
G37*
G36*
G01*
X69346500Y-38157998D02*
X69346500Y-39058002D01*
G75*
G02*
X69096502Y-39308000I-249998J0D01*
G01*
X68571498Y-39308000D01*
G75*
G02*
X68321500Y-39058002I0J249998D01*
G01*
X68321500Y-38157998D01*
G75*
G02*
X68571498Y-37908000I249998J0D01*
G01*
X69096502Y-37908000D01*
G75*
G02*
X69346500Y-38157998I0J-249998D01*
G01*
G37*
G36*
G01*
X76197750Y-43809500D02*
X76710250Y-43809500D01*
G75*
G02*
X76929000Y-44028250I0J-218750D01*
G01*
X76929000Y-44465750D01*
G75*
G02*
X76710250Y-44684500I-218750J0D01*
G01*
X76197750Y-44684500D01*
G75*
G02*
X75979000Y-44465750I0J218750D01*
G01*
X75979000Y-44028250D01*
G75*
G02*
X76197750Y-43809500I218750J0D01*
G01*
G37*
G36*
G01*
X76197750Y-42234500D02*
X76710250Y-42234500D01*
G75*
G02*
X76929000Y-42453250I0J-218750D01*
G01*
X76929000Y-42890750D01*
G75*
G02*
X76710250Y-43109500I-218750J0D01*
G01*
X76197750Y-43109500D01*
G75*
G02*
X75979000Y-42890750I0J218750D01*
G01*
X75979000Y-42453250D01*
G75*
G02*
X76197750Y-42234500I218750J0D01*
G01*
G37*
G36*
G01*
X50005000Y-39108000D02*
X49055000Y-39108000D01*
G75*
G02*
X48805000Y-38858000I0J250000D01*
G01*
X48805000Y-38358000D01*
G75*
G02*
X49055000Y-38108000I250000J0D01*
G01*
X50005000Y-38108000D01*
G75*
G02*
X50255000Y-38358000I0J-250000D01*
G01*
X50255000Y-38858000D01*
G75*
G02*
X50005000Y-39108000I-250000J0D01*
G01*
G37*
G36*
G01*
X50005000Y-41008000D02*
X49055000Y-41008000D01*
G75*
G02*
X48805000Y-40758000I0J250000D01*
G01*
X48805000Y-40258000D01*
G75*
G02*
X49055000Y-40008000I250000J0D01*
G01*
X50005000Y-40008000D01*
G75*
G02*
X50255000Y-40258000I0J-250000D01*
G01*
X50255000Y-40758000D01*
G75*
G02*
X50005000Y-41008000I-250000J0D01*
G01*
G37*
G36*
G01*
X45154000Y-52291000D02*
X45154000Y-51341000D01*
G75*
G02*
X45404000Y-51091000I250000J0D01*
G01*
X45904000Y-51091000D01*
G75*
G02*
X46154000Y-51341000I0J-250000D01*
G01*
X46154000Y-52291000D01*
G75*
G02*
X45904000Y-52541000I-250000J0D01*
G01*
X45404000Y-52541000D01*
G75*
G02*
X45154000Y-52291000I0J250000D01*
G01*
G37*
G36*
G01*
X43254000Y-52291000D02*
X43254000Y-51341000D01*
G75*
G02*
X43504000Y-51091000I250000J0D01*
G01*
X44004000Y-51091000D01*
G75*
G02*
X44254000Y-51341000I0J-250000D01*
G01*
X44254000Y-52291000D01*
G75*
G02*
X44004000Y-52541000I-250000J0D01*
G01*
X43504000Y-52541000D01*
G75*
G02*
X43254000Y-52291000I0J250000D01*
G01*
G37*
G36*
G01*
X40516000Y-52291000D02*
X40516000Y-51341000D01*
G75*
G02*
X40766000Y-51091000I250000J0D01*
G01*
X41266000Y-51091000D01*
G75*
G02*
X41516000Y-51341000I0J-250000D01*
G01*
X41516000Y-52291000D01*
G75*
G02*
X41266000Y-52541000I-250000J0D01*
G01*
X40766000Y-52541000D01*
G75*
G02*
X40516000Y-52291000I0J250000D01*
G01*
G37*
G36*
G01*
X38616000Y-52291000D02*
X38616000Y-51341000D01*
G75*
G02*
X38866000Y-51091000I250000J0D01*
G01*
X39366000Y-51091000D01*
G75*
G02*
X39616000Y-51341000I0J-250000D01*
G01*
X39616000Y-52291000D01*
G75*
G02*
X39366000Y-52541000I-250000J0D01*
G01*
X38866000Y-52541000D01*
G75*
G02*
X38616000Y-52291000I0J250000D01*
G01*
G37*
G36*
G01*
X54323000Y-42730000D02*
X53373000Y-42730000D01*
G75*
G02*
X53123000Y-42480000I0J250000D01*
G01*
X53123000Y-41980000D01*
G75*
G02*
X53373000Y-41730000I250000J0D01*
G01*
X54323000Y-41730000D01*
G75*
G02*
X54573000Y-41980000I0J-250000D01*
G01*
X54573000Y-42480000D01*
G75*
G02*
X54323000Y-42730000I-250000J0D01*
G01*
G37*
G36*
G01*
X54323000Y-44630000D02*
X53373000Y-44630000D01*
G75*
G02*
X53123000Y-44380000I0J250000D01*
G01*
X53123000Y-43880000D01*
G75*
G02*
X53373000Y-43630000I250000J0D01*
G01*
X54323000Y-43630000D01*
G75*
G02*
X54573000Y-43880000I0J-250000D01*
G01*
X54573000Y-44380000D01*
G75*
G02*
X54323000Y-44630000I-250000J0D01*
G01*
G37*
D14*
X26684000Y-43586000D03*
X24384000Y-43586000D03*
X22084000Y-43586000D03*
D15*
X24384000Y-49886000D03*
G36*
G01*
X46967000Y-42233000D02*
X47267000Y-42233000D01*
G75*
G02*
X47417000Y-42383000I0J-150000D01*
G01*
X47417000Y-44133000D01*
G75*
G02*
X47267000Y-44283000I-150000J0D01*
G01*
X46967000Y-44283000D01*
G75*
G02*
X46817000Y-44133000I0J150000D01*
G01*
X46817000Y-42383000D01*
G75*
G02*
X46967000Y-42233000I150000J0D01*
G01*
G37*
G36*
G01*
X45697000Y-42233000D02*
X45997000Y-42233000D01*
G75*
G02*
X46147000Y-42383000I0J-150000D01*
G01*
X46147000Y-44133000D01*
G75*
G02*
X45997000Y-44283000I-150000J0D01*
G01*
X45697000Y-44283000D01*
G75*
G02*
X45547000Y-44133000I0J150000D01*
G01*
X45547000Y-42383000D01*
G75*
G02*
X45697000Y-42233000I150000J0D01*
G01*
G37*
G36*
G01*
X44427000Y-42233000D02*
X44727000Y-42233000D01*
G75*
G02*
X44877000Y-42383000I0J-150000D01*
G01*
X44877000Y-44133000D01*
G75*
G02*
X44727000Y-44283000I-150000J0D01*
G01*
X44427000Y-44283000D01*
G75*
G02*
X44277000Y-44133000I0J150000D01*
G01*
X44277000Y-42383000D01*
G75*
G02*
X44427000Y-42233000I150000J0D01*
G01*
G37*
G36*
G01*
X43157000Y-42233000D02*
X43457000Y-42233000D01*
G75*
G02*
X43607000Y-42383000I0J-150000D01*
G01*
X43607000Y-44133000D01*
G75*
G02*
X43457000Y-44283000I-150000J0D01*
G01*
X43157000Y-44283000D01*
G75*
G02*
X43007000Y-44133000I0J150000D01*
G01*
X43007000Y-42383000D01*
G75*
G02*
X43157000Y-42233000I150000J0D01*
G01*
G37*
G36*
G01*
X41887000Y-42233000D02*
X42187000Y-42233000D01*
G75*
G02*
X42337000Y-42383000I0J-150000D01*
G01*
X42337000Y-44133000D01*
G75*
G02*
X42187000Y-44283000I-150000J0D01*
G01*
X41887000Y-44283000D01*
G75*
G02*
X41737000Y-44133000I0J150000D01*
G01*
X41737000Y-42383000D01*
G75*
G02*
X41887000Y-42233000I150000J0D01*
G01*
G37*
G36*
G01*
X40617000Y-42233000D02*
X40917000Y-42233000D01*
G75*
G02*
X41067000Y-42383000I0J-150000D01*
G01*
X41067000Y-44133000D01*
G75*
G02*
X40917000Y-44283000I-150000J0D01*
G01*
X40617000Y-44283000D01*
G75*
G02*
X40467000Y-44133000I0J150000D01*
G01*
X40467000Y-42383000D01*
G75*
G02*
X40617000Y-42233000I150000J0D01*
G01*
G37*
G36*
G01*
X39347000Y-42233000D02*
X39647000Y-42233000D01*
G75*
G02*
X39797000Y-42383000I0J-150000D01*
G01*
X39797000Y-44133000D01*
G75*
G02*
X39647000Y-44283000I-150000J0D01*
G01*
X39347000Y-44283000D01*
G75*
G02*
X39197000Y-44133000I0J150000D01*
G01*
X39197000Y-42383000D01*
G75*
G02*
X39347000Y-42233000I150000J0D01*
G01*
G37*
G36*
G01*
X38077000Y-42233000D02*
X38377000Y-42233000D01*
G75*
G02*
X38527000Y-42383000I0J-150000D01*
G01*
X38527000Y-44133000D01*
G75*
G02*
X38377000Y-44283000I-150000J0D01*
G01*
X38077000Y-44283000D01*
G75*
G02*
X37927000Y-44133000I0J150000D01*
G01*
X37927000Y-42383000D01*
G75*
G02*
X38077000Y-42233000I150000J0D01*
G01*
G37*
G36*
G01*
X36807000Y-42233000D02*
X37107000Y-42233000D01*
G75*
G02*
X37257000Y-42383000I0J-150000D01*
G01*
X37257000Y-44133000D01*
G75*
G02*
X37107000Y-44283000I-150000J0D01*
G01*
X36807000Y-44283000D01*
G75*
G02*
X36657000Y-44133000I0J150000D01*
G01*
X36657000Y-42383000D01*
G75*
G02*
X36807000Y-42233000I150000J0D01*
G01*
G37*
G36*
G01*
X35537000Y-42233000D02*
X35837000Y-42233000D01*
G75*
G02*
X35987000Y-42383000I0J-150000D01*
G01*
X35987000Y-44133000D01*
G75*
G02*
X35837000Y-44283000I-150000J0D01*
G01*
X35537000Y-44283000D01*
G75*
G02*
X35387000Y-44133000I0J150000D01*
G01*
X35387000Y-42383000D01*
G75*
G02*
X35537000Y-42233000I150000J0D01*
G01*
G37*
G36*
G01*
X34267000Y-42233000D02*
X34567000Y-42233000D01*
G75*
G02*
X34717000Y-42383000I0J-150000D01*
G01*
X34717000Y-44133000D01*
G75*
G02*
X34567000Y-44283000I-150000J0D01*
G01*
X34267000Y-44283000D01*
G75*
G02*
X34117000Y-44133000I0J150000D01*
G01*
X34117000Y-42383000D01*
G75*
G02*
X34267000Y-42233000I150000J0D01*
G01*
G37*
G36*
G01*
X32997000Y-42233000D02*
X33297000Y-42233000D01*
G75*
G02*
X33447000Y-42383000I0J-150000D01*
G01*
X33447000Y-44133000D01*
G75*
G02*
X33297000Y-44283000I-150000J0D01*
G01*
X32997000Y-44283000D01*
G75*
G02*
X32847000Y-44133000I0J150000D01*
G01*
X32847000Y-42383000D01*
G75*
G02*
X32997000Y-42233000I150000J0D01*
G01*
G37*
G36*
G01*
X31727000Y-42233000D02*
X32027000Y-42233000D01*
G75*
G02*
X32177000Y-42383000I0J-150000D01*
G01*
X32177000Y-44133000D01*
G75*
G02*
X32027000Y-44283000I-150000J0D01*
G01*
X31727000Y-44283000D01*
G75*
G02*
X31577000Y-44133000I0J150000D01*
G01*
X31577000Y-42383000D01*
G75*
G02*
X31727000Y-42233000I150000J0D01*
G01*
G37*
G36*
G01*
X30457000Y-42233000D02*
X30757000Y-42233000D01*
G75*
G02*
X30907000Y-42383000I0J-150000D01*
G01*
X30907000Y-44133000D01*
G75*
G02*
X30757000Y-44283000I-150000J0D01*
G01*
X30457000Y-44283000D01*
G75*
G02*
X30307000Y-44133000I0J150000D01*
G01*
X30307000Y-42383000D01*
G75*
G02*
X30457000Y-42233000I150000J0D01*
G01*
G37*
G36*
G01*
X30457000Y-32933000D02*
X30757000Y-32933000D01*
G75*
G02*
X30907000Y-33083000I0J-150000D01*
G01*
X30907000Y-34833000D01*
G75*
G02*
X30757000Y-34983000I-150000J0D01*
G01*
X30457000Y-34983000D01*
G75*
G02*
X30307000Y-34833000I0J150000D01*
G01*
X30307000Y-33083000D01*
G75*
G02*
X30457000Y-32933000I150000J0D01*
G01*
G37*
G36*
G01*
X31727000Y-32933000D02*
X32027000Y-32933000D01*
G75*
G02*
X32177000Y-33083000I0J-150000D01*
G01*
X32177000Y-34833000D01*
G75*
G02*
X32027000Y-34983000I-150000J0D01*
G01*
X31727000Y-34983000D01*
G75*
G02*
X31577000Y-34833000I0J150000D01*
G01*
X31577000Y-33083000D01*
G75*
G02*
X31727000Y-32933000I150000J0D01*
G01*
G37*
G36*
G01*
X32997000Y-32933000D02*
X33297000Y-32933000D01*
G75*
G02*
X33447000Y-33083000I0J-150000D01*
G01*
X33447000Y-34833000D01*
G75*
G02*
X33297000Y-34983000I-150000J0D01*
G01*
X32997000Y-34983000D01*
G75*
G02*
X32847000Y-34833000I0J150000D01*
G01*
X32847000Y-33083000D01*
G75*
G02*
X32997000Y-32933000I150000J0D01*
G01*
G37*
G36*
G01*
X34267000Y-32933000D02*
X34567000Y-32933000D01*
G75*
G02*
X34717000Y-33083000I0J-150000D01*
G01*
X34717000Y-34833000D01*
G75*
G02*
X34567000Y-34983000I-150000J0D01*
G01*
X34267000Y-34983000D01*
G75*
G02*
X34117000Y-34833000I0J150000D01*
G01*
X34117000Y-33083000D01*
G75*
G02*
X34267000Y-32933000I150000J0D01*
G01*
G37*
G36*
G01*
X35537000Y-32933000D02*
X35837000Y-32933000D01*
G75*
G02*
X35987000Y-33083000I0J-150000D01*
G01*
X35987000Y-34833000D01*
G75*
G02*
X35837000Y-34983000I-150000J0D01*
G01*
X35537000Y-34983000D01*
G75*
G02*
X35387000Y-34833000I0J150000D01*
G01*
X35387000Y-33083000D01*
G75*
G02*
X35537000Y-32933000I150000J0D01*
G01*
G37*
G36*
G01*
X36807000Y-32933000D02*
X37107000Y-32933000D01*
G75*
G02*
X37257000Y-33083000I0J-150000D01*
G01*
X37257000Y-34833000D01*
G75*
G02*
X37107000Y-34983000I-150000J0D01*
G01*
X36807000Y-34983000D01*
G75*
G02*
X36657000Y-34833000I0J150000D01*
G01*
X36657000Y-33083000D01*
G75*
G02*
X36807000Y-32933000I150000J0D01*
G01*
G37*
G36*
G01*
X38077000Y-32933000D02*
X38377000Y-32933000D01*
G75*
G02*
X38527000Y-33083000I0J-150000D01*
G01*
X38527000Y-34833000D01*
G75*
G02*
X38377000Y-34983000I-150000J0D01*
G01*
X38077000Y-34983000D01*
G75*
G02*
X37927000Y-34833000I0J150000D01*
G01*
X37927000Y-33083000D01*
G75*
G02*
X38077000Y-32933000I150000J0D01*
G01*
G37*
G36*
G01*
X39347000Y-32933000D02*
X39647000Y-32933000D01*
G75*
G02*
X39797000Y-33083000I0J-150000D01*
G01*
X39797000Y-34833000D01*
G75*
G02*
X39647000Y-34983000I-150000J0D01*
G01*
X39347000Y-34983000D01*
G75*
G02*
X39197000Y-34833000I0J150000D01*
G01*
X39197000Y-33083000D01*
G75*
G02*
X39347000Y-32933000I150000J0D01*
G01*
G37*
G36*
G01*
X40617000Y-32933000D02*
X40917000Y-32933000D01*
G75*
G02*
X41067000Y-33083000I0J-150000D01*
G01*
X41067000Y-34833000D01*
G75*
G02*
X40917000Y-34983000I-150000J0D01*
G01*
X40617000Y-34983000D01*
G75*
G02*
X40467000Y-34833000I0J150000D01*
G01*
X40467000Y-33083000D01*
G75*
G02*
X40617000Y-32933000I150000J0D01*
G01*
G37*
G36*
G01*
X41887000Y-32933000D02*
X42187000Y-32933000D01*
G75*
G02*
X42337000Y-33083000I0J-150000D01*
G01*
X42337000Y-34833000D01*
G75*
G02*
X42187000Y-34983000I-150000J0D01*
G01*
X41887000Y-34983000D01*
G75*
G02*
X41737000Y-34833000I0J150000D01*
G01*
X41737000Y-33083000D01*
G75*
G02*
X41887000Y-32933000I150000J0D01*
G01*
G37*
G36*
G01*
X43157000Y-32933000D02*
X43457000Y-32933000D01*
G75*
G02*
X43607000Y-33083000I0J-150000D01*
G01*
X43607000Y-34833000D01*
G75*
G02*
X43457000Y-34983000I-150000J0D01*
G01*
X43157000Y-34983000D01*
G75*
G02*
X43007000Y-34833000I0J150000D01*
G01*
X43007000Y-33083000D01*
G75*
G02*
X43157000Y-32933000I150000J0D01*
G01*
G37*
G36*
G01*
X44427000Y-32933000D02*
X44727000Y-32933000D01*
G75*
G02*
X44877000Y-33083000I0J-150000D01*
G01*
X44877000Y-34833000D01*
G75*
G02*
X44727000Y-34983000I-150000J0D01*
G01*
X44427000Y-34983000D01*
G75*
G02*
X44277000Y-34833000I0J150000D01*
G01*
X44277000Y-33083000D01*
G75*
G02*
X44427000Y-32933000I150000J0D01*
G01*
G37*
G36*
G01*
X45697000Y-32933000D02*
X45997000Y-32933000D01*
G75*
G02*
X46147000Y-33083000I0J-150000D01*
G01*
X46147000Y-34833000D01*
G75*
G02*
X45997000Y-34983000I-150000J0D01*
G01*
X45697000Y-34983000D01*
G75*
G02*
X45547000Y-34833000I0J150000D01*
G01*
X45547000Y-33083000D01*
G75*
G02*
X45697000Y-32933000I150000J0D01*
G01*
G37*
G36*
G01*
X46967000Y-32933000D02*
X47267000Y-32933000D01*
G75*
G02*
X47417000Y-33083000I0J-150000D01*
G01*
X47417000Y-34833000D01*
G75*
G02*
X47267000Y-34983000I-150000J0D01*
G01*
X46967000Y-34983000D01*
G75*
G02*
X46817000Y-34833000I0J150000D01*
G01*
X46817000Y-33083000D01*
G75*
G02*
X46967000Y-32933000I150000J0D01*
G01*
G37*
D16*
X69130000Y-26730000D03*
X69130000Y-29270000D03*
X66590000Y-26730000D03*
X66590000Y-29270000D03*
X64050000Y-26730000D03*
X64050000Y-29270000D03*
X61510000Y-26730000D03*
X61510000Y-29270000D03*
X58970000Y-26730000D03*
X58970000Y-29270000D03*
X56430000Y-26730000D03*
X56430000Y-29270000D03*
X53890000Y-26730000D03*
X53890000Y-29270000D03*
X51350000Y-26730000D03*
X51350000Y-29270000D03*
X48810000Y-26730000D03*
X48810000Y-29270000D03*
X46270000Y-26730000D03*
X46270000Y-29270000D03*
X43730000Y-26730000D03*
X43730000Y-29270000D03*
X41190000Y-26730000D03*
X41190000Y-29270000D03*
X38650000Y-26730000D03*
X38650000Y-29270000D03*
X36110000Y-26730000D03*
X36110000Y-29270000D03*
X33570000Y-26730000D03*
X33570000Y-29270000D03*
X31030000Y-26730000D03*
X31030000Y-29270000D03*
X28490000Y-26730000D03*
X28490000Y-29270000D03*
X25950000Y-26730000D03*
X25950000Y-29270000D03*
X23410000Y-26730000D03*
X23410000Y-29270000D03*
X20870000Y-26730000D03*
D17*
X20870000Y-29270000D03*
D18*
X16000000Y-51000000D03*
X74000000Y-28000000D03*
X74000000Y-51000000D03*
X16000000Y-28000000D03*
M02*
